SplineFontDB: 3.0
FontName: Shabnam-Bold
FullName: Shabnam Bold
FamilyName: Shabnam
Weight: Bold
Copyright: Copyright (c) 2003 by Bitstream, Inc. All Rights Reserved.\nDejaVu changes are in public domain\nCopyright (c) 2015 by Saber Rastikerdar. All Rights Reserved.
Version: 0.5.2
ItalicAngle: 0
UnderlinePosition: -100
UnderlineWidth: 100
Ascent: 1536
Descent: 512
InvalidEm: 0
LayerCount: 2
Layer: 0 1 "Back" 1
Layer: 1 1 "Fore" 0
XUID: [1021 502 1027637223 5555850]
UniqueID: 4035638
UseUniqueID: 1
FSType: 0
OS2Version: 1
OS2_WeightWidthSlopeOnly: 0
OS2_UseTypoMetrics: 1
CreationTime: 1431850356
ModificationTime: 1449437001
PfmFamily: 33
TTFWeight: 700
TTFWidth: 5
LineGap: 0
VLineGap: 0
Panose: 2 11 6 3 3 8 4 2 2 4
OS2TypoAscent: 2000
OS2TypoAOffset: 0
OS2TypoDescent: -1000
OS2TypoDOffset: 0
OS2TypoLinegap: 0
OS2WinAscent: 2000
OS2WinAOffset: 0
OS2WinDescent: 1000
OS2WinDOffset: 0
HheadAscent: 2000
HheadAOffset: 0
HheadDescent: -1000
HheadDOffset: 0
OS2SubXSize: 1331
OS2SubYSize: 1433
OS2SubXOff: 0
OS2SubYOff: 286
OS2SupXSize: 1331
OS2SupYSize: 1433
OS2SupXOff: 0
OS2SupYOff: 983
OS2StrikeYSize: 102
OS2StrikeYPos: 530
OS2Vendor: 'PfEd'
OS2CodePages: 600001ff.dfff0000
Lookup: 1 0 0 "'case' Case-Sensitive Forms in Latin lookup 0" { "'case' Case-Sensitive Forms in Latin lookup 0 subtable"  } ['case' ('DFLT' <'dflt' > 'latn' <'CAT ' 'ESP ' 'GAL ' 'dflt' > ) ]
Lookup: 6 1 0 "'ccmp' Glyph Composition/Decomposition lookup 2" { "'ccmp' Glyph Composition/Decomposition lookup 2 subtable"  } ['ccmp' ('arab' <'KUR ' 'SND ' 'URD ' 'dflt' > 'hebr' <'dflt' > 'nko ' <'dflt' > ) ]
Lookup: 6 0 0 "'ccmp' Glyph Composition/Decomposition lookup 3" { "'ccmp' Glyph Composition/Decomposition lookup 3 subtable"  } ['ccmp' ('cyrl' <'MKD ' 'SRB ' 'dflt' > 'grek' <'dflt' > 'latn' <'ISM ' 'KSM ' 'LSM ' 'MOL ' 'NSM ' 'ROM ' 'SKS ' 'SSM ' 'dflt' > ) ]

StartChar: exclam
Encoding: 33 33 1
Width: 877
GlyphClass: 2
Flags: W
LayerCount: 2
Fore
SplineSet
269.447265625 167.556640625 m 128,-1,1
 269.447265625 236.92578125 269.447265625 236.92578125 318.538085938 286.017578125 c 128,-1,2
 367.62890625 335.108398438 367.62890625 335.108398438 437 335.108398438 c 128,-1,3
 506.372070312 335.108398438 506.372070312 335.108398438 555.461914062 286.017578125 c 128,-1,4
 604.555664062 236.926757812 604.555664062 236.926757812 604.555664062 167.556640625 c 128,-1,5
 604.555664062 98.181640625 604.555664062 98.181640625 555.461914062 49.091796875 c 128,-1,6
 506.372070312 0 506.372070312 0 437 0 c 128,-1,7
 367.62890625 0 367.62890625 0 318.538085938 49.091796875 c 128,-1,0
 269.447265625 98.1806640625 269.447265625 98.1806640625 269.447265625 167.556640625 c 128,-1,1
269.78 1403.42 m 1,8,-1
 608.18 1403.42 l 1,9,-1
 560.240234375 503.879882812 l 5,10,-1
 317.719726562 503.879882812 l 5,11,-1
 269.78 1403.42 l 1,8,-1
EndSplineSet
EndChar

StartChar: parenleft
Encoding: 40 40 2
Width: 879
GlyphClass: 2
Flags: W
GlyphCompositionVertical: 3  uni239D%0,0,38,2311 uni239C%1,38,38,2335 uni239B%0,38,0,2343
LayerCount: 2
Fore
SplineSet
689.396484375 -241.110351562 m 1,0,-1
 424.174804688 -241.110351562 l 1,1,2
 287.545898438 -20.5390625 287.545898438 -20.5390625 222.357421875 178.153320312 c 128,-1,3
 157.16796875 376.845703125 157.16796875 376.845703125 157.16796875 572.413085938 c 128,-1,4
 157.16796875 767.98046875 157.16796875 767.98046875 222.803710938 968.458984375 c 128,-1,5
 288.439453125 1168.93652344 288.439453125 1168.93652344 424.174804688 1387.72167969 c 1,6,-1
 689.396484375 1387.72167969 l 1,7,8
 575.091796875 1176.08105469 575.091796875 1176.08105469 517.940429688 973.81640625 c 128,-1,9
 460.788085938 771.551757812 460.788085938 771.551757812 460.788085938 574.19921875 c 128,-1,10
 460.788085938 376.845703125 460.788085938 376.845703125 517.493164062 174.134765625 c 128,-1,11
 574.19921875 -28.576171875 574.19921875 -28.576171875 689.396484375 -241.110351562 c 1,0,-1
EndSplineSet
EndChar

StartChar: parenright
Encoding: 41 41 3
Width: 879
GlyphClass: 2
Flags: W
GlyphCompositionVertical: 3  uni23A0%0,0,38,2311 uni239F%1,38,38,2335 uni239E%0,38,0,2343
LayerCount: 2
Fore
SplineSet
146.452148438 -241.110351562 m 0,0,1
 260.755859375 -28.576171875 260.755859375 -28.576171875 317.908203125 174.134765625 c 128,-1,2
 375.059570312 376.845703125 375.059570312 376.845703125 375.059570312 574.19921875 c 128,-1,3
 375.059570312 771.551757812 375.059570312 771.551757812 317.908203125 973.81640625 c 128,-1,4
 260.755859375 1176.08105469 260.755859375 1176.08105469 146.452148438 1387.72167969 c 1,5,-1
 411.672851562 1387.72167969 l 1,6,7
 547.409179688 1168.93652344 547.409179688 1168.93652344 613.044921875 968.458984375 c 128,-1,8
 678.6796875 767.98046875 678.6796875 767.98046875 678.6796875 572.413085938 c 128,-1,9
 678.6796875 376.845703125 678.6796875 376.845703125 613.491210938 178.153320312 c 128,-1,10
 548.301757812 -20.5390625 548.301757812 -20.5390625 411.672851562 -241.110351562 c 1,11,-1
 146.452148438 -241.110351562 l 0,0,1
EndSplineSet
EndChar

StartChar: asterisk
Encoding: 42 42 4
Width: 1006
GlyphClass: 2
Flags: W
LayerCount: 2
Fore
SplineSet
919.790039062 1086.78125 m 1,0,-1
 625.099609375 932.291992188 l 1,1,-1
 919.790039062 776.91015625 l 1,2,-1
 851.921875 650.997070312 l 1,3,-1
 554.552734375 815.30859375 l 1,4,-1
 554.552734375 508.1171875 l 1,5,-1
 402.743164062 508.1171875 l 1,6,-1
 402.743164062 815.30859375 l 1,7,-1
 104.481445312 650.997070312 l 1,8,-1
 36.61328125 776.91015625 l 1,9,-1
 334.875 932.291992188 l 1,10,-1
 36.61328125 1086.78125 l 1,11,-1
 104.481445312 1212.69433594 l 1,12,-1
 402.743164062 1050.16796875 l 1,13,-1
 402.743164062 1357.36035156 l 1,14,-1
 554.552734375 1357.36035156 l 1,15,-1
 554.552734375 1050.16796875 l 1,16,-1
 851.921875 1212.69433594 l 1,17,-1
 919.790039062 1086.78125 l 1,0,-1
EndSplineSet
EndChar

StartChar: plus
Encoding: 43 43 5
Width: 1613
GlyphClass: 2
Flags: W
LayerCount: 2
Fore
SplineSet
872.4609375 1146.61230469 m 1,0,-1
 872.4609375 678.6796875 l 1,1,-1
 1338.60742188 678.6796875 l 1,2,-1
 1338.60742188 467.931640625 l 1,3,-1
 872.4609375 467.931640625 l 1,4,-1
 872.4609375 -0 l 1,5,-1
 659.926757812 -0 l 1,6,-1
 659.926757812 467.931640625 l 1,7,-1
 193.78125 467.931640625 l 1,8,-1
 193.78125 678.6796875 l 1,9,-1
 659.926757812 678.6796875 l 1,10,-1
 659.926757812 1146.61230469 l 1,11,-1
 872.4609375 1146.61230469 l 1,0,-1
EndSplineSet
EndChar

StartChar: hyphen
Encoding: 45 45 6
Width: 799
GlyphClass: 2
Flags: W
LayerCount: 2
Fore
SplineSet
99.123046875 656.35546875 m 1,0,-1
 659.926757812 656.35546875 l 1,1,-1
 659.926757812 396.4921875 l 1,2,-1
 99.123046875 396.4921875 l 1,3,-1
 99.123046875 656.35546875 l 1,0,-1
EndSplineSet
EndChar

StartChar: period
Encoding: 46 46 7
Width: 731
GlyphClass: 2
Flags: W
LayerCount: 2
Fore
SplineSet
197.475585938 168.58984375 m 132,-1,1
 197.475585938 237.958984375 197.475585938 237.958984375 246.56640625 287.05078125 c 132,-1,2
 295.657226562 336.141601562 295.657226562 336.141601562 365.028320312 336.141601562 c 132,-1,3
 434.400390625 336.141601562 434.400390625 336.141601562 483.490234375 287.05078125 c 132,-1,4
 532.583984375 237.959960938 532.583984375 237.959960938 532.583984375 168.58984375 c 132,-1,5
 532.583984375 99.21484375 532.583984375 99.21484375 483.490234375 50.125 c 132,-1,6
 434.400390625 1.033203125 434.400390625 1.033203125 365.028320312 1.033203125 c 132,-1,7
 295.657226562 1.033203125 295.657226562 1.033203125 246.56640625 50.125 c 132,-1,0
 197.475585938 99.2138671875 197.475585938 99.2138671875 197.475585938 168.58984375 c 132,-1,1
EndSplineSet
EndChar

StartChar: slash
Encoding: 47 47 8
Width: 703
GlyphClass: 2
Flags: W
LayerCount: 2
Fore
SplineSet
469.717773438 1333.24902344 m 1,0,-1
 667.963867188 1333.24902344 l 1,1,-1
 197.352539062 -169.669921875 l 1,2,-1
 -0 -169.669921875 l 1,3,-1
 469.717773438 1333.24902344 l 1,0,-1
EndSplineSet
EndChar

StartChar: colon
Encoding: 58 58 9
Width: 769
GlyphClass: 2
Flags: W
LayerCount: 2
Fore
SplineSet
221.447265625 824.556640625 m 128,-1,1
 221.447265625 893.92578125 221.447265625 893.92578125 270.538085938 943.017578125 c 128,-1,2
 319.62890625 992.108398438 319.62890625 992.108398438 389 992.108398438 c 128,-1,3
 458.372070312 992.108398438 458.372070312 992.108398438 507.461914062 943.017578125 c 128,-1,4
 556.555664062 893.926757812 556.555664062 893.926757812 556.555664062 824.556640625 c 128,-1,5
 556.555664062 755.181640625 556.555664062 755.181640625 507.461914062 706.091796875 c 128,-1,6
 458.372070312 657 458.372070312 657 389 657 c 128,-1,7
 319.62890625 657 319.62890625 657 270.538085938 706.091796875 c 128,-1,0
 221.447265625 755.180664062 221.447265625 755.180664062 221.447265625 824.556640625 c 128,-1,1
221.447265625 167.556640625 m 132,-1,9
 221.447265625 236.92578125 221.447265625 236.92578125 270.538085938 286.017578125 c 132,-1,10
 319.62890625 335.108398438 319.62890625 335.108398438 389 335.108398438 c 132,-1,11
 458.372070312 335.108398438 458.372070312 335.108398438 507.461914062 286.017578125 c 132,-1,12
 556.555664062 236.926757812 556.555664062 236.926757812 556.555664062 167.556640625 c 132,-1,13
 556.555664062 98.181640625 556.555664062 98.181640625 507.461914062 49.091796875 c 132,-1,14
 458.372070312 0 458.372070312 0 389 0 c 132,-1,15
 319.62890625 0 319.62890625 0 270.538085938 49.091796875 c 132,-1,8
 221.447265625 98.1806640625 221.447265625 98.1806640625 221.447265625 167.556640625 c 132,-1,9
EndSplineSet
EndChar

StartChar: less
Encoding: 60 60 10
Width: 1613
GlyphClass: 2
Flags: W
LayerCount: 2
Fore
SplineSet
1338.60742188 868.888671875 m 1,0,-1
 477.754882812 572.413085938 l 1,1,-1
 1338.60742188 277.72265625 l 1,2,-1
 1338.60742188 54.47265625 l 1,3,-1
 193.78125 467.931640625 l 1,4,-1
 193.78125 678.6796875 l 1,5,-1
 1338.60742188 1092.13867188 l 1,6,-1
 1338.60742188 868.888671875 l 1,0,-1
EndSplineSet
EndChar

StartChar: equal
Encoding: 61 61 11
Width: 1613
GlyphClass: 2
Flags: W
GlyphCompositionHorizontal: 2  equal%0,0,38,1226 equal%1,38,0,1226
LayerCount: 2
Fore
SplineSet
193.78125 881.390625 m 1,0,-1
 1338.60742188 881.390625 l 1,1,-1
 1338.60742188 671.536132812 l 1,2,-1
 193.78125 671.536132812 l 1,3,-1
 193.78125 881.390625 l 1,0,-1
193.78125 475.076171875 m 1,4,-1
 1338.60742188 475.076171875 l 1,5,-1
 1338.60742188 263.434570312 l 1,6,-1
 193.78125 263.434570312 l 1,7,-1
 193.78125 475.076171875 l 1,4,-1
EndSplineSet
EndChar

StartChar: greater
Encoding: 62 62 12
Width: 1613
GlyphClass: 2
Flags: W
LayerCount: 2
Fore
SplineSet
193.78125 868.888671875 m 1,0,-1
 193.78125 1092.13867188 l 1,1,-1
 1338.60742188 678.6796875 l 1,2,-1
 1338.60742188 467.931640625 l 1,3,-1
 193.78125 54.47265625 l 1,4,-1
 193.78125 277.72265625 l 1,5,-1
 1055.52636719 572.413085938 l 1,6,-1
 193.78125 868.888671875 l 1,0,-1
EndSplineSet
EndChar

StartChar: backslash
Encoding: 92 92 13
Width: 703
GlyphClass: 2
Flags: W
LayerCount: 2
Fore
SplineSet
469.717773438 -169.669921875 m 1,0,-1
 0 1333.24902344 l 1,1,-1
 197.352539062 1333.24902344 l 1,2,-1
 667.963867188 -169.669921875 l 1,3,-1
 469.717773438 -169.669921875 l 1,0,-1
EndSplineSet
EndChar

StartChar: afii57388
Encoding: 1548 1548 15
Width: 743
GlyphClass: 2
Flags: W
LayerCount: 2
Fore
SplineSet
384 0 m 0,0,1
 243.922851562 0 243.922851562 0 214.565429688 137.225585938 c 0,2,3
 200.96875 200.78515625 200.96875 200.78515625 225.616210938 308.1328125 c 0,4,5
 271.2421875 506.849609375 271.2421875 506.849609375 483.848632812 708.579101562 c 1,6,-1
 570.42578125 645.241210938 l 1,7,8
 392.891601562 464.35546875 392.891601562 464.35546875 381.553710938 314.370117188 c 1,9,10
 561.583984375 316.9296875 561.583984375 316.9296875 551.712890625 144.994140625 c 0,11,12
 542.9296875 0 542.9296875 0 384 0 c 0,0,1
EndSplineSet
EndChar

StartChar: uni0615
Encoding: 1557 1557 16
Width: 0
GlyphClass: 4
Flags: W
LayerCount: 2
Fore
SplineSet
466.096 1456.96 m 1,0,-1
 552.12 1456.96 l 2,1,2
 639.138 1456.96 639.138 1456.96 665.862 1472.75 c 0,3,4
 697.288 1492.32 697.288 1492.32 713.059 1508.3 c 128,-1,5
 728.83 1524.27 728.83 1524.27 728.83 1541.65 c 0,6,7
 728.83 1583.09 728.83 1583.09 689.03 1604.94 c 1,8,9
 681.399 1607.6 681.399 1607.6 672.751 1605.46 c 128,-1,10
 664.102 1603.31 664.102 1603.31 640.309 1592.64 c 128,-1,11
 616.515 1581.97 616.515 1581.97 601.865 1576.19 c 0,12,13
 543.049 1552.44 543.049 1552.44 483.147 1478.12 c 2,14,-1
 466.096 1456.96 l 1,0,-1
576.73 1374.89 m 2,15,-1
 282.64 1374.89 l 1,16,-1
 282.64 1456.96 l 1,17,-1
 369.31 1456.96 l 1,18,-1
 369.31 1883.89 l 1,19,-1
 452.45 1883.89 l 1,20,-1
 452.45 1497.67 l 1,21,-1
 477.109 1547.67 l 2,22,23
 513.381 1621.22 513.381 1621.22 619.878 1662.18 c 0,24,25
 682.718 1686.12 682.718 1686.12 752.956 1660.03 c 0,26,27
 814.11 1636.51 814.11 1636.51 814.11 1557.7 c 0,28,29
 814.11 1466.67 814.11 1466.67 750.648 1417.09 c 0,30,31
 696.384 1374.89 696.384 1374.89 576.73 1374.89 c 2,15,-1
EndSplineSet
EndChar

StartChar: uni061B
Encoding: 1563 1563 17
Width: 698
GlyphClass: 2
Flags: W
LayerCount: 2
Fore
SplineSet
328.227539062 503.072265625 m 0,0,1
 188.150390625 503.072265625 188.150390625 503.072265625 158.79296875 640.297851562 c 0,2,3
 145.196289062 703.857421875 145.196289062 703.857421875 169.84375 811.205078125 c 0,4,5
 215.469726562 1009.921875 215.469726562 1009.921875 428.076171875 1211.65136719 c 1,6,-1
 514.653320312 1148.31347656 l 1,7,8
 337.119140625 967.427734375 337.119140625 967.427734375 325.78125 817.442382812 c 1,9,10
 505.811523438 820.001953125 505.811523438 820.001953125 495.940429688 648.06640625 c 0,11,12
 487.157226562 503.072265625 487.157226562 503.072265625 328.227539062 503.072265625 c 0,0,1
158.447265625 167.556640625 m 132,-1,14
 158.447265625 236.92578125 158.447265625 236.92578125 207.538085938 286.017578125 c 132,-1,15
 256.62890625 335.108398438 256.62890625 335.108398438 326 335.108398438 c 132,-1,16
 395.372070312 335.108398438 395.372070312 335.108398438 444.461914062 286.017578125 c 132,-1,17
 493.555664062 236.926757812 493.555664062 236.926757812 493.555664062 167.556640625 c 132,-1,18
 493.555664062 98.181640625 493.555664062 98.181640625 444.461914062 49.091796875 c 132,-1,19
 395.372070312 0 395.372070312 0 326 0 c 132,-1,20
 256.62890625 0 256.62890625 0 207.538085938 49.091796875 c 132,-1,13
 158.447265625 98.1806640625 158.447265625 98.1806640625 158.447265625 167.556640625 c 132,-1,14
EndSplineSet
EndChar

StartChar: uni061F
Encoding: 1567 1567 18
Width: 1093
GlyphClass: 2
Flags: W
LayerCount: 2
Fore
SplineSet
433.447265625 167.556640625 m 128,-1,1
 433.447265625 236.92578125 433.447265625 236.92578125 482.538085938 286.017578125 c 128,-1,2
 531.62890625 335.108398438 531.62890625 335.108398438 601 335.108398438 c 128,-1,3
 670.372070312 335.108398438 670.372070312 335.108398438 719.461914062 286.017578125 c 128,-1,4
 768.555664062 236.926757812 768.555664062 236.926757812 768.555664062 167.556640625 c 128,-1,5
 768.555664062 98.181640625 768.555664062 98.181640625 719.461914062 49.091796875 c 128,-1,6
 670.372070312 0 670.372070312 0 601 0 c 128,-1,7
 531.62890625 0 531.62890625 0 482.538085938 49.091796875 c 128,-1,0
 433.447265625 98.1806640625 433.447265625 98.1806640625 433.447265625 167.556640625 c 128,-1,1
470.197265625 502.315429688 m 1,8,-1
 470.197265625 513.749023438 l 2,9,10
 470 530 470 530 467 548 c 0,11,12
 461 578 461 578 437.418945312 610.147460938 c 0,13,14
 416.984073698 638.021724333 416.984073698 638.021724333 374.188476562 679.844726562 c 2,15,-1
 285.970703125 766.057617188 l 1,16,17
 191 856 191 856 152.440429688 930.530273438 c 0,18,19
 112 1007 112 1007 112.1328125 1092.48046875 c 0,20,21
 112 1269 112 1269 236.552734375 1376.91015625 c 0,22,23
 359 1483 359 1483 557.212890625 1483.25 c 0,24,25
 666 1483 666 1483 767.822265625 1453.66015625 c 0,26,27
 866.412511704 1424.87957911 866.412511704 1424.87957911 961.760742188 1368.16015625 c 2,28,-1
 985.1953125 1354.21972656 l 1,29,-1
 905 1119 l 5,30,31
 818 1178 818 1178 748.883789062 1205.11035156 c 4,32,33
 665 1238 665 1238 592.416015625 1237.84960938 c 4,34,35
 486 1238 486 1238 440.880859375 1199.90039062 c 0,36,37
 388 1155 388 1155 387.75 1082.41992188 c 0,38,39
 388 1042 388 1042 409.073242188 1002.90039062 c 0,40,41
 432 961 432 961 485.383789062 911.059570312 c 1,42,-1
 576.067382812 821.391601562 l 1,43,44
 660 741 660 741 702.668945312 658.022460938 c 0,45,46
 733.745117188 597.496426839 733.745117188 597.496426839 733.745117188 544.928710938 c 2,47,-1
 733.745117188 502.315429688 l 1,48,-1
 470.197265625 502.315429688 l 1,8,-1
EndSplineSet
EndChar

StartChar: uni0621
Encoding: 1569 1569 19
Width: 897
VWidth: 2237
GlyphClass: 2
Flags: W
AnchorPoint: "Anchor-7" 442 -121 basechar 0
AnchorPoint: "Anchor-10" 388.5 1301.5 basechar 0
LayerCount: 2
Fore
SplineSet
49.4102 -6.2168 m 1,0,-1
 49.4102 255.24 l 1,1,2
 170.82 285.837 170.82 285.837 245.271 314.323 c 1,3,4
 172.317 348.342 172.317 348.342 129.017 403.512 c 0,5,6
 56.1348 496.37 56.1348 496.37 56.1348 627 c 0,7,8
 56.1348 742.115 56.1348 742.115 101.722 830.711 c 128,-1,9
 147.31 919.307 147.31 919.307 236.61 973.929 c 0,10,11
 414.002 1083.23 414.002 1083.23 679.596 1022.7 c 2,12,-1
 719.26 1013.66 l 1,13,-1
 719.26 734.875 l 1,14,-1
 654.038 753.815 l 2,15,16
 563.344 780.152 563.344 780.152 500.271 778.351 c 0,17,18
 328.71 774.989 328.71 774.989 328.71 615.192 c 0,19,20
 328.71 512.986 328.71 512.986 466.135 482 c 0,21,22
 549.943 463.721 549.943 463.721 648.855 491.96 c 0,23,24
 677.455 500.301 677.455 500.301 727.995 526.096 c 2,25,-1
 804.86 565.326 l 1,26,-1
 804.86 293.19 l 1,27,-1
 49.4102 -6.2168 l 1,0,-1
EndSplineSet
EndChar

StartChar: uni0627
Encoding: 1575 1575 25
Width: 544
VWidth: 2237
GlyphClass: 2
Flags: W
AnchorPoint: "Anchor-10" 241.5 1440 basechar 0
AnchorPoint: "Anchor-7" 228.5 -250.5 basechar 0
LayerCount: 2
Fore
SplineSet
112.06 1302.96 m 1,0,-1
 380.94 1302.96 l 1,1,-1
 380.94 1.5 l 1,2,-1
 112.06 1.5 l 1,3,-1
 112.06 1302.96 l 1,0,-1
EndSplineSet
Substitution2: "'fina' Terminal Forms in Arabic lookup 9 subtable" uniFE8E
EndChar

StartChar: uni062D
Encoding: 1581 1581 31
Width: 1415
VWidth: 2237
GlyphClass: 2
Flags: W
AnchorPoint: "Anchor-10" 567.5 1309.5 basechar 0
AnchorPoint: "Anchor-7" 227.84 -712.5 basechar 0
LayerCount: 2
Fore
SplineSet
1027.72 508.871 m 0,0,1
 333.639 263.988 333.639 263.988 306.83 -103.669 c 0,2,3
 298.024 -227.509 298.024 -227.509 384.373 -293.922 c 128,-1,4
 470.721 -360.335 470.721 -360.335 678.342 -371.999 c 1,5,-1
 1316.46 -371.759 l 1,6,-1
 1316.46 -637.849 l 5,7,-1
 698.84 -637 l 6,8,9
 643.59 -636.924 643.59 -636.924 591.034 -633.041 c 4,10,11
 306.945 -612.037 306.945 -612.037 164.304 -477.735 c 128,-1,12
 21.6621 -343.432 21.6621 -343.432 40.1064 -96.1621 c 0,13,14
 61.1074 178.894 61.1074 178.894 269.725 381.428 c 128,-1,15
 478.342 583.963 478.342 583.963 863.002 714.307 c 1,16,17
 807.569 731.605 807.569 731.605 732.048 753.678 c 0,18,19
 597.932 793.217 597.932 793.217 556.505 786.759 c 0,20,21
 484.452 776.42 484.452 776.42 443.678 659.139 c 2,22,-1
 425.678 607.365 l 1,23,-1
 201.391 691.401 l 1,24,-1
 219.173 739.034 l 2,25,26
 247.21 814.137 247.21 814.137 273.491 862.165 c 0,27,28
 317.055 943.903 317.055 943.903 384.348 990.136 c 128,-1,29
 451.641 1036.37 451.641 1036.37 537.122 1041.12 c 0,30,31
 600.073 1044.62 600.073 1044.62 704.789 1016.34 c 128,-1,32
 809.47 988.078 809.47 988.078 974.887 925.939 c 2,33,-1
 1324.2 794.72 l 1,34,-1
 1324.09 566.483 l 1,35,-1
 1277.09 562.811 l 2,36,37
 1155.06 553.277 1155.06 553.277 1027.72 508.871 c 0,0,1
EndSplineSet
Substitution2: "'fina' Terminal Forms in Arabic lookup 9 subtable" uniFEA2
Substitution2: "'medi' Medial Forms in Arabic lookup 11 subtable" uniFEA4
Substitution2: "'init' Initial Forms in Arabic lookup 13 subtable" uniFEA3
EndChar

StartChar: uni062F
Encoding: 1583 1583 33
Width: 933
VWidth: 2237
GlyphClass: 2
Flags: W
AnchorPoint: "Anchor-10" 311.58 1168.5 basechar 0
AnchorPoint: "Anchor-7" 348.5 -221 basechar 0
LayerCount: 2
Fore
SplineSet
443 0.00292969 m 2,0,-1
 45.75 0.00488281 l 1,1,-1
 45.75 281.25 l 1,2,-1
 96.9561 281.044 l 2,3,4
 317.264 280.158 317.264 280.158 367.979 280.97 c 0,5,6
 442.711 281.985 442.711 281.985 496.342 286.834 c 0,7,8
 610.072 297.115 610.072 297.115 553.514 378.572 c 0,9,10
 537.688 401.364 537.688 401.364 504.42 443.552 c 128,-1,11
 471.139 485.756 471.139 485.756 430.342 532.887 c 2,12,-1
 239.946 752.847 l 1,13,-1
 420.396 954.242 l 1,14,-1
 747.252 582.576 l 6,15,16
 768.021 558.959 768.021 558.959 781.135 540.285 c 0,17,18
 894.845 378.356 894.845 378.356 841.489 215.391 c 1,19,20
 803.979 105.716 803.979 105.716 701.173 52.6982 c 0,21,22
 598.99 0.00216275 598.99 0.00216275 443 0.00292969 c 2,0,-1
EndSplineSet
Substitution2: "'fina' Terminal Forms in Arabic lookup 9 subtable" uniFEAA
EndChar

StartChar: uni0631
Encoding: 1585 1585 35
Width: 798
VWidth: 2237
GlyphClass: 2
Flags: W
AnchorPoint: "Anchor-10" 360.7 913.348 basechar 0
AnchorPoint: "Anchor-7" 306.291 -630.16 basechar 0
LayerCount: 2
Fore
SplineSet
435.634 45.9912 m 2,0,-1
 435.635 587.702 l 1,1,-1
 713.634 587.282 l 1,2,-1
 713.634 48 l 2,3,4
 713.634 -190.739 713.634 -190.739 579.559 -317.185 c 128,-1,5
 445.487 -443.627 445.487 -443.627 194.255 -445.041 c 2,6,-1
 45.0459 -445.881 l 1,7,-1
 45.0508 -165.94 l 1,8,-1
 191.853 -166.042 l 2,9,10
 314.743 -166.127 314.743 -166.127 379.294 -115.041 c 0,11,12
 435.634 -72.5081 435.634 -72.5081 435.634 45.9912 c 2,0,-1
EndSplineSet
PairPos2: "'kern' Horizontal Kerning lookup 15-1" uniFEDF dx=-70 dy=0 dh=-70 dv=0 dx=0 dy=0 dh=0 dv=0
PairPos2: "'kern' Horizontal Kerning lookup 15-1" uniFBAC dx=-70 dy=0 dh=-70 dv=0 dx=0 dy=0 dh=0 dv=0
PairPos2: "'kern' Horizontal Kerning lookup 15-1" uniFB90 dx=-70 dy=0 dh=-70 dv=0 dx=0 dy=0 dh=0 dv=0
PairPos2: "'kern' Horizontal Kerning lookup 15-1" uni06A9 dx=-70 dy=0 dh=-70 dv=0 dx=0 dy=0 dh=0 dv=0
PairPos2: "'kern' Horizontal Kerning lookup 15-1" uni0649 dx=-70 dy=0 dh=-70 dv=0 dx=0 dy=0 dh=0 dv=0
PairPos2: "'kern' Horizontal Kerning lookup 15-1" uni0647 dx=-70 dy=0 dh=-70 dv=0 dx=0 dy=0 dh=0 dv=0
PairPos2: "'kern' Horizontal Kerning lookup 15-1" uniFEE7 dx=-70 dy=0 dh=-70 dv=0 dx=0 dy=0 dh=0 dv=0
PairPos2: "'kern' Horizontal Kerning lookup 15-1" uniFEE3 dx=-70 dy=0 dh=-70 dv=0 dx=0 dy=0 dh=0 dv=0
PairPos2: "'kern' Horizontal Kerning lookup 15-1" uni0645 dx=-70 dy=0 dh=-70 dv=0 dx=0 dy=0 dh=0 dv=0
PairPos2: "'kern' Horizontal Kerning lookup 15-1" uni0644 dx=-70 dy=0 dh=-70 dv=0 dx=0 dy=0 dh=0 dv=0
PairPos2: "'kern' Horizontal Kerning lookup 15-1" uniFEDB dx=-70 dy=0 dh=-70 dv=0 dx=0 dy=0 dh=0 dv=0
PairPos2: "'kern' Horizontal Kerning lookup 15-1" uniFED7 dx=-70 dy=0 dh=-70 dv=0 dx=0 dy=0 dh=0 dv=0
PairPos2: "'kern' Horizontal Kerning lookup 15-1" uni0642 dx=-70 dy=0 dh=-70 dv=0 dx=0 dy=0 dh=0 dv=0
PairPos2: "'kern' Horizontal Kerning lookup 15-1" uniFED3 dx=-70 dy=0 dh=-70 dv=0 dx=0 dy=0 dh=0 dv=0
PairPos2: "'kern' Horizontal Kerning lookup 15-1" uni0641 dx=-70 dy=0 dh=-70 dv=0 dx=0 dy=0 dh=0 dv=0
PairPos2: "'kern' Horizontal Kerning lookup 15-1" uniFECF dx=-70 dy=0 dh=-70 dv=0 dx=0 dy=0 dh=0 dv=0
PairPos2: "'kern' Horizontal Kerning lookup 15-1" uniFECB dx=-70 dy=0 dh=-70 dv=0 dx=0 dy=0 dh=0 dv=0
PairPos2: "'kern' Horizontal Kerning lookup 15-1" uniFEC7 dx=-70 dy=0 dh=-70 dv=0 dx=0 dy=0 dh=0 dv=0
PairPos2: "'kern' Horizontal Kerning lookup 15-1" uni0638 dx=-70 dy=0 dh=-70 dv=0 dx=0 dy=0 dh=0 dv=0
PairPos2: "'kern' Horizontal Kerning lookup 15-1" uniFEC3 dx=-70 dy=0 dh=-70 dv=0 dx=0 dy=0 dh=0 dv=0
PairPos2: "'kern' Horizontal Kerning lookup 15-1" uni0637 dx=-70 dy=0 dh=-70 dv=0 dx=0 dy=0 dh=0 dv=0
PairPos2: "'kern' Horizontal Kerning lookup 15-1" uniFEBF dx=-70 dy=0 dh=-70 dv=0 dx=0 dy=0 dh=0 dv=0
PairPos2: "'kern' Horizontal Kerning lookup 15-1" uni0636 dx=-70 dy=0 dh=-70 dv=0 dx=0 dy=0 dh=0 dv=0
PairPos2: "'kern' Horizontal Kerning lookup 15-1" uniFEBB dx=-70 dy=0 dh=-70 dv=0 dx=0 dy=0 dh=0 dv=0
PairPos2: "'kern' Horizontal Kerning lookup 15-1" uni0635 dx=-70 dy=0 dh=-70 dv=0 dx=0 dy=0 dh=0 dv=0
PairPos2: "'kern' Horizontal Kerning lookup 15-1" uniFEB7 dx=-70 dy=0 dh=-70 dv=0 dx=0 dy=0 dh=0 dv=0
PairPos2: "'kern' Horizontal Kerning lookup 15-1" uni0634 dx=-70 dy=0 dh=-70 dv=0 dx=0 dy=0 dh=0 dv=0
PairPos2: "'kern' Horizontal Kerning lookup 15-1" uniFEB3 dx=-70 dy=0 dh=-70 dv=0 dx=0 dy=0 dh=0 dv=0
PairPos2: "'kern' Horizontal Kerning lookup 15-1" uni0633 dx=-70 dy=0 dh=-70 dv=0 dx=0 dy=0 dh=0 dv=0
PairPos2: "'kern' Horizontal Kerning lookup 15-1" uni0630 dx=-70 dy=0 dh=-70 dv=0 dx=0 dy=0 dh=0 dv=0
PairPos2: "'kern' Horizontal Kerning lookup 15-1" uni062F dx=-70 dy=0 dh=-70 dv=0 dx=0 dy=0 dh=0 dv=0
PairPos2: "'kern' Horizontal Kerning lookup 15-1" uniFEA7 dx=-70 dy=0 dh=-70 dv=0 dx=0 dy=0 dh=0 dv=0
PairPos2: "'kern' Horizontal Kerning lookup 15-1" uniFEA3 dx=-70 dy=0 dh=-70 dv=0 dx=0 dy=0 dh=0 dv=0
PairPos2: "'kern' Horizontal Kerning lookup 15-1" uniFE9F dx=-70 dy=0 dh=-70 dv=0 dx=0 dy=0 dh=0 dv=0
PairPos2: "'kern' Horizontal Kerning lookup 15-1" uniFE9B dx=-70 dy=0 dh=-70 dv=0 dx=0 dy=0 dh=0 dv=0
PairPos2: "'kern' Horizontal Kerning lookup 15-1" uni062B dx=-70 dy=0 dh=-70 dv=0 dx=0 dy=0 dh=0 dv=0
PairPos2: "'kern' Horizontal Kerning lookup 15-1" uniFE97 dx=-70 dy=0 dh=-70 dv=0 dx=0 dy=0 dh=0 dv=0
PairPos2: "'kern' Horizontal Kerning lookup 15-1" uni062A dx=-70 dy=0 dh=-70 dv=0 dx=0 dy=0 dh=0 dv=0
PairPos2: "'kern' Horizontal Kerning lookup 15-1" uni0629 dx=-70 dy=0 dh=-70 dv=0 dx=0 dy=0 dh=0 dv=0
PairPos2: "'kern' Horizontal Kerning lookup 15-1" uniFE91 dx=-70 dy=0 dh=-70 dv=0 dx=0 dy=0 dh=0 dv=0
PairPos2: "'kern' Horizontal Kerning lookup 15-1" uni0628 dx=-70 dy=0 dh=-70 dv=0 dx=0 dy=0 dh=0 dv=0
PairPos2: "'kern' Horizontal Kerning lookup 15-1" uni0627 dx=-70 dy=0 dh=-70 dv=0 dx=0 dy=0 dh=0 dv=0
PairPos2: "'kern' Horizontal Kerning lookup 15-1" uni0622 dx=-70 dy=0 dh=-70 dv=0 dx=0 dy=0 dh=0 dv=0
PairPos2: "'kern' Horizontal Kerning lookup 15-1" uniFB94 dx=-70 dy=0 dh=-70 dv=0 dx=0 dy=0 dh=0 dv=0
PairPos2: "'kern' Horizontal Kerning lookup 15-1" afii57509 dx=-70 dy=0 dh=-70 dv=0 dx=0 dy=0 dh=0 dv=0
PairPos2: "'kern' Horizontal Kerning lookup 15-1" uniFB56 dx=-70 dy=0 dh=-70 dv=0 dx=0 dy=0 dh=0 dv=0
PairPos2: "'kern' Horizontal Kerning lookup 15-1" afii57506 dx=-70 dy=0 dh=-70 dv=0 dx=0 dy=0 dh=0 dv=0
Substitution2: "'fina' Terminal Forms in Arabic lookup 9 subtable" uniFEAE
EndChar

StartChar: uni0633
Encoding: 1587 1587 37
Width: 2401
VWidth: 2237
GlyphClass: 2
Flags: W
AnchorPoint: "Anchor-10" 488.51 902.5 basechar 0
AnchorPoint: "Anchor-7" 209.5 -498.03 basechar 0
LayerCount: 2
Fore
SplineSet
1388.59 0.00195312 m 0,0,1
 1300.52 0.988281 1300.52 0.988281 1241.29 29.0049 c 1,2,3
 1220.17 -168.69 1220.17 -168.69 1080.24 -272.823 c 128,-1,4
 940.307 -376.957 940.307 -376.957 698.833 -384.344 c 2,5,-1
 681.681 -384.869 l 1,6,-1
 657.601 -384.869 l 2,7,8
 378.389 -384.869 378.389 -384.869 228.181 -262.303 c 128,-1,9
 77.9727 -139.736 77.9727 -139.736 77.9727 97.6299 c 2,10,-1
 77.9727 330.131 l 2,11,12
 77.9727 404.279 77.9727 404.279 115.788 452.455 c 128,-1,13
 153.604 500.63 153.604 500.63 222.901 500.63 c 2,14,-1
 349.973 500.63 l 1,15,-1
 349.973 98.6299 l 2,16,17
 349.973 -3.66113 349.973 -3.66113 421.139 -53.7754 c 128,-1,18
 492.305 -103.889 492.305 -103.889 659.451 -103.889 c 2,19,-1
 680.357 -103.889 l 1,20,-1
 703.337 -103.399 l 2,21,22
 849.945 -100.275 849.945 -100.275 912.423 -50.374 c 128,-1,23
 974.9 -0.47168 974.9 -0.47168 974.9 102.131 c 2,24,-1
 974.9 143.131 l 2,25,26
 974.9 563.294 974.9 563.294 974.528 583.197 c 2,27,-1
 972.504 635.865 l 1,28,-1
 1256.33 636.115 l 1,29,-1
 1256.99 371.97 l 2,30,31
 1257.05 346.189 1257.05 346.189 1264.29 328.099 c 0,32,33
 1286.18 273.419 1286.18 273.419 1395.64 272.188 c 0,34,35
 1454.06 271.498 1454.06 271.498 1486.65 281.804 c 128,-1,36
 1519.24 292.109 1519.24 292.109 1529.22 308.354 c 128,-1,37
 1539.2 324.599 1539.2 324.599 1539.13 351.562 c 2,38,-1
 1538.39 636.07 l 1,39,-1
 1806.28 636.07 l 1,40,-1
 1806.99 373.888 l 2,41,42
 1807.14 317.194 1807.14 317.194 1830.52 295.974 c 128,-1,43
 1853.9 274.753 1853.9 274.753 1918.48 276.252 c 2,44,-1
 1938.01 276.734 l 2,45,46
 1992.06 278.071 1992.06 278.071 2014.86 305.625 c 128,-1,47
 2037.66 333.179 2037.66 333.179 2037.66 406.5 c 2,48,-1
 2037.66 730.5 l 1,49,-1
 2309.66 730.5 l 1,50,-1
 2309.66 417.5 l 2,51,52
 2309.66 219.058 2309.66 219.058 2218.36 109.529 c 128,-1,53
 2127.07 0 2127.07 0 1953.04 0 c 2,54,-1
 1882.04 0 l 2,55,56
 1756.16 0 1756.16 0 1684.64 65.3516 c 0,57,58
 1674.65 74.4824 1674.65 74.4824 1665.53 84.832 c 1,59,60
 1580.79 -1.27051 1580.79 -1.27051 1388.59 0.00195312 c 0,0,1
EndSplineSet
Substitution2: "'fina' Terminal Forms in Arabic lookup 9 subtable" uniFEB2
Substitution2: "'medi' Medial Forms in Arabic lookup 11 subtable" uniFEB4
Substitution2: "'init' Initial Forms in Arabic lookup 13 subtable" uniFEB3
EndChar

StartChar: uni0635
Encoding: 1589 1589 39
Width: 2346
VWidth: 2237
GlyphClass: 2
Flags: W
AnchorPoint: "Anchor-10" 481.84 902.5 basechar 0
AnchorPoint: "Anchor-7" 215.84 -520.5 basechar 0
LayerCount: 2
Fore
SplineSet
1502.94 292.069 m 1,0,-1
 1715.41 292.069 l 2,1,2
 1834.39 292.069 1834.39 292.069 1903.75 321.477 c 0,3,4
 1980.84 354.174 1980.84 354.174 1975.65 455.561 c 0,5,6
 1970.42 554.979 1970.42 554.979 1864.93 553.243 c 0,7,8
 1793.91 551.698 1793.91 551.698 1686.67 460.646 c 0,9,10
 1569.71 361.355 1569.71 361.355 1502.94 292.069 c 1,0,-1
1210.9 471.094 m 1,11,12
 1218.63 412.547 1218.63 412.547 1250.64 389.299 c 1,13,14
 1342.86 495.674 1342.86 495.674 1431.6 584.586 c 0,15,16
 1563.98 716.898 1563.98 716.898 1685.19 776.169 c 0,17,18
 1842.97 853.322 1842.97 853.322 2023.93 803.399 c 0,19,20
 2137.63 772.368 2137.63 772.368 2195.13 673.996 c 128,-1,21
 2252.64 575.623 2252.64 575.623 2254.71 424.456 c 0,22,23
 2255.9 313.065 2255.9 313.065 2205.67 222.07 c 128,-1,24
 2155.44 131.075 2155.44 131.075 2058.05 66.1562 c 0,25,26
 1959.23 -0.24707 1959.23 -0.24707 1819.79 0 c 2,27,-1
 1441.62 0.668945 l 2,28,29
 1293.5 0.930664 1293.5 0.930664 1205 46.2188 c 1,30,31
 1189.38 -159.228 1189.38 -159.228 1048.81 -268.001 c 128,-1,32
 908.241 -376.775 908.241 -376.775 660.832 -384.345 c 2,33,-1
 643.681 -384.869 l 1,34,-1
 619.601 -384.869 l 2,35,36
 340.389 -384.869 340.389 -384.869 190.181 -262.303 c 128,-1,37
 39.9727 -139.736 39.9727 -139.736 39.9727 97.6299 c 2,38,-1
 39.9727 330.131 l 2,39,40
 39.9727 404.279 39.9727 404.279 77.7881 452.455 c 128,-1,41
 115.604 500.63 115.604 500.63 184.901 500.63 c 2,42,-1
 311.973 500.63 l 1,43,-1
 311.973 98.6299 l 2,44,45
 311.973 -3.66211 311.973 -3.66211 383.139 -53.7754 c 128,-1,46
 454.305 -103.89 454.305 -103.89 621.451 -103.89 c 2,47,-1
 642.358 -103.89 l 1,48,-1
 665.337 -103.4 l 2,49,50
 811.945 -100.276 811.945 -100.276 874.424 -50.374 c 128,-1,51
 936.901 -0.47168 936.901 -0.47168 936.901 102.131 c 2,52,-1
 936.901 143.131 l 2,53,54
 936.901 564.216 936.901 564.216 936.528 583.19 c 2,55,-1
 934.496 635.884 l 1,56,-1
 1210.9 636.025 l 1,57,-1
 1210.9 471.094 l 1,11,12
EndSplineSet
Substitution2: "'fina' Terminal Forms in Arabic lookup 9 subtable" uniFEBA
Substitution2: "'medi' Medial Forms in Arabic lookup 11 subtable" uniFEBC
Substitution2: "'init' Initial Forms in Arabic lookup 13 subtable" uniFEBB
EndChar

StartChar: uni0637
Encoding: 1591 1591 41
Width: 1484
VWidth: 2237
GlyphClass: 2
Flags: W
AnchorPoint: "Anchor-10" 307.72 1506.47 basechar 0
AnchorPoint: "Anchor-7" 480.72 -239 basechar 0
LayerCount: 2
Fore
SplineSet
641.1640625 292.071289062 m 5,0,-1
 853.637695312 292.071289062 l 6,1,2
 972.61328125 292.071289062 972.61328125 292.071289062 1041.95996094 321.478515625 c 4,3,4
 1119.0703125 354.177734375 1119.0703125 354.177734375 1113.87988281 455.483398438 c 4,5,6
 1108.66015625 554.98046875 1108.66015625 554.98046875 1003.14648438 553.245117188 c 4,7,8
 932.141601562 551.700195312 932.141601562 551.700195312 824.891601562 460.649414062 c 4,9,10
 707.905273438 361.328125 707.905273438 361.328125 641.1640625 292.071289062 c 5,0,-1
475.009765625 491.786132812 m 5,11,12
 514.641601562 530.899414062 514.641601562 530.899414062 570.258789062 585.021484375 c 4,13,14
 707.762695312 719.625 707.762695312 719.625 823.408203125 776.170898438 c 4,15,16
 981.188476562 853.323242188 981.188476562 853.323242188 1162.13964844 803.404296875 c 4,17,18
 1275.86035156 772.368164062 1275.86035156 772.368164062 1333.36035156 674.001953125 c 132,-1,19
 1390.86035156 575.63671875 1390.86035156 575.63671875 1392.9296875 424.416992188 c 4,20,21
 1394.12011719 313.072265625 1394.12011719 313.072265625 1343.88964844 222.06640625 c 132,-1,22
 1293.65039062 131.060546875 1293.65039062 131.060546875 1196.25 66.1474609375 c 4,23,24
 1097.90039062 0.044921875 1097.90039062 0.044921875 958.614257812 0.0009765625 c 6,25,-1
 579.928710938 0.6708984375 l 5,26,-1
 50.599609375 -0.0712890625 l 5,27,-1
 50.599609375 280.98046875 l 5,28,-1
 206.129882812 280.98046875 l 5,29,-1
 206.129882812 1302.88964844 l 5,30,-1
 475.009765625 1302.88964844 l 5,31,-1
 475.009765625 491.786132812 l 5,11,12
EndSplineSet
Substitution2: "'fina' Terminal Forms in Arabic lookup 9 subtable" uniFEC2
Substitution2: "'medi' Medial Forms in Arabic lookup 11 subtable" uniFEC4
Substitution2: "'init' Initial Forms in Arabic lookup 13 subtable" uniFEC3
EndChar

StartChar: uni0639
Encoding: 1593 1593 43
Width: 1294
VWidth: 2186
GlyphClass: 2
Flags: W
AnchorPoint: "Anchor-10" 476.325 1439.51 basechar 0
AnchorPoint: "Anchor-7" 285.235 -674.76 basechar 0
LayerCount: 2
Fore
SplineSet
1001.83984375 401.87109375 m 1,0,-1
 869.993164062 396.270507812 l 2,1,2
 699.26953125 391.838867188 699.26953125 391.838867188 622.62109375 344.086914062 c 0,3,4
 325.239257812 166.776367188 325.239257812 166.776367188 314.01953125 -76.771484375 c 0,5,6
 312.01953125 -118.008789062 312.01953125 -118.008789062 316.26171875 -152.642578125 c 128,-1,7
 320.50390625 -187.275390625 320.50390625 -187.275390625 331.3671875 -216.774414062 c 128,-1,8
 342.23046875 -246.2734375 342.23046875 -246.2734375 360.190429688 -269.704101562 c 128,-1,9
 378.151367188 -293.134765625 378.151367188 -293.134765625 403.400390625 -311.481445312 c 128,-1,10
 428.6484375 -329.828125 428.6484375 -329.828125 461.862304688 -342.67578125 c 128,-1,11
 495.076171875 -355.522460938 495.076171875 -355.522460938 536.245117188 -363.336914062 c 128,-1,12
 577.415039062 -371.151367188 577.415039062 -371.151367188 627.404296875 -374.001953125 c 2,13,-1
 1202.75488281 -374.853515625 l 1,14,-1
 1201.16601562 -649.848632812 l 1,15,-1
 593.80859375 -649 l 2,16,17
 336.84375 -647.779296875 336.84375 -647.779296875 199.899414062 -509.487304688 c 128,-1,18
 62.955078125 -371.196289062 62.955078125 -371.196289062 60.0791015625 -110.939453125 c 0,19,20
 56.2001953125 232.323242188 56.2001953125 232.323242188 346.74609375 463.5234375 c 1,21,22
 324.530273438 480.147460938 324.530273438 480.147460938 306.3359375 499.620117188 c 128,-1,23
 288.141601562 519.09375 288.141601562 519.09375 272.543945312 542.538085938 c 0,24,25
 174.323242188 687.017578125 174.323242188 687.017578125 209.8359375 867.908203125 c 0,26,27
 232.161132812 979.659179688 232.161132812 979.659179688 302.959960938 1052.24707031 c 128,-1,28
 373.759765625 1124.83398438 373.759765625 1124.83398438 486.032226562 1151.60839844 c 0,29,30
 591.823242188 1176.67089844 591.823242188 1176.67089844 696.168945312 1163.23535156 c 128,-1,31
 800.514648438 1149.80078125 800.514648438 1149.80078125 901.3828125 1098.47363281 c 2,32,-1
 938.997070312 1079.33398438 l 1,33,-1
 870.950195312 844.896484375 l 1,34,-1
 819.065429688 864.98828125 l 2,35,36
 684.314453125 917.166992188 684.314453125 917.166992188 584.059570312 901.665039062 c 0,37,38
 455.879882812 881.845797909 455.879882812 881.845797909 455.879882812 772.719726562 c 0,39,40
 455.879882812 728.108398438 455.879882812 728.108398438 471.131835938 700.171875 c 128,-1,41
 486.383789062 672.236328125 486.383789062 672.236328125 519.5390625 653.30859375 c 0,42,43
 558.604492188 631.006835938 558.604492188 631.006835938 622.244140625 624.299804688 c 1,44,-1
 1002.09472656 670.44921875 l 1,45,-1
 1001.83984375 401.87109375 l 1,0,-1
EndSplineSet
Substitution2: "'fina' Terminal Forms in Arabic lookup 9 subtable" uniFECA
Substitution2: "'medi' Medial Forms in Arabic lookup 11 subtable" uniFECC
Substitution2: "'init' Initial Forms in Arabic lookup 13 subtable" uniFECB
EndChar

StartChar: afii57440
Encoding: 1600 1600 45
Width: 642
VWidth: 2237
GlyphClass: 2
Flags: W
AnchorPoint: "Anchor-10" 321 1330.5 basechar 0
AnchorPoint: "Anchor-7" 281 -228.5 basechar 0
LayerCount: 2
Fore
SplineSet
-59.4004 0 m 1,0,-1
 -59.4004 280.979 l 1,1,-1
 701.4 280.979 l 5,2,-1
 701.4 0 l 1,3,-1
 -59.4004 0 l 1,0,-1
EndSplineSet
EndChar

StartChar: uni0643
Encoding: 1603 1603 48
Width: 1698
VWidth: 2237
GlyphClass: 2
Flags: W
AnchorPoint: "Anchor-10" 531 1450.5 basechar 0
AnchorPoint: "Anchor-7" 350 -227.5 basechar 0
LayerCount: 2
Fore
SplineSet
1184.86 0 m 2,0,-1
 416.605 0 l 2,1,2
 232.824 0.0654297 232.824 0.0654297 136.411 114.249 c 128,-1,3
 39.998 228.432 39.998 228.432 39.9971 436.499 c 2,4,-1
 39.9961 730.499 l 1,5,-1
 311.996 730.499 l 1,6,-1
 311.996 445.499 l 2,7,8
 311.996 351.388 311.996 351.388 338.098 316.184 c 128,-1,9
 364.199 280.98 364.199 280.98 420.475 280.98 c 2,10,-1
 1191.01 280.98 l 2,11,12
 1247.36 280.98 1247.36 280.98 1273.43 315.966 c 128,-1,13
 1299.49 350.951 1299.49 350.951 1299.49 444.499 c 2,14,-1
 1299.49 1302.5 l 1,15,-1
 1571.49 1302.5 l 1,16,-1
 1571.49 467.499 l 2,17,18
 1571.49 244.524 1571.49 244.524 1473.01 122.263 c 128,-1,19
 1374.53 -0 1374.53 -0 1184.86 0 c 2,0,-1
1023.9 1259.33 m 1,20,-1
 1023.9 1095.87 l 1,21,-1
 976.351 1092.65 l 2,22,23
 911.437 1088.25 911.437 1088.25 879.269 1076.4 c 0,24,25
 830.646 1058.16 830.646 1058.16 818.493 1042.28 c 1,26,27
 818.953 1028.69 818.953 1028.69 823.983 1020.77 c 1,28,29
 840.537 1011.94 840.537 1011.94 886.57 1005.17 c 0,30,31
 952.93 995.415 952.93 995.415 990.512 961.085 c 0,32,33
 1033.18 922.117 1033.18 922.117 1033.18 857.369 c 0,34,35
 1033.18 794.777 1033.18 794.777 1002.53 744.356 c 128,-1,36
 971.873 693.936 971.873 693.936 915.536 662.077 c 0,37,38
 834.079 616.012 834.079 616.012 725.053 615 c 0,39,40
 657.372 615 657.372 615 598.46 625.339 c 2,41,-1
 556.277 632.743 l 1,42,-1
 556.277 802.37 l 1,43,-1
 614.159 794.486 l 2,44,45
 674.789 786.229 674.789 786.229 715.188 786.229 c 0,46,47
 779.371 786.229 779.371 786.229 817.952 801.419 c 0,48,49
 839.911 809.852 839.911 809.852 851.982 818.637 c 128,-1,50
 864.053 827.421 864.053 827.421 865.316 830.493 c 128,-1,51
 866.58 833.565 866.58 833.565 866.58 835.969 c 2,52,-1
 864.666 841.348 l 1,53,54
 855.647 850.674 855.647 850.674 815.92 857.147 c 0,55,56
 740.897 868.578 740.897 868.578 697.054 913.421 c 0,57,58
 649.77 961.783 649.77 961.783 651.519 1042.28 c 0,59,60
 652.82 1094.91 652.82 1094.91 679.891 1136.67 c 128,-1,61
 706.96 1178.43 706.96 1178.43 754.611 1202.58 c 0,62,63
 847.53 1249.59 847.53 1249.59 970.086 1256.36 c 2,64,-1
 1023.9 1259.33 l 1,20,-1
EndSplineSet
Substitution2: "'fina' Terminal Forms in Arabic lookup 9 subtable" uniFEDA
Substitution2: "'medi' Medial Forms in Arabic lookup 11 subtable" uniFEDC
Substitution2: "'init' Initial Forms in Arabic lookup 13 subtable" uniFEDB
EndChar

StartChar: uni0644
Encoding: 1604 1604 49
Width: 1338
VWidth: 2237
GlyphClass: 2
Flags: W
AnchorPoint: "Anchor-10" 401.01 1125.5 basechar 0
AnchorPoint: "Anchor-7" 237.15 -520.616 basechar 0
LayerCount: 2
Fore
SplineSet
1207.46 145.865 m 1,0,-1
 1206.9 97.5371 l 2,1,2
 1204.09 -144.375 1204.09 -144.375 1063.35 -274.855 c 128,-1,3
 922.604 -405.336 922.604 -405.336 660.833 -413.345 c 2,4,-1
 643.682 -413.869 l 1,5,-1
 619.601 -413.869 l 2,6,7
 339.466 -413.869 339.466 -413.869 189.719 -283.453 c 128,-1,8
 39.9717 -153.037 39.9717 -153.037 39.9717 97.6299 c 2,9,-1
 39.9717 330.131 l 2,10,11
 39.9717 404.279 39.9717 404.279 77.7871 452.455 c 128,-1,12
 115.604 500.63 115.604 500.63 184.9 500.63 c 2,13,-1
 311.973 500.63 l 1,14,-1
 311.973 98.6299 l 2,15,16
 311.973 -20.249 311.973 -20.249 383.772 -76.5684 c 128,-1,17
 455.572 -132.889 455.572 -132.889 621.45 -132.889 c 2,18,-1
 642.357 -132.889 l 1,19,-1
 665.336 -132.399 l 2,20,21
 810.123 -129.316 810.123 -129.316 874.188 -72.916 c 128,-1,22
 938.252 -16.5166 938.252 -16.5166 939.905 102.836 c 2,23,-1
 940.461 143.008 l 2,24,25
 939.909 169.271 939.909 169.271 939.909 430.32 c 2,26,-1
 939.909 1302.03 l 1,27,-1
 1207.79 1302.03 l 1,28,-1
 1207.79 430.26 l 2,29,30
 1207.62 289.103 1207.62 289.103 1207.46 145.865 c 1,0,-1
EndSplineSet
Substitution2: "'fina' Terminal Forms in Arabic lookup 9 subtable" uniFEDE
Substitution2: "'medi' Medial Forms in Arabic lookup 11 subtable" uniFEE0
Substitution2: "'init' Initial Forms in Arabic lookup 13 subtable" uniFEDF
EndChar

StartChar: uni0645
Encoding: 1605 1605 50
Width: 1187
VWidth: 2237
GlyphClass: 2
Flags: W
AnchorPoint: "Anchor-10" 544.5 1154.31 basechar 0
AnchorPoint: "Anchor-7" 157.631 -603.952 basechar 0
LayerCount: 2
Fore
SplineSet
732.581 489.382 m 0,0,1
 671.636 487.979 671.636 487.979 637.583 486.284 c 1,2,3
 633.562 435.998 633.562 435.998 636.336 396.231 c 0,4,5
 642.336 310.202 642.336 310.202 672.807 279.193 c 128,-1,6
 703.276 248.185 703.276 248.185 768.972 252.869 c 0,7,8
 829.685 257.224 829.685 257.224 833.023 401.516 c 0,9,10
 833.136 406.67 833.136 406.67 832.995 411.56 c 0,11,12
 831.678 457.269 831.678 457.269 811.364 474.187 c 128,-1,13
 791.051 491.104 791.051 491.104 732.581 489.382 c 0,0,1
1050.6 168.575 m 0,14,15
 1011.2 87.5938 1011.2 87.5938 941.581 43.4551 c 0,16,17
 872.497 -0.348633 872.497 -0.348633 780.003 -3.61035 c 0,18,19
 669.329 -7.17188 669.329 -7.17188 593.727 21.293 c 0,20,21
 477.01 65.5742 477.01 65.5742 420.956 173.85 c 128,-1,22
 364.902 282.124 364.902 282.124 368.041 441.082 c 1,23,24
 306.202 381.216 306.202 381.216 307 193.108 c 2,25,-1
 307 -427 l 1,26,-1
 39 -427 l 1,27,-1
 39 273.734 l 1,28,-1
 39.1182 275.466 l 2,29,30
 53.417 485.395 53.417 485.395 154.086 607.682 c 128,-1,31
 254.756 729.969 254.756 729.969 435.373 749.663 c 2,32,-1
 438.534 750.002 l 1,33,-1
 812.491 750.001 l 1,34,35
 938.987 748.858 938.987 748.858 1012.02 671.58 c 128,-1,36
 1085.05 594.302 1085.05 594.302 1095.31 457.125 c 0,37,38
 1107.68 285.862 1107.68 285.862 1050.6 168.575 c 0,14,15
EndSplineSet
Substitution2: "'init' Initial Forms in Arabic lookup 13 subtable" uniFEE3
Substitution2: "'medi' Medial Forms in Arabic lookup 11 subtable" uniFEE4
Substitution2: "'fina' Terminal Forms in Arabic lookup 9 subtable" uniFEE2
EndChar

StartChar: uni0647
Encoding: 1607 1607 52
Width: 951
VWidth: 2237
GlyphClass: 2
Flags: W
AnchorPoint: "Anchor-10" 388.924 1195.58 basechar 0
AnchorPoint: "Anchor-7" 313.864 -211.56 basechar 0
LayerCount: 2
Fore
SplineSet
324.955078125 367.80859375 m 24,0,1
 316 339 316 339 329.509765625 318.74609375 c 0,2,3
 346 295 346 295 382.920898438 281.950195312 c 0,4,5
 446 259 446 259 530 277 c 0,6,7
 579.931188561 287.155495979 579.931188561 287.155495979 597 323 c 4,8,9
 607 344 607 344 593 374 c 0,10,11
 567 437 567 437 458.445 545.307 c 1,12,13
 338 408 338 408 324.955078125 367.80859375 c 24,0,1
119.939 531.103 m 0,14,15
 181.301 630.918 181.301 630.918 265.994 723.066 c 1,16,-1
 228.857 754.999 l 1,17,-1
 397.855 935.774 l 1,18,-1
 434.286 909.451 l 2,19,20
 738.025 689.972 738.025 689.972 819.079 493.235 c 0,21,22
 857.616 399.129 857.616 399.129 860.706 317.638 c 128,-1,23
 863.797 236.146 863.797 236.146 828.412 168.856 c 128,-1,24
 793.027 101.567 793.027 101.567 719.245 56.8447 c 0,25,26
 628.828 2.03906 628.828 2.03906 467.821 3.53223 c 0,27,28
 318.651 4.93555 318.651 4.93555 233.76 45.499 c 0,29,30
 69.0859 124.324 69.0859 124.324 46.8848 269.516 c 0,31,32
 29.8564 386.381 29.8564 386.381 119.939 531.103 c 0,14,15
EndSplineSet
Substitution2: "'fina' Terminal Forms in Arabic lookup 9 subtable" uniFEEA
Substitution2: "'medi' Medial Forms in Arabic lookup 11 subtable" uniFEEC
Substitution2: "'init' Initial Forms in Arabic lookup 13 subtable" uniFEEB
EndChar

StartChar: uni0648
Encoding: 1608 1608 53
Width: 775
VWidth: 2186
GlyphClass: 2
Flags: W
AnchorPoint: "Anchor-10" 331.282 1088.17 basechar 0
AnchorPoint: "Anchor-7" 317.191 -602.443 basechar 0
LayerCount: 2
Fore
SplineSet
295.453125 324.21484375 m 0,0,1
 298.222482515 288.333943598 298.222482515 288.333943598 329.512695312 281.314453125 c 4,2,3
 383.362244516 269.233449561 383.362244516 269.233449561 466.736328125 277.715820312 c 1,4,5
 471.688178021 438.003119263 471.688178021 438.003119263 428.411132812 462.424804688 c 0,6,7
 410.28854359 472.65156973 410.28854359 472.65156973 369.187838158 471.78172654 c 0,8,9
 288 470 288 470 295.453125 324.21484375 c 0,0,1
659.490234375 613.104492188 m 0,10,11
 702.1875 551.337890625 702.1875 551.337890625 718.103515625 465.973144531 c 128,-1,12
 734.01953125 380.608398438 734.01953125 380.608398438 733.71484375 320.703613281 c 128,-1,13
 733.41015625 260.798828125 733.41015625 260.798828125 733.151367188 209.0859375 c 0,14,15
 732.633789062 105.66015625 732.633789062 105.66015625 732.633789062 57 c 2,16,-1
 732.633789062 51.0205078125 l 2,17,18
 732.83203125 -190.603515625 732.83203125 -190.603515625 597.919921875 -317.88671875 c 128,-1,19
 463.0078125 -445.169921875 463.0078125 -445.169921875 209.942382812 -445.041992188 c 2,20,-1
 62.07421875 -444.967773438 l 1,21,-1
 61.9228515625 -164.939453125 l 1,22,-1
 206.982421875 -165.041992188 l 2,23,24
 326.232421875 -165.025390625 326.232421875 -165.025390625 382.805664062 -125.188476562 c 128,-1,25
 439.377929688 -85.3515625 439.377929688 -85.3515625 451.477539062 -1.658203125 c 1,26,27
 424.328210617 -2.13019369753 424.328210617 -2.13019369753 387.073242188 -2.20703125 c 0,28,29
 85.3824648344 -3.58993665081 85.3824648344 -3.58993665081 48.11328125 215.548828125 c 0,30,31
 34.763671875 294.048828125 34.763671875 294.048828125 40.24609375 408.563964844 c 128,-1,32
 45.728515625 523.079101562 45.728515625 523.079101562 103.018554688 612.452148438 c 0,33,34
 188.341796875 746.53125 188.341796875 746.53125 395.579101562 742.618164062 c 0,35,36
 572.417326867 739.065663382 572.417326867 739.065663382 659.490234375 613.104492188 c 0,10,11
EndSplineSet
Substitution2: "'fina' Terminal Forms in Arabic lookup 9 subtable" uniFEEE
EndChar

StartChar: uni0649
Encoding: 1609 1609 54
Width: 1343
VWidth: 2237
GlyphClass: 2
Flags: W
AnchorPoint: "Anchor-10" 401.847 1107.66 basechar 0
AnchorPoint: "Anchor-7" 227.548 -543.146 basechar 0
LayerCount: 2
Fore
SplineSet
679.271 -433 m 1,0,-1
 611.699 -433 l 2,1,2
 334.363 -433 334.363 -433 187.217 -294.383 c 128,-1,3
 40.0713 -155.767 40.0713 -155.767 40.0713 108.499 c 2,4,-1
 40.0713 375 l 2,5,6
 40.0713 449.148 40.0713 449.148 77.8867 497.324 c 128,-1,7
 115.703 545.499 115.703 545.499 185 545.499 c 2,8,-1
 312.07 545.499 l 1,9,-1
 312.07 109.499 l 2,10,11
 312.07 -26.6709 312.07 -26.6709 382.731 -89.3467 c 128,-1,12
 453.393 -152.021 453.393 -152.021 613.55 -152.02 c 2,13,-1
 678.766 -152.02 l 1,14,-1
 733.053 -151.521 l 2,15,16
 873.332 -150.232 873.332 -150.232 933.166 -100.372 c 128,-1,17
 993 -50.5127 993 -50.5127 993 56 c 2,18,-1
 993 66 l 2,19,20
 993 69.3262 993 69.3262 992.623 72.1416 c 1,21,22
 989.533 72.5928 989.533 72.5928 985.842 72.6035 c 2,23,-1
 822.842 73.1094 l 2,24,25
 727.308 73.4062 727.308 73.4062 671.455 127.321 c 128,-1,26
 615.603 181.237 615.603 181.237 615.603 275.109 c 2,27,-1
 615.603 398.109 l 2,28,29
 615.603 586.155 615.603 586.155 705.788 689.882 c 128,-1,30
 795.975 793.608 795.975 793.608 966.231 793.608 c 2,31,-1
 1100.8 793.608 l 2,32,33
 1151.83 793.608 1151.83 793.608 1181.91 763.925 c 0,34,35
 1212.53 733.707 1212.53 733.707 1212.53 681.639 c 2,36,-1
 1212.53 512.628 l 1,37,-1
 931.081 512.628 l 2,38,39
 921.884 512.628 921.884 512.628 915.751 509.874 c 128,-1,40
 909.617 507.12 909.617 507.12 902.348 497.692 c 128,-1,41
 895.078 488.265 895.078 488.265 891.341 465.452 c 128,-1,42
 887.603 442.64 887.603 442.64 887.603 407.109 c 2,43,-1
 887.603 396.109 l 2,44,45
 887.603 367.148 887.603 367.148 887.532 345 c 1,46,-1
 1012 345 l 2,47,48
 1129.83 345 1129.83 345 1196.42 279.083 c 128,-1,49
 1263 213.166 1263 213.166 1263 96 c 2,50,-1
 1263 71 l 2,51,52
 1263 -171.969 1263 -171.969 1124.65 -300.858 c 128,-1,53
 986.304 -429.749 986.304 -429.749 726.911 -432.496 c 2,54,-1
 679.271 -433 l 1,0,-1
EndSplineSet
Substitution2: "'fina' Terminal Forms in Arabic lookup 9 subtable" uniFEF0
Substitution2: "'medi' Medial Forms in Arabic lookup 11 subtable" uniFBE9
Substitution2: "'init' Initial Forms in Arabic lookup 13 subtable" uniFBE8
EndChar

StartChar: uni064B
Encoding: 1611 1611 56
Width: 0
VWidth: 2186
GlyphClass: 4
Flags: W
AnchorPoint: "Anchor-10" 547.84 1041.5 mark 0
AnchorPoint: "Anchor-9" 547.84 1041.5 mark 0
AnchorPoint: "Anchor-1" 547.84 1576.5 basemark 0
AnchorPoint: "Anchor-1" 547.84 1041.5 mark 0
LayerCount: 2
Fore
SplineSet
269.4 977.41 m 5,0,-1
 269.4 1104.48 l 5,1,-1
 827.28 1332.79 l 5,2,-1
 827.28 1205.72 l 5,3,-1
 269.4 977.41 l 5,0,-1
269.4 1234.21 m 5,4,-1
 269.4 1361.28 l 5,5,-1
 827.28 1589.59 l 5,6,-1
 827.28 1462.52 l 5,7,-1
 269.4 1234.21 l 5,4,-1
EndSplineSet
EndChar

StartChar: uni064C
Encoding: 1612 1612 57
Width: 0
VWidth: 2186
GlyphClass: 4
Flags: W
AnchorPoint: "Anchor-10" 554.386 1155.44 mark 0
AnchorPoint: "Anchor-9" 554.386 1155.44 mark 0
AnchorPoint: "Anchor-1" 546.386 1810.94 basemark 0
AnchorPoint: "Anchor-1" 554.386 1155.44 mark 0
LayerCount: 2
Fore
SplineSet
567.219 1298.72 m 0,0,1
 608.391 1338.78 608.391 1338.78 631.845 1385.69 c 2,2,-1
 639.364 1400.73 l 1,3,-1
 622.913 1404.22 l 2,4,5
 589.558 1411.29 589.558 1411.29 566.532 1424.31 c 0,6,7
 457.736 1481.73 457.736 1481.73 457.736 1574.47 c 0,8,9
 457.736 1661.08 457.736 1661.08 526.365 1712.8 c 0,10,11
 552.86 1732.67 552.86 1732.67 615.937 1732.67 c 0,12,13
 688.759 1732.67 688.759 1732.67 727.738 1694.66 c 0,14,15
 782.696 1640.71 782.696 1640.71 782.696 1561.63 c 0,16,17
 782.696 1521.9 782.696 1521.9 770.46 1483.15 c 2,18,-1
 765.402 1467.14 l 1,19,-1
 782.175 1466.26 l 2,20,21
 802.247 1465.2 802.247 1465.2 817.806 1465.17 c 0,22,23
 831.205 1464.45 831.205 1464.45 845.826 1464.2 c 1,24,-1
 845.826 1372.44 l 1,25,26
 806.232 1372.69 806.232 1372.69 788.381 1374.48 c 2,27,-1
 723.27 1380.74 l 1,28,-1
 719.537 1371.99 l 2,29,30
 692.652 1308.91 692.652 1308.91 614.12 1227.24 c 1,31,32
 527.043 1139.14 527.043 1139.14 431.896 1139.14 c 0,33,34
 319.02 1139.14 319.02 1139.14 262.205 1295.39 c 0,35,36
 247.89 1334.51 247.89 1334.51 246.994 1442.7 c 1,37,-1
 317.299 1442.7 l 1,38,39
 318.143 1347.11 318.143 1347.11 331.307 1318.59 c 0,40,41
 372.26 1230.84 372.26 1230.84 431.896 1230.84 c 0,42,43
 497.076 1230.84 497.076 1230.84 567.219 1298.72 c 0,0,1
669.292 1482.64 m 1,44,-1
 680.316 1508.36 l 2,45,46
 690.996 1533.28 690.996 1533.28 690.996 1561.63 c 0,47,48
 690.996 1604.15 690.996 1604.15 668.07 1623.02 c 0,49,50
 646.28 1640.97 646.28 1640.97 620.217 1640.97 c 0,51,52
 591.787 1640.97 591.787 1640.97 575.875 1628.63 c 0,53,54
 551.576 1610.34 551.576 1610.34 551.576 1574.47 c 0,55,56
 551.576 1526.08 551.576 1526.08 607.898 1503.55 c 0,57,58
 629.803 1494.79 629.803 1494.79 658.123 1486.08 c 2,59,-1
 669.292 1482.64 l 1,44,-1
EndSplineSet
EndChar

StartChar: uni064D
Encoding: 1613 1613 58
Width: 0
VWidth: 2186
GlyphClass: 4
Flags: W
AnchorPoint: "Anchor-7" 531.84 75.5 mark 0
AnchorPoint: "Anchor-6" 531.84 75.5 mark 0
AnchorPoint: "Anchor-0" 547.84 -439.5 basemark 0
AnchorPoint: "Anchor-0" 531.84 75.5 mark 0
LayerCount: 2
Fore
SplineSet
270.96 -512.18 m 5,0,-1
 270.96 -385.109 l 5,1,-1
 828.84 -156.8 l 5,2,-1
 828.84 -283.87 l 5,3,-1
 270.96 -512.18 l 5,0,-1
270.96 -255.38 m 5,4,-1
 270.96 -128.31 l 5,5,-1
 828.84 100 l 5,6,-1
 828.84 -27.0703 l 5,7,-1
 270.96 -255.38 l 5,4,-1
EndSplineSet
EndChar

StartChar: uni064E
Encoding: 1614 1614 59
Width: 0
VWidth: 2186
GlyphClass: 4
Flags: W
AnchorPoint: "Anchor-10" 517.84 1279.5 mark 0
AnchorPoint: "Anchor-9" 517.84 1279.5 mark 0
AnchorPoint: "Anchor-1" 517.84 1600.5 basemark 0
AnchorPoint: "Anchor-1" 517.84 1279.5 mark 0
LayerCount: 2
Fore
SplineSet
237.4 1237.41 m 1,0,-1
 237.4 1364.48 l 1,1,-1
 795.28 1592.79 l 5,2,-1
 795.28 1465.72 l 1,3,-1
 237.4 1237.41 l 1,0,-1
EndSplineSet
EndChar

StartChar: uni064F
Encoding: 1615 1615 60
Width: 0
VWidth: 2186
GlyphClass: 4
Flags: W
AnchorPoint: "Anchor-10" 531.84 1205.5 mark 0
AnchorPoint: "Anchor-9" 531.84 1205.5 mark 0
AnchorPoint: "Anchor-1" 547.84 1825 basemark 0
AnchorPoint: "Anchor-1" 531.84 1205.5 mark 0
LayerCount: 2
Fore
SplineSet
594.529 1426.81 m 6,0,1
 586.598 1428.57 586.598 1428.57 567.734 1438.5 c 4,2,3
 459.19 1494.78 459.19 1494.78 459.19 1588.53 c 4,4,5
 459.19 1675.14 459.19 1675.14 527.819 1726.86 c 4,6,7
 554.314 1746.73 554.314 1746.73 617.39 1746.73 c 4,8,9
 690.212 1746.73 690.212 1746.73 729.192 1708.72 c 4,10,11
 784.15 1654.77 784.15 1654.77 784.15 1575.69 c 4,12,13
 784.15 1543.43 784.15 1543.43 769.757 1497.16 c 6,14,-1
 764.821 1481.3 l 5,15,-1
 781.407 1480.32 l 6,16,17
 799.81 1479.24 799.81 1479.24 819.259 1478.7 c 4,18,19
 832.229 1478.34 832.229 1478.34 847.28 1478.21 c 5,20,-1
 847.28 1386.53 l 5,21,22
 817.029 1386.85 817.029 1386.85 789.455 1388.57 c 4,23,24
 757.6 1390.7 757.6 1390.7 727.915 1393.88 c 6,25,-1
 720.312 1394.69 l 5,26,-1
 715.905 1388.44 l 6,27,28
 671.45 1325.37 671.45 1325.37 599.88 1281.81 c 4,29,30
 398.294 1157.85 398.294 1157.85 248.4 1152.36 c 5,31,-1
 248.4 1244.01 l 5,32,33
 408.671 1248.65 408.671 1248.65 554.781 1363.22 c 4,34,35
 580.142 1383.07 580.142 1383.07 601.135 1405.16 c 6,36,-1
 616.962 1421.83 l 5,37,-1
 594.529 1426.81 l 6,0,1
670.746 1496.7 m 5,38,-1
 681.77 1522.42 l 6,39,40
 692.45 1547.34 692.45 1547.34 692.45 1575.69 c 4,41,42
 692.45 1618.21 692.45 1618.21 669.524 1637.08 c 4,43,44
 647.734 1655.03 647.734 1655.03 621.67 1655.03 c 4,45,46
 593.241 1655.03 593.241 1655.03 577.329 1642.69 c 4,47,48
 553.03 1624.4 553.03 1624.4 553.03 1588.53 c 4,49,50
 553.03 1540.14 553.03 1540.14 609.352 1517.61 c 4,51,52
 631.256 1508.85 631.256 1508.85 659.577 1500.14 c 6,53,-1
 670.746 1496.7 l 5,38,-1
EndSplineSet
EndChar

StartChar: uni0650
Encoding: 1616 1616 61
Width: 0
VWidth: 2186
GlyphClass: 4
Flags: W
AnchorPoint: "Anchor-7" 467.84 -12.5 mark 0
AnchorPoint: "Anchor-6" 467.84 -12.5 mark 0
AnchorPoint: "Anchor-0" 556.84 -311.5 basemark 0
AnchorPoint: "Anchor-0" 467.84 -12.5 mark 0
LayerCount: 2
Fore
SplineSet
267.96 -356.836 m 1,0,-1
 267.96 -229.766 l 1,1,-1
 825.84 -1.45605 l 1,2,-1
 825.84 -128.526 l 1,3,-1
 267.96 -356.836 l 1,0,-1
EndSplineSet
EndChar

StartChar: uni0651
Encoding: 1617 1617 62
Width: 0
VWidth: 2186
GlyphClass: 4
Flags: W
AnchorPoint: "Anchor-10" 547.84 1316.5 mark 0
AnchorPoint: "Anchor-9" 547.84 1316.5 mark 0
AnchorPoint: "Anchor-1" 535.84 1818.5 basemark 0
AnchorPoint: "Anchor-1" 547.84 1316.5 mark 0
LayerCount: 2
Fore
SplineSet
507.838 1339.09 m 128,-1,1
 469.58 1294.39 469.58 1294.39 378.78 1294.39 c 0,2,3
 301.302 1294.39 301.302 1294.39 261.261 1355.91 c 0,4,5
 227 1408.31 227 1408.31 227 1486.07 c 0,6,7
 227 1527.41 227 1527.41 242.222 1626.56 c 1,8,-1
 320.73 1626.56 l 1,9,10
 310.14 1502.98 310.14 1502.98 310.14 1459.89 c 0,11,12
 310.14 1394.86 310.14 1394.86 398.84 1393.09 c 0,13,14
 497.128 1391.16 497.128 1391.16 506.266 1518.54 c 0,15,16
 508.184 1545.08 508.184 1545.08 508.4 1680.83 c 1,17,-1
 586.06 1680.83 l 1,18,19
 588.34 1645.85 588.34 1645.85 588.34 1597.53 c 0,20,21
 588.34 1452.09 588.34 1452.09 700.84 1452.09 c 4,22,23
 785.54 1452.09 785.54 1452.09 785.54 1599.06 c 4,24,25
 785.54 1708.64 785.54 1708.64 774.521 1770.1 c 5,26,-1
 857.705 1770.1 l 5,27,28
 868.68 1694.87 868.68 1694.87 868.68 1580.87 c 4,29,30
 868.68 1511.69 868.68 1511.69 841.188 1456.65 c 4,31,32
 796.118 1367.27 796.118 1367.27 722.84 1358.99 c 4,33,34
 657.525 1351.76 657.525 1351.76 616.258 1379.33 c 4,35,36
 556.63 1418.62 556.63 1418.62 554.84 1431.09 c 1,37,38
 546.096 1383.79 546.096 1383.79 507.838 1339.09 c 128,-1,1
EndSplineSet
EndChar

StartChar: uni0652
Encoding: 1618 1618 63
Width: 0
VWidth: 2186
GlyphClass: 4
Flags: W
AnchorPoint: "Anchor-10" 565.84 1128.5 mark 0
AnchorPoint: "Anchor-9" 565.84 1128.5 mark 0
AnchorPoint: "Anchor-1" 551.84 1702 basemark 0
AnchorPoint: "Anchor-1" 565.84 1128.5 mark 0
LayerCount: 2
Fore
SplineSet
674.569 1383.62 m 0,0,1
 674.569 1428.15 674.569 1428.15 643.439 1459.28 c 128,-1,2
 612.312 1490.41 612.312 1490.41 567.126 1490.41 c 0,3,4
 521.285 1490.41 521.285 1490.41 490.485 1459.61 c 128,-1,5
 459.685 1428.81 459.685 1428.81 459.685 1383.62 c 0,6,7
 459.685 1337.78 459.685 1337.78 490.485 1306.98 c 128,-1,8
 521.285 1276.18 521.285 1276.18 567.126 1276.18 c 0,9,10
 612.314 1276.18 612.314 1276.18 643.439 1307.31 c 128,-1,11
 674.569 1338.44 674.569 1338.44 674.569 1383.62 c 0,0,1
750.396 1383.73 m 128,-1,13
 750.396 1306.88 750.396 1306.88 697.316 1253.46 c 128,-1,14
 644.259 1200.07 644.259 1200.07 567.436 1200.07 c 128,-1,15
 490.613 1200.07 490.613 1200.07 437.557 1253.46 c 128,-1,16
 384.476 1306.88 384.476 1306.88 384.476 1383.73 c 128,-1,17
 384.476 1460.56 384.476 1460.56 437.537 1513.63 c 128,-1,18
 490.596 1566.69 490.596 1566.69 567.436 1566.69 c 128,-1,19
 644.276 1566.69 644.276 1566.69 697.335 1513.63 c 128,-1,12
 750.396 1460.56 750.396 1460.56 750.396 1383.73 c 128,-1,13
EndSplineSet
EndChar

StartChar: uni0653
Encoding: 1619 1619 64
Width: 0
VWidth: 2186
GlyphClass: 4
Flags: W
AnchorPoint: "Anchor-10" 442.84 1264.52 mark 0
AnchorPoint: "Anchor-9" 442.84 1264.52 mark 0
AnchorPoint: "Anchor-1" 442.84 1600.5 basemark 0
AnchorPoint: "Anchor-1" 442.84 1264.52 mark 0
LayerCount: 2
Fore
SplineSet
94.7278 1378.38 m 2,0,1
 207.042552153 1503.98458915 207.042552153 1503.98458915 294.419 1472.34 c 0,2,3
 445 1418 445 1418 513.012 1425.85 c 0,4,5
 578.431588332 1432.93841087 578.431588332 1432.93841087 643.134 1494.42 c 2,6,-1
 660.33 1510.76 l 1,7,-1
 731.834 1403.99 l 1,8,-1
 717.330078125 1390.53027344 l 6,9,10
 642 1321 642 1321 563.787 1304.67 c 1,11,12
 466 1282 466 1282 287.507 1337.62 c 1,13,14
 245.33905167 1349.90125251 245.33905167 1349.90125251 178.749 1287.76 c 2,15,-1
 163.736 1273.75 l 1,16,-1
 82.8708 1365.12 l 1,17,-1
 94.7278 1378.38 l 2,0,1
EndSplineSet
EndChar

StartChar: uni0657
Encoding: 1623 1623 67
Width: 0
VWidth: 2186
GlyphClass: 4
Flags: W
AnchorPoint: "Anchor-10" 547.84 1279.5 mark 0
AnchorPoint: "Anchor-9" 547.84 1279.5 mark 0
AnchorPoint: "Anchor-1" 547.84 1975 basemark 0
AnchorPoint: "Anchor-1" 547.84 1279.5 mark 0
LayerCount: 2
Fore
SplineSet
501.148 1675.55 m 2,0,1
 509.083 1673.79 509.083 1673.79 527.945 1663.86 c 0,2,3
 636.49 1607.58 636.49 1607.58 636.49 1513.83 c 0,4,5
 636.49 1427.22 636.49 1427.22 567.86 1375.5 c 0,6,7
 541.366 1355.63 541.366 1355.63 478.29 1355.63 c 0,8,9
 405.468 1355.63 405.468 1355.63 366.487 1393.64 c 0,10,11
 311.53 1447.59 311.53 1447.59 311.53 1526.67 c 0,12,13
 311.53 1558.94 311.53 1558.94 325.923 1605.2 c 2,14,-1
 330.858 1621.06 l 1,15,-1
 314.272 1622.04 l 2,16,17
 295.871 1623.12 295.871 1623.12 276.421 1623.66 c 0,18,19
 263.452 1624.02 263.452 1624.02 248.4 1624.15 c 1,20,-1
 248.4 1715.83 l 1,21,22
 278.631 1715.51 278.631 1715.51 306.226 1713.79 c 0,23,24
 338.082 1711.66 338.082 1711.66 367.766 1708.48 c 2,25,-1
 375.369 1707.67 l 1,26,-1
 379.775 1713.92 l 2,27,28
 424.231 1776.99 424.231 1776.99 495.801 1820.55 c 0,29,30
 697.387 1944.51 697.387 1944.51 847.28 1950 c 1,31,-1
 847.28 1858.35 l 1,32,33
 687.009 1853.71 687.009 1853.71 540.898 1739.14 c 0,34,35
 515.54 1719.29 515.54 1719.29 494.545 1697.2 c 2,36,-1
 478.72 1680.54 l 1,37,-1
 501.148 1675.55 l 2,0,1
424.935 1605.66 m 1,38,-1
 413.911 1579.94 l 2,39,40
 403.23 1555.02 403.23 1555.02 403.23 1526.67 c 0,41,42
 403.23 1484.16 403.23 1484.16 426.155 1465.28 c 0,43,44
 447.946 1447.33 447.946 1447.33 474.01 1447.33 c 0,45,46
 502.438 1447.33 502.438 1447.33 518.352 1459.67 c 0,47,48
 542.65 1477.96 542.65 1477.96 542.65 1513.83 c 0,49,50
 542.65 1562.22 542.65 1562.22 486.328 1584.75 c 0,51,52
 464.442 1593.51 464.442 1593.51 436.104 1602.22 c 2,53,-1
 424.935 1605.66 l 1,38,-1
EndSplineSet
EndChar

StartChar: uni065A
Encoding: 1626 1626 68
Width: 1095
VWidth: 2186
GlyphClass: 4
Flags: W
AnchorPoint: "Anchor-10" 547.84 1279.5 mark 0
AnchorPoint: "Anchor-9" 547.84 1279.5 mark 0
AnchorPoint: "Anchor-1" 545.7 1761 basemark 0
AnchorPoint: "Anchor-1" 547.84 1279.5 mark 0
LayerCount: 2
Fore
SplineSet
476.032 1358.84 m 1,0,-1
 282.934 1681.66 l 1,1,-1
 401.783 1681.66 l 1,2,-1
 547.84 1462.57 l 1,3,-1
 693.896 1681.66 l 1,4,-1
 812.746 1681.66 l 1,5,-1
 619.646 1358.84 l 1,6,-1
 476.032 1358.84 l 1,0,-1
EndSplineSet
EndChar

StartChar: afii57392
Encoding: 1632 1632 69
Width: 1177
VWidth: 2099
GlyphClass: 2
Flags: W
LayerCount: 2
Fore
SplineSet
500.265 654.614 m 132,-1,1
 500.265 613.746 500.265 613.746 530.042 583.971 c 132,-1,2
 559.817 554.193 559.817 554.193 600.687 554.193 c 132,-1,3
 641.554 554.193 641.554 554.193 671.33 583.971 c 132,-1,4
 701.107 613.746 701.107 613.746 701.107 654.614 c 132,-1,5
 701.107 695.479 701.107 695.479 671.33 725.258 c 132,-1,6
 641.551 755.035 641.551 755.035 600.687 755.035 c 132,-1,7
 559.82 755.035 559.82 755.035 530.042 725.258 c 132,-1,0
 500.265 695.48 500.265 695.48 500.265 654.614 c 132,-1,1
301.267 656.562 m 128,-1,9
 301.267 781.415 301.267 781.415 389.389 870.052 c 128,-1,10
 477.597 958.775 477.597 958.775 601.947 958.775 c 128,-1,11
 726.302 958.775 726.302 958.775 814.507 870.051 c 128,-1,12
 902.626 781.413 902.626 781.413 902.626 656.562 c 128,-1,13
 902.626 531.701 902.626 531.701 814.506 443.073 c 128,-1,14
 726.291 354.351 726.291 354.351 601.947 354.351 c 128,-1,15
 477.596 354.351 477.596 354.351 389.39 443.073 c 128,-1,8
 301.267 531.707 301.267 531.707 301.267 656.562 c 128,-1,9
EndSplineSet
EndChar

StartChar: afii57393
Encoding: 1633 1633 70
Width: 1177
VWidth: 2099
GlyphClass: 2
Flags: W
LayerCount: 2
Fore
SplineSet
787.039 8.5 m 1,0,-1
 518.459 8.5 l 1,1,-1
 518.393 59.4346 l 2,2,3
 517.873 465.289 517.873 465.289 479.162 731.455 c 0,4,5
 435.581 1027.85 435.581 1027.85 343.352 1239.09 c 2,6,-1
 312.171 1310.5 l 1,7,-1
 608.064 1310.5 l 1,8,-1
 619.797 1275.86 l 2,9,10
 718.978 983.036 718.978 983.036 752.551 740.981 c 0,11,12
 786.627 490.312 786.627 490.312 786.995 59.5439 c 2,13,-1
 787.039 8.5 l 1,0,-1
EndSplineSet
EndChar

StartChar: afii57394
Encoding: 1634 1634 71
Width: 1177
VWidth: 2099
GlyphClass: 2
Flags: W
LayerCount: 2
Fore
SplineSet
547.63 715.034 m 1,0,1
 576.868 535.664 576.868 535.664 577.275 59.543 c 2,2,-1
 577.318 8.5 l 1,3,-1
 308.738 8.5 l 1,4,-1
 308.672 59.4336 l 2,5,6
 308.104 492.658 308.104 492.658 280.411 685.743 c 1,7,8
 242.726 967.047 242.726 967.047 139.759 1235.22 c 2,9,-1
 113.157 1304.5 l 1,10,-1
 402.609 1304.5 l 1,11,-1
 413.77 1268.66 l 2,12,13
 453.775 1140.21 453.775 1140.21 465.501 1105.16 c 0,14,15
 489.177 1034.4 489.177 1034.4 533.919 1002.53 c 128,-1,16
 578.661 970.66 578.661 970.66 655.148 970.66 c 1,17,18
 795.044 968.517 795.044 968.517 801.096 1071.52 c 0,19,20
 801.518 1084.7 801.518 1084.7 802.416 1253.77 c 2,21,-1
 802.686 1304.5 l 1,22,-1
 1046.45 1304.5 l 1,23,-1
 1047.52 1254.59 l 2,24,25
 1051.67 1060.27 1051.67 1060.27 1037.74 979.424 c 0,26,27
 1014.3 843.29 1014.3 843.29 915.927 772.675 c 128,-1,28
 817.555 702.06 817.555 702.06 660.19 702.06 c 0,29,30
 596.19 702.06 596.19 702.06 547.63 715.034 c 1,0,1
EndSplineSet
EndChar

StartChar: afii57395
Encoding: 1635 1635 72
Width: 1177
VWidth: 2099
GlyphClass: 2
Flags: W
LayerCount: 2
Fore
SplineSet
761.725 1068.78 m 0,0,1
 760.257 968.312 760.257 968.312 834.904 965.34 c 0,2,3
 910.389 962.335 910.389 962.335 915.44 1069.66 c 0,4,5
 916.08 1084.99 916.08 1084.99 914.819 1252.46 c 2,6,-1
 914.435 1303.59 l 1,7,-1
 1131.33 1304.04 l 1,8,-1
 1132.47 1254.2 l 2,9,10
 1139.24 957.251 1139.24 957.251 1081.83 838.772 c 0,11,12
 1051.01 775.007 1051.01 775.007 990.837 741.542 c 128,-1,13
 930.664 708.078 930.664 708.078 850.339 706.019 c 0,14,15
 750.476 703.024 750.476 703.024 679.688 770.128 c 1,16,17
 615.903 700.161 615.903 700.161 509.153 702.005 c 0,18,19
 472.224 702.546 472.224 702.546 441.053 710.152 c 1,20,21
 469.889 519.374 469.889 519.374 470.276 59.5439 c 2,22,-1
 470.319 8.5 l 1,23,-1
 201.735 8.5 l 1,24,-1
 201.672 59.4365 l 2,25,26
 201.159 470.859 201.159 470.859 162.461 731.328 c 0,27,28
 118.206 1029.2 118.206 1029.2 40.6318 1235.55 c 2,29,-1
 14.7139 1304.5 l 1,30,-1
 295.609 1304.5 l 1,31,-1
 306.77 1268.66 l 2,32,33
 346.734 1140.34 346.734 1140.34 358.502 1105.16 c 0,34,35
 403.501 970.66 403.501 970.66 477.405 970.66 c 1,36,37
 545.307 968.935 545.307 968.935 548.091 1071.42 c 0,38,39
 548.471 1085.43 548.471 1085.43 548.416 1253.48 c 2,40,-1
 548.399 1304.5 l 1,41,-1
 761.829 1304.05 l 1,42,-1
 762.049 1253.33 l 2,43,44
 762.42 1167.6 762.42 1167.6 761.725 1068.78 c 0,0,1
EndSplineSet
EndChar

StartChar: afii57396
Encoding: 1636 1636 73
Width: 1177
VWidth: 2099
GlyphClass: 2
Flags: W
LayerCount: 2
Fore
SplineSet
815.054 1308.19 m 1,0,-1
 799.45 1058.18 l 1,1,-1
 746.6 1063.66 l 2,2,3
 485.211 1090.76 485.211 1090.76 493.804 965.911 c 0,4,5
 499.234 890.885 499.234 890.885 614.735 881.696 c 0,6,7
 636.354 879.977 636.354 879.977 752.818 875.994 c 2,8,-1
 798.769 874.423 l 1,9,-1
 798.769 632.28 l 1,10,-1
 755.366 625.742 l 2,11,12
 567.112 597.383 567.112 597.383 483.116 531.29 c 0,13,14
 441.545 498.581 441.545 498.581 426.33 464.104 c 128,-1,15
 411.114 429.627 411.114 429.627 417.362 386.665 c 0,16,17
 422.459 349.522 422.459 349.522 441.045 324.038 c 128,-1,18
 459.631 298.553 459.631 298.553 498.05 281.154 c 128,-1,19
 536.469 263.755 536.469 263.755 596.592 262.12 c 128,-1,20
 656.716 260.484 656.716 260.484 744.886 271.039 c 1,21,22
 821.346 281.568 821.346 281.568 941.717 339.748 c 2,23,-1
 1014.91 375.125 l 1,24,-1
 1014.91 79.2754 l 1,25,-1
 982.528 66.2285 l 2,26,27
 850.343 12.9697 850.343 12.9697 675.614 0.883789 c 0,28,29
 633.944 -1.88477 633.944 -1.88477 595.67 -1.66211 c 0,30,31
 379.222 -0.397461 379.222 -0.397461 262.09 102.777 c 128,-1,32
 144.958 205.951 144.958 205.951 146.582 400.794 c 0,33,34
 147.537 515.91 147.537 515.91 202.329 604.65 c 128,-1,35
 257.12 693.39 257.12 693.39 359.869 748.142 c 1,36,37
 257.87 802.812 257.87 802.812 239.695 901.456 c 0,38,39
 217.635 1021.19 217.635 1021.19 265.078 1113.18 c 128,-1,40
 312.521 1205.18 312.521 1205.18 423.049 1257.28 c 0,41,42
 542.627 1313.65 542.627 1313.65 761.859 1309.26 c 2,43,-1
 815.054 1308.19 l 1,0,-1
EndSplineSet
EndChar

StartChar: afii57397
Encoding: 1637 1637 74
Width: 1177
VWidth: 2186
GlyphClass: 2
Flags: W
LayerCount: 2
Fore
SplineSet
473.534179688 722.610351562 m 4,0,1
 374.133789062 573.276367188 374.133789062 573.276367188 368.290039062 470.251953125 c 4,2,3
 363.231445312 369.297851562 363.231445312 369.297851562 422.271484375 321.396484375 c 4,4,5
 481.06640625 273.954101562 481.06640625 273.954101562 611.05859375 273.625 c 4,6,7
 752.930664062 273.106445312 752.930664062 273.106445312 785.688476562 328.657226562 c 4,8,9
 822.163085938 389.680664062 822.163085938 389.680664062 815.895507812 495.942382812 c 4,10,11
 814.51953125 520.2109375 814.51953125 520.2109375 807.59375 546.415039062 c 132,-1,12
 800.668945312 572.620117188 800.668945312 572.620117188 787.93359375 601.28125 c 132,-1,13
 775.197265625 629.942382812 775.197265625 629.942382812 755.787109375 661.24609375 c 132,-1,14
 736.375976562 692.548828125 736.375976562 692.548828125 710.837890625 725.317382812 c 4,15,16
 659.3359375 790.84765625 659.3359375 790.84765625 576.827148438 845.958984375 c 5,17,18
 518.809570312 791.465820312 518.809570312 791.465820312 473.534179688 722.610351562 c 4,0,1
311.309570312 1020.15234375 m 5,19,-1
 464.481445312 1234.70605469 l 5,20,-1
 502.736328125 1217.24023438 l 6,21,22
 668.538085938 1141.54101562 668.538085938 1141.54101562 788.142578125 1042.10058594 c 132,-1,23
 907.748046875 942.66015625 907.748046875 942.66015625 979.360351562 819.255859375 c 4,24,25
 1072.34472656 659.916015625 1072.34472656 659.916015625 1080.55664062 488.354492188 c 4,26,27
 1093.0859375 247.44921875 1093.0859375 247.44921875 985.52734375 136.552734375 c 4,28,29
 855.438476562 2.90625 855.438476562 2.90625 594.470703125 4.037109375 c 4,30,31
 329.047851562 3.9970703125 329.047851562 3.9970703125 203.1953125 137.002929688 c 4,32,33
 71.3056640625 276.565429688 71.3056640625 276.565429688 99.353515625 492.41015625 c 4,34,35
 120.809570312 656.13671875 120.809570312 656.13671875 204.75 796.125 c 4,36,37
 280.154296875 921.23046875 280.154296875 921.23046875 353.202148438 996.87890625 c 5,38,-1
 311.309570312 1020.15234375 l 5,19,-1
EndSplineSet
EndChar

StartChar: afii57398
Encoding: 1638 1638 75
Width: 1177
VWidth: 2099
GlyphClass: 2
Flags: W
LayerCount: 2
Fore
SplineSet
973.247070312 1227.21972656 m 6,0,1
 974.500779695 868.204442025 974.500779695 868.204442025 1012.4 580.955 c 1,2,3
 1050.51478428 297.607126348 1050.51478428 297.607126348 1107.37 71.9609 c 2,4,-1
 1123.36 8.5 l 1,5,-1
 833.964 8.5 l 1,6,-1
 825.198 48.6113 l 2,7,8
 767 315 767 315 739.101 571.069 c 0,9,10
 707 873 707 873 703.521484375 966.140625 c 5,11,12
 612 947 612 947 490.098632812 947.400390625 c 4,13,14
 300.741380125 946.999452408 300.741380125 946.999452408 119.705078125 999.650390625 c 6,15,-1
 82.9501953125 1010.33984375 l 5,16,-1
 82.9501953125 1292.87988281 l 5,17,-1
 147.099609375 1275.76953125 l 6,18,19
 326 1228 326 1228 490.098632812 1228 c 4,20,21
 701.862844717 1228 701.862844717 1228 910.65625 1276.70996094 c 6,22,-1
 973.0234375 1291.25976562 l 5,23,-1
 973.247070312 1227.21972656 l 6,0,1
EndSplineSet
EndChar

StartChar: afii57399
Encoding: 1639 1639 76
Width: 1177
VWidth: 2099
GlyphClass: 2
Flags: W
LayerCount: 2
Fore
SplineSet
453.859 51.8994 m 2,0,1
 397.493 425.931 397.493 425.931 332.862 634.425 c 0,2,3
 209.817 1028.43 209.817 1028.43 85.9941 1222.02 c 2,4,-1
 35.7998 1300.5 l 1,5,-1
 352.744 1300.5 l 1,6,-1
 366.706 1271.83 l 2,7,8
 501.853 994.32 501.853 994.32 571.072 780.728 c 0,9,10
 580.104 752.148 580.104 752.148 588.213 724.348 c 1,11,12
 596.847 753.441 596.847 753.441 606.087 781.217 c 0,13,14
 689.885 1035.17 689.885 1035.17 817.158 1273.52 c 2,15,-1
 831.562 1300.5 l 1,16,-1
 1123.35 1300.5 l 1,17,-1
 1085.36 1226.27 l 2,18,19
 915.315 893.968 915.315 893.968 844.496 635.653 c 0,20,21
 756.35 314.14 756.35 314.14 723.899 53.2061 c 2,22,-1
 718.34 8.5 l 1,23,-1
 460.4 8.5 l 1,24,-1
 453.859 51.8994 l 2,0,1
EndSplineSet
EndChar

StartChar: afii57400
Encoding: 1640 1640 77
Width: 1177
VWidth: 2099
GlyphClass: 2
Flags: W
LayerCount: 2
Fore
SplineSet
460.4 1300.5 m 1,0,-1
 718.341 1300.5 l 1,1,-1
 723.9 1255.79 l 2,2,3
 756.354 994.851 756.354 994.851 844.497 673.347 c 0,4,5
 915.328 414.99 915.328 414.99 1085.36 82.7324 c 2,6,-1
 1123.35 8.5 l 1,7,-1
 831.562 8.5 l 1,8,-1
 817.158 35.4785 l 2,9,10
 689.882 273.846 689.882 273.846 606.087 527.783 c 0,11,12
 596.84 555.578 596.84 555.578 588.345 584.209 c 1,13,14
 580.076 556.116 580.076 556.116 571.026 528.13 c 0,15,16
 503.159 318.25 503.159 318.25 361.411 36.5742 c 2,17,-1
 347.283 8.5 l 1,18,-1
 30.0176 8.5 l 1,19,-1
 81.1885 87.2803 l 2,20,21
 197.223 265.926 197.223 265.926 333.107 675.344 c 1,22,23
 394.793 865.132 394.793 865.132 453.859 1257.1 c 2,24,-1
 460.4 1300.5 l 1,0,-1
EndSplineSet
EndChar

StartChar: afii57401
Encoding: 1641 1641 78
Width: 1177
VWidth: 2099
GlyphClass: 2
Flags: W
LayerCount: 2
Fore
SplineSet
744.608 462.422 m 1,0,1
 566.441 463.928 566.441 463.928 484.067 482.249 c 0,2,3
 285.062 526.939 285.062 526.939 195.179 626.1 c 0,4,5
 94 737.719 94 737.719 94 872.651 c 0,6,7
 94 1047.45 94 1047.45 204.771 1158.31 c 0,8,9
 350.579 1305.35 350.579 1305.35 524.855 1304.2 c 1,10,11
 728.525 1304.2 728.525 1304.2 828.202 1208.09 c 0,12,13
 962.285 1077.66 962.285 1077.66 977.745 870.107 c 0,14,15
 994.283 646.783 994.283 646.783 1007.17 569.417 c 0,16,17
 1069.14 218.212 1069.14 218.212 1112.74 74.2881 c 2,18,-1
 1132.67 8.50098 l 1,19,-1
 840.436 8.50098 l 1,20,-1
 831.62 48.5312 l 2,21,22
 761.525 366.791 761.525 366.791 744.608 462.422 c 1,0,1
713.53 732.21 m 1,23,-1
 713.53 787.05 l 2,24,25
 713.53 897.264 713.53 897.264 676.603 947.618 c 0,26,27
 615.546 1033.37 615.546 1033.37 530.266 1032.6 c 0,28,29
 460.857 1032.6 460.857 1032.6 410.896 984.397 c 0,30,31
 362.6 937.829 362.6 937.829 362.6 878 c 0,32,33
 362.6 831.685 362.6 831.685 413.026 791.335 c 0,34,35
 444.646 766.034 444.646 766.034 515.349 749.106 c 0,36,37
 577.971 734.113 577.971 734.113 713.53 732.21 c 1,23,-1
EndSplineSet
EndChar

StartChar: afii57381
Encoding: 1642 1642 79
Width: 1177
VWidth: 2237
GlyphClass: 2
Flags: W
LayerCount: 2
Fore
SplineSet
85.447265625 1137.55664062 m 128,-1,1
 85.447265625 1206.92578125 85.447265625 1206.92578125 134.538085938 1256.01757812 c 128,-1,2
 183.62890625 1305.10839844 183.62890625 1305.10839844 253 1305.10839844 c 128,-1,3
 322.372070312 1305.10839844 322.372070312 1305.10839844 371.461914062 1256.01757812 c 128,-1,4
 420.555664062 1206.92675781 420.555664062 1206.92675781 420.555664062 1137.55664062 c 128,-1,5
 420.555664062 1068.18164062 420.555664062 1068.18164062 371.461914062 1019.09179688 c 128,-1,6
 322.372070312 970 322.372070312 970 253 970 c 128,-1,7
 183.62890625 970 183.62890625 970 134.538085938 1019.09179688 c 128,-1,0
 85.447265625 1068.18066406 85.447265625 1068.18066406 85.447265625 1137.55664062 c 128,-1,1
698.447265625 177.556640625 m 4,8,9
 698 247 698 247 747.538085938 296.017578125 c 132,-1,10
 797 345 797 345 866 345.108398438 c 4,11,12
 935 345 935 345 984.461914062 296.017578125 c 132,-1,13
 1034 247 1034 247 1033.55566406 177.556640625 c 4,14,15
 1034 108 1034 108 984.461914062 59.091796875 c 132,-1,16
 935 10 935 10 866 10 c 132,-1,17
 797 10 797 10 747.538085938 59.091796875 c 132,-1,18
 698 108 698 108 698.447265625 177.556640625 c 4,8,9
752.189453125 1306.54980469 m 1,19,-1
 1009 1306.54980469 l 1,20,-1
 336.611 8.5 l 1,21,-1
 79.8047 8.5 l 1,22,-1
 752.189453125 1306.54980469 l 1,19,-1
EndSplineSet
EndChar

StartChar: uni066B
Encoding: 1643 1643 80
Width: 711
VWidth: 2186
GlyphClass: 2
Flags: W
LayerCount: 2
Fore
SplineSet
443.218 502.139 m 1,0,-1
 568.799 501.203 l 1,1,2
 342.799 113.203 342.799 113.203 130 -230.265 c 1,3,-1
 1.59766 -228.502 l 1,4,5
 94.7988 -78.7969 94.7988 -78.7969 443.218 502.139 c 1,0,-1
EndSplineSet
EndChar

StartChar: uni066C
Encoding: 1644 1644 81
Width: 696
VWidth: 2186
GlyphClass: 2
Flags: W
LayerCount: 2
Fore
SplineSet
291.2 1580.01 m 1,0,-1
 490.97 1580.01 l 1,1,-1
 490.97 1433.52 l 1,2,-1
 320.557 1102.04 l 1,3,-1
 207.225 1102.04 l 1,4,-1
 291.2 1428.73 l 1,5,-1
 291.2 1580.01 l 1,0,-1
EndSplineSet
EndChar

StartChar: afii63167
Encoding: 1645 1645 82
Width: 1194
VWidth: 2237
GlyphClass: 2
Flags: W
LayerCount: 2
Fore
SplineSet
-23.2812 896.63 m 1,0,-1
 449.703 896.63 l 1,1,-1
 597.062 1345.28 l 1,2,-1
 744.417 896.63 l 1,3,-1
 1217.4 896.63 l 1,4,-1
 835.389 617.365 l 1,5,-1
 981.707 167.859 l 1,6,-1
 597.061 445.808 l 1,7,-1
 212.413 167.86 l 1,8,-1
 358.731 617.365 l 1,9,-1
 -23.2812 896.63 l 1,0,-1
EndSplineSet
EndChar

StartChar: uni066E
Encoding: 1646 1646 83
Width: 1667
VWidth: 2237
GlyphClass: 2
Flags: W
AnchorPoint: "Anchor-10" 763.22 1107.5 basechar 0
AnchorPoint: "Anchor-7" 763.22 -123 basechar 0
LayerCount: 2
Fore
SplineSet
1271.62 0 m 2,0,-1
 416.654 0 l 2,1,2
 232.857 -0.1875 232.857 -0.1875 136.428 114.017 c 128,-1,3
 39.998 228.221 39.998 228.221 39.9971 436.499 c 2,4,-1
 39.9961 730.499 l 1,5,-1
 311.996 730.499 l 1,6,-1
 311.996 445.499 l 2,7,8
 311.996 351.388 311.996 351.388 338.098 316.184 c 128,-1,9
 364.199 280.98 364.199 280.98 420.475 280.98 c 2,10,-1
 1268.77 280.98 l 2,11,12
 1325.12 280.98 1325.12 280.98 1351.19 315.966 c 128,-1,13
 1377.25 350.952 1377.25 350.952 1377.25 444.499 c 2,14,-1
 1377.25 730.499 l 1,15,-1
 1649.25 730.499 l 1,16,-1
 1649.25 441.499 l 2,17,18
 1649.25 231.015 1649.25 231.015 1552.67 115.507 c 128,-1,19
 1456.1 -0 1456.1 -0 1271.62 0 c 2,0,-1
EndSplineSet
Substitution2: "'init' Initial Forms in Arabic lookup 13 subtable" uni066E.init
Substitution2: "'medi' Medial Forms in Arabic lookup 11 subtable" uni066E.medi
Substitution2: "'fina' Terminal Forms in Arabic lookup 9 subtable" uni066E.fina
EndChar

StartChar: uni066F
Encoding: 1647 1647 84
Width: 1383
VWidth: 2186
GlyphClass: 2
Flags: W
AnchorPoint: "Anchor-10" 315 1101.5 basechar 0
AnchorPoint: "Anchor-7" 376 -496 basechar 0
LayerCount: 2
Fore
SplineSet
1291.28027344 148.129882812 m 1,0,-1
 1290.89746094 113.565429688 l 2,1,2
 1288.05175781 -143.241210938 1288.05175781 -143.241210938 1144.94726562 -277.506835938 c 128,-1,3
 1001.84277344 -411.772460938 1001.84277344 -411.772460938 734.997070312 -410.3671875 c 2,4,-1
 642.763671875 -409.869140625 l 1,5,-1
 619.600585938 -409.869140625 l 2,6,7
 339.607421875 -409.869140625 339.607421875 -409.869140625 189.796875 -280.533203125 c 128,-1,8
 39.9873046875 -151.196289062 39.9873046875 -151.196289062 39.97265625 97.6298828125 c 2,9,-1
 39.97265625 330.130859375 l 2,10,11
 39.97265625 432.272983078 39.97265625 432.272983078 105.076171875 477.564453125 c 0,12,13
 138.494140625 500.813476562 138.494140625 500.813476562 185.001953125 500.629882812 c 2,14,-1
 311.97265625 500.629882812 l 1,15,-1
 311.97265625 98.6298828125 l 2,16,17
 311.97265625 -18.0380859375 311.97265625 -18.0380859375 383.676757812 -73.4892578125 c 128,-1,18
 455.380859375 -128.940429688 455.380859375 -128.940429688 621.451171875 -128.888671875 c 2,19,-1
 642.772460938 -128.888671875 l 1,20,-1
 742.166015625 -128.388671875 l 2,21,22
 887.987304688 -127.654296875 887.987304688 -127.654296875 952.1953125 -73.458984375 c 128,-1,23
 1016.40332031 -19.2626953125 1016.40332031 -19.2626953125 1018.83300781 97.1669921875 c 1,24,25
 976.984375 97.0927734375 976.984375 97.0927734375 912.760742188 97.205078125 c 0,26,27
 566.747076417 96.6857481481 566.747076417 96.6857481481 597.389648438 491.231445312 c 0,28,29
 608.456736235 638.294061863 608.456736235 638.294061863 679.686523438 716.78515625 c 0,30,31
 774.659179688 822.434570312 774.659179688 822.434570312 953.4609375 819.030273438 c 0,32,33
 1208.39721877 813.754169356 1208.39721877 813.754169356 1272.68945312 583.053710938 c 0,34,35
 1293.78986647 507.346580791 1293.78986647 507.346580791 1291.90079261 407.807079458 c 128,-1,36
 1290.01171875 308.267578125 1290.01171875 308.267578125 1291.28027344 262.112304688 c 1,37,-1
 1291.28027344 148.129882812 l 1,0,-1
851.5 453.5 m 4,38,39
 847.203860649 390.28537812 847.203860649 390.28537812 893.41796875 381.169921875 c 0,40,41
 946 371 946 371 1023.66601562 376.896484375 c 1,42,43
 1025 514 1025 514 996.752929688 536.766601562 c 0,44,45
 968 560 968 560 917 551 c 0,46,47
 857.435074269 540.830378534 857.435074269 540.830378534 851.5 453.5 c 4,38,39
EndSplineSet
Substitution2: "'init' Initial Forms in Arabic lookup 13 subtable" uni066F.init
Substitution2: "'medi' Medial Forms in Arabic lookup 11 subtable" uni066F.medi
Substitution2: "'fina' Terminal Forms in Arabic lookup 9 subtable" uni066F.fina
EndChar

StartChar: uni0670
Encoding: 1648 1648 85
Width: 0
VWidth: 2237
GlyphClass: 4
Flags: W
AnchorPoint: "Anchor-10" 547.84 1279.5 mark 0
AnchorPoint: "Anchor-9" 547.84 1279.5 mark 0
AnchorPoint: "Anchor-1" 547.84 1975 basemark 0
AnchorPoint: "Anchor-1" 547.84 1279.5 mark 0
LayerCount: 2
Fore
SplineSet
501.99 1327.81 m 1,0,-1
 501.99 1926.69 l 1,1,-1
 593.69 1926.69 l 1,2,-1
 593.69 1327.81 l 1,3,-1
 501.99 1327.81 l 1,0,-1
EndSplineSet
EndChar

StartChar: uni0674
Encoding: 1652 1652 86
Width: 639
VWidth: 2186
GlyphClass: 2
Flags: W
LayerCount: 2
Fore
SplineSet
145.54 1513.67 m 5,0,-1
 260.506 1540.2 l 5,1,-1
 255.134 1542.64 l 6,2,3
 147.68 1591.5 147.68 1591.5 147.68 1692.52 c 4,4,5
 147.68 1764.89 147.68 1764.89 207.315 1817.49 c 4,6,7
 257.742 1861.48 257.742 1861.48 343 1862 c 4,8,9
 409.565 1862 409.565 1862 460.08 1832.66 c 5,10,-1
 460.08 1759.96 l 5,11,12
 391.561 1791.91 391.561 1791.91 336.842 1786.29 c 4,13,14
 224.701 1774.86 224.701 1774.86 218.267 1701.25 c 4,15,16
 210.514 1611.48 210.514 1611.48 329.581 1575.42 c 4,17,18
 365.845 1564.43 365.845 1564.43 482.55 1591.18 c 5,19,-1
 482.55 1513 l 5,20,-1
 145.54 1437.34 l 5,21,-1
 145.54 1513.67 l 5,0,-1
EndSplineSet
EndChar

StartChar: uni06A1
Encoding: 1697 1697 90
Width: 1748
VWidth: 2186
GlyphClass: 2
Flags: W
AnchorPoint: "Anchor-10" 351.55 1281.28 basechar 0
AnchorPoint: "Anchor-7" 458.55 -96.8799 basechar 0
LayerCount: 2
Fore
SplineSet
1354.38769531 354.923828125 m 5,0,1
 1321 355 1321 355 1277.49609375 354.79296875 c 0,2,3
 1117 355 1117 355 1031.84277344 449.489257812 c 0,4,5
 948 543 948 543 962.110351562 721.833007812 c 0,6,7
 984 1007 984 1007 1236.84765625 1044.83300781 c 0,8,9
 1427 1073 1427 1073 1541.8828125 972.356445312 c 0,10,11
 1657 873 1657 873 1656.37988281 636.05078125 c 0,12,13
 1656 504 1656 504 1656 492 c 2,14,-1
 1656 375 l 2,15,16
 1656 190 1656 190 1524.59765625 93.890625 c 0,17,18
 1395.49808094 -0.635308127561 1395.49808094 -0.635308127561 1154.73535156 0 c 2,19,-1
 870.877929688 0.7490234375 l 1,20,-1
 416.9453125 0.7490234375 l 2,21,22
 233 1 233 1 136.575195312 114.950195312 c 0,23,24
 40.3190524683 228.623217208 40.3190524683 228.623217208 40.318359375 437.268554688 c 2,25,-1
 40.3173828125 731.248046875 l 1,26,-1
 312.317382812 731.248046875 l 1,27,-1
 312.317382812 446.248046875 l 2,28,29
 312 352 312 352 338.446289062 317.0625 c 0,30,31
 365.205601928 281.728515625 365.205601928 281.728515625 420.838867188 281.728515625 c 2,32,-1
 870.916992188 281.728515625 l 1,33,-1
 1117.81445312 282 l 2,34,35
 1333 282 1333 282 1354.38769531 354.923828125 c 5,0,1
1388.28320312 607.462890625 m 1,36,37
 1392 735 1392 735 1367.44509201 762.000752907 c 0,38,39
 1355.07813166 778.548003958 1355.07813166 778.548003958 1321.19069748 780.172627907 c 0,40,41
 1285.09082031 781.903320312 1285.09082031 781.903320312 1268.62207031 778.489257812 c 128,-1,42
 1252.15429688 775.076171875 1252.15429688 775.076171875 1240.86328125 764.848632812 c 0,43,44
 1203.02884606 730.580705828 1203.02884606 730.580705828 1219 644.567382812 c 0,45,46
 1222.43659372 626.057162158 1222.43659372 626.057162158 1232.70706639 619.315690454 c 0,47,48
 1264.91564404 598.174188814 1264.91564404 598.174188814 1388.28320312 607.462890625 c 1,36,37
EndSplineSet
Substitution2: "'init' Initial Forms in Arabic lookup 13 subtable" uni06A1.init
Substitution2: "'medi' Medial Forms in Arabic lookup 11 subtable" uni06A1.medi
Substitution2: "'fina' Terminal Forms in Arabic lookup 9 subtable" uni06A1.fina
EndChar

StartChar: uni06A9
Encoding: 1705 1705 91
Width: 1688
VWidth: 2237
GlyphClass: 2
Flags: W
AnchorPoint: "Anchor-10" 387 1258.34 basechar 0
AnchorPoint: "Anchor-7" 439 -232.68 basechar 0
LayerCount: 2
Fore
SplineSet
1175.72 0 m 2,0,-1
 431.651 0 l 2,1,2
 243.412 -0.186523 243.412 -0.186523 144.205 113.798 c 128,-1,3
 44.998 227.783 44.998 227.783 44.9971 436.499 c 2,4,-1
 44.9961 730.499 l 1,5,-1
 316.996 730.499 l 1,6,-1
 316.996 445.499 l 2,7,8
 316.996 351.388 316.996 351.388 343.098 316.184 c 128,-1,9
 369.199 280.98 369.199 280.98 425.475 280.98 c 2,10,-1
 1134.38 281.004 l 2,11,12
 1179.57 281.01 1179.57 281.01 1214.1 285.184 c 128,-1,13
 1248.63 289.357 1248.63 289.357 1267.71 295.398 c 128,-1,14
 1286.79 301.439 1286.79 301.439 1298.82 309.619 c 128,-1,15
 1310.85 317.798 1310.85 317.798 1314.58 324.348 c 128,-1,16
 1318.3 330.897 1318.3 330.897 1318.59 337.556 c 0,17,18
 1320.82 390.324 1320.82 390.324 1253.28 437.629 c 2,19,-1
 955.623 646.124 l 2,20,21
 850.58 719.707 850.58 719.707 843.709 805.042 c 0,22,23
 836.88 889.729 836.88 889.729 871.304 954.41 c 128,-1,24
 905.729 1019.09 905.729 1019.09 978.078 1052.7 c 2,25,-1
 1654.45 1366.91 l 1,26,-1
 1654.45 1078.15 l 1,27,-1
 1150.46 837.299 l 1,28,-1
 1419.42 645.579 l 1,29,30
 1507.78 583.899 1507.78 583.899 1548 496.173 c 128,-1,31
 1588.22 408.447 1588.22 408.447 1576.21 302.646 c 0,32,33
 1558.19 144.08 1558.19 144.08 1442.62 67.832 c 0,34,35
 1339.81 -0 1339.81 -0 1175.72 0 c 2,0,-1
EndSplineSet
Substitution2: "'init' Initial Forms in Arabic lookup 13 subtable" uniFB90
Substitution2: "'medi' Medial Forms in Arabic lookup 11 subtable" uniFB91
Substitution2: "'fina' Terminal Forms in Arabic lookup 9 subtable" uniFB8F
EndChar

StartChar: afii57514
Encoding: 1722 1722 93
Width: 1409
VWidth: 2237
GlyphClass: 2
Flags: W
AnchorPoint: "Anchor-10" 643.11 849 basechar 0
AnchorPoint: "Anchor-7" 665.58 -541.02 basechar 0
LayerCount: 2
Fore
SplineSet
1369.9 636.026 m 1,0,-1
 1369.9 94.1309 l 2,1,2
 1369.9 -168.982 1369.9 -168.982 1212.23 -308.052 c 128,-1,3
 1054.57 -447.122 1054.57 -447.122 758.174 -452.36 c 2,4,-1
 729.353 -452.869 l 1,5,-1
 691.601 -452.869 l 2,6,7
 376.132 -452.869 376.132 -452.869 208.052 -313.129 c 128,-1,8
 39.9717 -173.388 39.9717 -173.388 39.9717 97.6299 c 2,9,-1
 39.9717 330.131 l 2,10,11
 39.9717 404.279 39.9717 404.279 77.7871 452.455 c 128,-1,12
 115.604 500.63 115.604 500.63 184.9 500.63 c 2,13,-1
 311.973 500.63 l 1,14,-1
 311.973 98.6299 l 2,15,16
 311.973 -38.7373 311.973 -38.7373 401.448 -105.313 c 128,-1,17
 490.924 -171.889 490.924 -171.889 693.45 -171.889 c 2,18,-1
 728.54 -171.889 l 1,19,-1
 763.703 -171.393 l 2,20,21
 939.832 -168.909 939.832 -168.909 1017.87 -102.661 c 128,-1,22
 1095.9 -36.4131 1095.9 -36.4131 1095.9 102.131 c 2,23,-1
 1095.9 143.131 l 2,24,25
 1095.9 559.411 1095.9 559.411 1095.53 583.178 c 0,26,27
 1095.26 590.597 1095.26 590.597 1093.5 635.885 c 1,28,-1
 1369.9 636.026 l 1,0,-1
EndSplineSet
Substitution2: "'init' Initial Forms in Arabic lookup 13 subtable" uni06BA.init
Substitution2: "'medi' Medial Forms in Arabic lookup 11 subtable" uni06BA.medi
Substitution2: "'fina' Terminal Forms in Arabic lookup 9 subtable" uniFB9F
EndChar

StartChar: uni06F4
Encoding: 1780 1780 100
Width: 1177
VWidth: 2099
GlyphClass: 2
Flags: W
LayerCount: 2
Fore
SplineSet
402.47 1104.75 m 1,0,1
 480.31 1251.95 480.31 1251.95 609.972 1289.73 c 0,2,3
 771.57 1336.69 771.57 1336.69 980.429 1292.36 c 2,4,-1
 1020.84 1283.78 l 1,5,-1
 1020.84 1032.45 l 1,6,-1
 954.467 1053.43 l 2,7,8
 920.717 1064.1 920.717 1064.1 834.147 1075.07 c 0,9,10
 697.606 1092.38 697.606 1092.38 632.761 1026.21 c 0,11,12
 588.672 981.503 588.672 981.503 581.861 944.357 c 128,-1,13
 575.051 907.212 575.051 907.212 599.491 870.562 c 0,14,15
 613.73 847.946 613.73 847.946 662.752 831.956 c 128,-1,16
 711.774 815.966 711.774 815.966 798.297 815.86 c 0,17,18
 848.898 815.813 848.898 815.813 1019.86 841.087 c 2,19,-1
 1077.41 849.595 l 1,20,-1
 1081.28 600.161 l 1,21,-1
 1036.26 594.214 l 2,22,23
 834.757 567.59 834.757 567.59 768.841 567.59 c 0,24,25
 633.303 567.59 633.303 567.59 544.884 600.629 c 1,26,27
 547.453 583.678 547.453 583.678 549.808 564.931 c 0,28,29
 580.1 316.237 580.1 316.237 577.398 58.9639 c 2,30,-1
 576.867 8.5 l 1,31,-1
 308.718 8.5 l 1,32,-1
 308.673 59.4551 l 2,33,34
 308.406 361.068 308.406 361.068 276.607 554.406 c 0,35,36
 226.192 851.734 226.192 851.734 67.3721 1228.7 c 2,37,-1
 37.5439 1299.5 l 1,38,-1
 334.609 1299.5 l 1,39,-1
 346.58 1265.39 l 2,40,41
 380.419 1168.94 380.419 1168.94 402.47 1104.75 c 1,0,1
EndSplineSet
EndChar

StartChar: uni06F5
Encoding: 1781 1781 101
Width: 1177
VWidth: 2099
GlyphClass: 2
Flags: W
LayerCount: 2
Fore
SplineSet
698.284 350.669 m 2,0,1
 716.004 283.474 716.004 283.474 782.317 283.263 c 0,2,3
 875.661 282.965 875.661 282.965 861.661 370.965 c 0,4,5
 854.596 422.479 854.596 422.479 840.144 465.027 c 0,6,7
 749.118 723.519 749.118 723.519 590.721 936.899 c 1,8,9
 428.295 704.985 428.295 704.985 349.513 461.831 c 0,10,11
 329.3 399.444 329.3 399.444 329.266 357.647 c 0,12,13
 329.209 286.468 329.209 286.468 417.314 286.453 c 0,14,15
 471.805 286.453 471.805 286.453 495.828 354.892 c 2,16,-1
 508.848 391.982 l 1,17,-1
 687.39 391.982 l 1,18,-1
 698.284 350.669 l 2,0,1
388.032 4.82129 m 0,19,20
 244.327 4.82031 244.327 4.82031 161.489 82.8418 c 128,-1,21
 78.6514 160.863 78.6514 160.863 71.0537 303.698 c 0,22,23
 61.5293 482.756 61.5293 482.756 171.364 715.359 c 128,-1,24
 281.199 947.962 281.199 947.962 508.666 1242.8 c 0,25,26
 519.663 1257.05 519.663 1257.05 531.626 1266.98 c 0,27,28
 559.034 1289.74 559.034 1289.74 590.804 1290.33 c 0,29,30
 637.896 1291.2 637.896 1291.2 676.487 1243.88 c 0,31,32
 908.911 958.833 908.911 958.833 1017.45 725.735 c 128,-1,33
 1125.99 492.637 1125.99 492.637 1107.28 304.802 c 0,34,35
 1093.36 164.575 1093.36 164.575 1014 86.1963 c 128,-1,36
 934.639 7.81641 934.639 7.81641 800.745 5.28711 c 0,37,38
 665.455 2.54199 665.455 2.54199 591.837 89.4189 c 1,39,40
 519.757 4.82227 519.757 4.82227 388.032 4.82129 c 0,19,20
EndSplineSet
EndChar

StartChar: uni06F6
Encoding: 1782 1782 102
Width: 1177
VWidth: 2099
GlyphClass: 2
Flags: W
LayerCount: 2
Fore
SplineSet
229.797 71.5576 m 6,0,1
 273.403 250.764 273.403 250.764 346.814 403.818 c 4,2,3
 397.146 508.755 397.146 508.755 452.291 578.539 c 5,4,5
 344.98 612.331 344.98 612.331 285.492 690.631 c 132,-1,6
 226.004 768.931 226.004 768.931 219.495 883.162 c 4,7,8
 209.434 1059.76 209.434 1059.76 315.764 1180.14 c 4,9,10
 428.758 1306.94 428.758 1306.94 619.074 1305.8 c 4,11,12
 756.339 1305.8 756.339 1305.8 841.431 1277.77 c 6,13,-1
 876.474 1266.23 l 5,14,-1
 876.474 993.212 l 5,15,-1
 806.866 1020.49 l 6,16,17
 603.83 1100.05 603.83 1100.05 516.255 1012.74 c 5,18,19
 472.014 966.92 472.014 966.92 472.014 898.903 c 4,20,21
 472.014 839.812 472.014 839.812 510.275 811.943 c 132,-1,22
 548.536 784.074 548.536 784.074 649.154 784.074 c 4,23,24
 779.363 784.074 779.363 784.074 870.711 818.453 c 6,25,-1
 939.675 844.408 l 5,26,-1
 939.675 573.162 l 5,27,-1
 908.817 559.896 l 6,28,29
 702.694 471.282 702.694 471.282 618.65 338.934 c 4,30,31
 546.264 224.943 546.264 224.943 493.871 45.2266 c 6,32,-1
 483.164 8.5 l 5,33,-1
 214.453 8.5 l 5,34,-1
 229.797 71.5576 l 6,0,1
EndSplineSet
EndChar

StartChar: uniFB8F
Encoding: 64399 64399 117
Width: 1765
VWidth: 2186
GlyphClass: 2
Flags: W
AnchorPoint: "Anchor-7" 418 -220 basechar 0
AnchorPoint: "Anchor-10" 433 1230.5 basechar 0
LayerCount: 2
Fore
SplineSet
1467.46875 72.7998046875 m 1,0,1
 1364 0 1364 0 1193.3203125 0 c 2,2,-1
 431.624023438 0 l 2,3,4
 187 0 187 0 94.216796875 189.698242188 c 0,5,6
 44.9975535913 291.005035382 44.9975535913 291.005035382 44.9970703125 436.499023438 c 2,7,-1
 44.99609375 730.499023438 l 1,8,-1
 316.99609375 730.499023438 l 1,9,-1
 316.99609375 445.5 l 2,10,11
 317 349 317 349 338.217765079 322.354660746 c 0,12,13
 359 296 359 296 378.540039062 288.3046875 c 0,14,15
 398.054388533 280.979584171 398.054388533 280.979584171 425.474609375 280.98046875 c 2,16,-1
 1151.99121094 281.00390625 l 2,17,18
 1337.00014962 281.009874657 1337.00014962 281.009874657 1338 347 c 4,19,20
 1339 389 1339 389 1265.83300781 440.663085938 c 2,21,-1
 973.111328125 646.201171875 l 2,22,23
 867.020761778 720.693952752 867.020761778 720.693952752 861.233398438 806.004882812 c 0,24,25
 847.992593395 984.099622149 847.992593395 984.099622149 995.673828125 1052.703125 c 2,26,-1
 1672.04980469 1366.90527344 l 1,27,-1
 1672.04980469 1078.1875 l 1,28,-1
 1643.09179688 1064.30859375 l 2,29,30
 1408 952 1408 952 1168.03808594 837.1953125 c 1,31,-1
 1430.63378906 649.568359375 l 1,32,33
 1598 548 1598 548 1595.56445312 332.709960938 c 1,34,35
 1635.70294371 281.379882812 1635.70294371 281.379882812 1721.74023438 281.379882812 c 2,36,-1
 1825.76953125 281.379882812 l 1,37,-1
 1825.76953125 0.5 l 1,38,-1
 1712.10449219 0.5 l 2,39,40
 1550 0 1550 0 1467.46875 72.7998046875 c 1,0,1
EndSplineSet
EndChar

StartChar: uniFB9F
Encoding: 64415 64415 125
Width: 1547
VWidth: 2237
GlyphClass: 2
Flags: W
AnchorPoint: "Anchor-10" 453.9 742 basechar 0
AnchorPoint: "Anchor-7" 419.88 -537.5 basechar 0
LayerCount: 2
Fore
SplineSet
1362.58 20.917 m 1,0,1
 1342 -210 1342 -210 1191.8 -330.092 c 0,2,3
 1042.00841316 -449.993265651 1042.00841316 -449.993265651 779.734 -452.366 c 2,4,-1
 724.134 -452.869 l 1,5,-1
 680.601 -452.869 l 2,6,7
 370 -453 370 -453 205.172 -312.957 c 0,8,9
 39.9717 -172.976020251 39.9717 -172.976020251 39.9717 97.6299 c 2,10,-1
 39.9717 330.131 l 2,11,12
 40 404 40 404 77.7871 452.455 c 0,13,14
 115.70874914 500.63 115.70874914 500.63 184.9 500.63 c 2,15,-1
 311.973 500.63 l 1,16,-1
 311.973 98.6299 l 2,17,18
 312 -39 312 -39 398.854 -105.561 c 0,19,20
 485.854404702 -171.889 485.854404702 -171.889 682.45 -171.889 c 2,21,-1
 723.695 -171.889 l 1,22,-1
 786.014 -171.39 l 2,23,24
 950 -170 950 -170 1023.02 -104.439 c 0,25,26
 1095.9 -39.0896670321 1095.9 -39.0896670321 1095.9 102.131 c 2,27,-1
 1095.9 143.131 l 2,28,29
 1096 559 1096 559 1095.53 583.178 c 0,30,31
 1095 591 1095 591 1093.5 635.885 c 1,32,-1
 1369.9 636.026 l 1,33,-1
 1369.9 418 l 2,34,35
 1370 342 1370 342 1400.04 311.721 c 0,36,37
 1429.62928643 281.380129894 1429.62928643 281.380129894 1505.28 281.38 c 2,38,-1
 1573.53027344 281.379882812 l 5,39,-1
 1573.53027344 0.5 l 5,40,-1
 1446.43 0.5 l 2,41,42
 1403 0 1403 0 1362.58 20.917 c 1,0,1
EndSplineSet
EndChar

StartChar: uniFBE8
Encoding: 64488 64488 128
Width: 629
VWidth: 2237
GlyphClass: 2
Flags: W
AnchorPoint: "Anchor-10" 321.93 1100.5 basechar 0
AnchorPoint: "Anchor-7" 353.93 -60.5 basechar 0
LayerCount: 2
Fore
SplineSet
185.9 0 m 2,0,-1
 -51.4004 0 l 5,1,-1
 -51.4004 280.98 l 5,2,-1
 173.05 280.98 l 2,3,4
 223.835 280.98 223.835 280.98 245.182 306.868 c 128,-1,5
 266.528 332.756 266.528 332.756 266.528 405.499 c 2,6,-1
 266.528 730.499 l 1,7,-1
 538.528 730.499 l 1,8,-1
 538.528 410.499 l 2,9,10
 538.528 215.467 538.528 215.467 448.179 107.733 c 128,-1,11
 357.829 0 357.829 0 185.9 0 c 2,0,-1
EndSplineSet
EndChar

StartChar: uniFBE9
Encoding: 64489 64489 129
Width: 739
VWidth: 2237
GlyphClass: 2
Flags: W
AnchorPoint: "Anchor-10" 310.93 1020.5 basechar 0
AnchorPoint: "Anchor-7" 292.93 -64.5 basechar 0
LayerCount: 2
Fore
SplineSet
425.196 85.2725 m 1,0,1
 328 0 328 0 179.9 0 c 2,2,-1
 -21.400390625 0 l 5,3,-1
 -21.400390625 280.98046875 l 5,4,-1
 133.05 280.98 l 2,5,6
 221 281 221 281 254.12 308.521 c 0,7,8
 287.489938877 336.409459567 287.489938877 336.409459567 287.49 399.31 c 2,9,-1
 287.490234375 640.5 l 1,10,-1
 564.370117188 640.5 l 1,11,-1
 564.37 399.31 l 2,12,13
 564 337 564 337 599.93 308.977 c 0,14,15
 635.026800839 280.978619701 635.026800839 280.978619701 728.811 280.98 c 2,16,-1
 760.66015625 280.98046875 l 1,17,-1
 760.66015625 0 l 1,18,-1
 669.96 0 l 2,19,20
 523 0 523 0 425.196 85.2725 c 1,0,1
EndSplineSet
EndChar

StartChar: uniFE73
Encoding: 65139 65139 137
Width: 573
VWidth: 2186
GlyphClass: 2
Flags: W
AnchorPoint: "Anchor-10" 210.79 1279.5 basechar 0
AnchorPoint: "Anchor-7" 210.79 -111.5 basechar 0
LayerCount: 2
Fore
SplineSet
296.23 350.74 m 2,0,1
 296.23 286.506 296.23 286.506 352.468 230.268 c 0,2,3
 403.354 179.38 403.354 179.38 514.67 179.38 c 2,4,-1
 581.92 179.38 l 1,5,-1
 581.92 8.5 l 1,6,-1
 455.82 8.5 l 2,7,8
 309.266 8.5 309.266 8.5 214.633 103.133 c 0,9,10
 125.35 192.415 125.35 192.415 125.35 337.9 c 2,11,-1
 125.35 370.91 l 1,12,-1
 296.23 370.91 l 1,13,-1
 296.23 350.74 l 2,0,1
EndSplineSet
EndChar

StartChar: uniFE8E
Encoding: 65166 65166 163
Width: 584
VWidth: 2237
GlyphClass: 2
Flags: W
AnchorPoint: "Anchor-10" 269.95 1479 basechar 0
AnchorPoint: "Anchor-7" 284.95 -206.5 basechar 0
LayerCount: 2
Fore
SplineSet
526.295 0 m 2,0,1
 336.623 0 336.623 0 238.145 122.263 c 128,-1,2
 139.667 244.524 139.667 244.524 139.667 467.499 c 2,3,-1
 139.667 1302.5 l 1,4,-1
 411.667 1302.5 l 1,5,-1
 411.667 444.499 l 2,6,7
 411.667 350.95 411.667 350.95 437.73 315.965 c 128,-1,8
 463.794 280.98 463.794 280.98 520.146 280.98 c 2,9,-1
 646.596 280.98 l 1,10,-1
 646.596 0 l 1,11,-1
 526.295 0 l 2,0,1
EndSplineSet
EndChar

StartChar: uniFEA2
Encoding: 65186 65186 183
Width: 1464
VWidth: 2237
GlyphClass: 2
Flags: W
AnchorPoint: "Anchor-10" 570.5 1333.5 basechar 0
AnchorPoint: "Anchor-7" 293.84 -694.64 basechar 0
LayerCount: 2
Fore
SplineSet
961.062 485.469 m 1,0,1
 332.362 246.488 332.362 246.488 306.83 -103.664 c 0,2,3
 298.024 -227.51 298.024 -227.51 384.372 -293.923 c 128,-1,4
 470.72 -360.335 470.72 -360.335 678.342 -371.999 c 1,5,-1
 1316.46 -371.759 l 1,6,-1
 1316.46 -637.849 l 1,7,-1
 698.84 -637 l 2,8,9
 643.59 -636.924 643.59 -636.924 591.034 -633.041 c 0,10,11
 306.945 -612.037 306.945 -612.037 164.304 -477.735 c 128,-1,12
 21.6621 -343.432 21.6621 -343.432 40.1064 -96.1621 c 0,13,14
 61.1074 178.894 61.1074 178.894 269.725 381.428 c 128,-1,15
 478.342 583.963 478.342 583.963 863.002 714.307 c 1,16,17
 807.569 731.605 807.569 731.605 732.048 753.678 c 0,18,19
 597.932 793.217 597.932 793.217 556.505 786.759 c 0,20,21
 481.598 776.011 481.598 776.011 435.678 657.139 c 2,22,-1
 415.678 605.365 l 1,23,-1
 201.391 691.401 l 1,24,-1
 219.173 739.034 l 2,25,26
 247.21 814.137 247.21 814.137 273.491 862.165 c 0,27,28
 317.055 943.903 317.055 943.903 384.348 990.136 c 128,-1,29
 451.641 1036.37 451.641 1036.37 537.122 1041.12 c 0,30,31
 600.073 1044.62 600.073 1044.62 704.789 1016.34 c 128,-1,32
 809.47 988.078 809.47 988.078 974.887 925.939 c 2,33,-1
 1324.2 794.72 l 1,34,-1
 1324.1 574.116 l 1,35,-1
 1285.83 564.266 l 2,36,37
 1237.19 551.747 1237.19 551.747 1198.4 541.337 c 1,38,39
 1198.27 533.907 1198.27 533.907 1198.27 526.942 c 0,40,41
 1198.27 392.135 1198.27 392.135 1238.64 336.757 c 128,-1,42
 1279.01 281.38 1279.01 281.38 1363.13 281.38 c 2,43,-1
 1535.94 281.38 l 5,44,-1
 1535.94 0.5 l 5,45,-1
 1387.51 0.5 l 2,46,47
 1188.85 0.5 1188.85 0.5 1080.44 126.811 c 128,-1,48
 972.022 253.122 972.022 253.122 961.062 485.469 c 1,0,1
EndSplineSet
EndChar

StartChar: uniFEA3
Encoding: 65187 65187 184
Width: 1143
VWidth: 2237
GlyphClass: 2
Flags: W
AnchorPoint: "Anchor-10" 400 1134.73 basechar 0
AnchorPoint: "Anchor-7" 430 -236.5 basechar 0
LayerCount: 2
Fore
SplineSet
-30.4004 280.956 m 1,0,-1
 719.377 281.333 l 1,1,2
 634 360 634 360 554.635 436.724 c 0,3,4
 498 492 498 492 456.453 514.71 c 0,5,6
 415 538 415 538 396.424 535.098 c 0,7,8
 368 531 368 531 324.814 498.721 c 0,9,10
 280.521156296 465.642391819 280.521156296 465.642391819 228.813 404.711 c 2,11,-1
 195.848 365.866 l 1,12,-1
 -4.88965 535.871 l 1,13,-1
 22.791 574.147 l 2,14,15
 69 638 69 638 155.55 720.705 c 0,16,17
 260 822 260 822 412.635742188 817.438476562 c 5,18,19
 470 820 470 820 570.138 761.289 c 0,20,21
 654.348596694 710.790959205 654.348596694 710.790959205 766.027 605.555 c 2,22,-1
 1095.7 294.9 l 1,23,24
 1087 175 1087 175 1028.79 99.165 c 0,25,26
 961 11 961 11 834.307 0 c 1,27,-1
 -30.4004 0 l 1,28,-1
 -30.4004 280.956 l 1,0,-1
EndSplineSet
EndChar

StartChar: uniFEA4
Encoding: 65188 65188 185
Width: 1166
VWidth: 2237
GlyphClass: 2
Flags: W
AnchorPoint: "Anchor-10" 393 1128.69 basechar 0
AnchorPoint: "Anchor-7" 421 -236.5 basechar 0
LayerCount: 2
Fore
SplineSet
754.229 0 m 1,0,-1
 -30.4004 0 l 1,1,-1
 -30.4004 280.956 l 1,2,-1
 719.377 281.333 l 1,3,4
 634 360 634 360 554.636 436.724 c 0,5,6
 498 492 498 492 456.454 514.71 c 4,7,8
 415 538 415 538 396.424 535.098 c 0,9,10
 368 531 368 531 324.815 498.721 c 0,11,12
 280.528188862 465.647651895 280.528188862 465.647651895 228.814 404.711 c 2,13,-1
 195.848 365.866 l 1,14,-1
 -4.8877 535.871 l 1,15,-1
 22.792 574.147 l 2,16,17
 69 638 69 638 155.56 720.714 c 0,18,19
 260 822 260 822 412.63671875 817.438476562 c 5,20,21
 470 820 470 820 570.138 761.289 c 0,22,23
 654.357190829 710.785805614 654.357190829 710.785805614 766.029 605.553 c 2,24,-1
 1079.14 310.496 l 1,25,-1
 1098.74 289.75 l 1,26,-1
 1206.77 289.188 l 1,27,-1
 1206.77 0 l 1,28,-1
 1153.68 0 l 2,29,30
 1033 0 1033 0 943.944 61.2021 c 1,31,32
 865 -4 865 -4 754.229 0 c 1,0,-1
EndSplineSet
EndChar

StartChar: uniFEAA
Encoding: 65194 65194 191
Width: 1084
VWidth: 2237
GlyphClass: 2
Flags: W
AnchorPoint: "Anchor-10" 378.99 1206.65 basechar 0
AnchorPoint: "Anchor-7" 402.5 -231 basechar 0
LayerCount: 2
Fore
SplineSet
499.58 447.591 m 2,0,-1
 235.076 755.413 l 1,1,-1
 431.646 950.397 l 1,2,-1
 937.854 362.27 l 2,3,4
 1005.21440606 283.750073542 1005.21440606 283.750073542 1072.19 281.682 c 2,5,-1
 1104.65039062 280.6796875 l 5,6,-1
 1104.65039062 0.5 l 5,7,-1
 1047.44 0.5 l 2,8,9
 914 0 914 0 799.252 96.5732 c 1,10,11
 708.063636105 12.0589785326 708.063636105 12.0589785326 510.123 0.0957031 c 2,12,-1
 508.588 0.00292969 l 1,13,-1
 45.75 0.00488281 l 1,14,-1
 45.75 281.058 l 1,15,-1
 333.909 280.975 l 1,16,17
 518 280 518 280 561.847 298.618 c 0,18,19
 610 319 610 319 499.58 447.591 c 2,0,-1
EndSplineSet
EndChar

StartChar: uniFEAE
Encoding: 65198 65198 195
Width: 877
VWidth: 2237
GlyphClass: 2
Flags: W
AnchorPoint: "Anchor-10" 414.025 869 basechar 0
AnchorPoint: "Anchor-7" 342.95 -596.55 basechar 0
LayerCount: 2
Fore
SplineSet
431.659 44.9912 m 2,0,-1
 431.66 587.7 l 1,1,-1
 708.659 589.283 l 1,2,-1
 708.659 356.054 l 1,3,4
 712.001031564 280.97682639 712.001031564 280.97682639 872.865 280.98 c 2,5,-1
 896.625 280.98046875 l 5,6,-1
 896.625 0 l 5,7,-1
 872.015 0 l 2,8,9
 772 0 772 0 709.193 17.8652 c 1,10,11
 702 -208 702 -208 566.919 -326.797 c 0,12,13
 431.812864992 -445.163949624 431.812864992 -445.163949624 187.968 -445.042 c 2,14,-1
 40.001 -444.968 l 1,15,-1
 40.0059 -164.938 l 1,16,-1
 184.31 -165.041 l 1,17,18
 318 -167 318 -167 374.736 -116.837 c 0,19,20
 432 -67 432 -67 431.659 44.9912 c 2,0,-1
EndSplineSet
PairPos2: "'kern' Horizontal Kerning lookup 15-1" uniFEDF dx=-70 dy=0 dh=-70 dv=0 dx=0 dy=0 dh=0 dv=0
PairPos2: "'kern' Horizontal Kerning lookup 15-1" uniFBAC dx=-70 dy=0 dh=-70 dv=0 dx=0 dy=0 dh=0 dv=0
PairPos2: "'kern' Horizontal Kerning lookup 15-1" uniFB90 dx=-70 dy=0 dh=-70 dv=0 dx=0 dy=0 dh=0 dv=0
PairPos2: "'kern' Horizontal Kerning lookup 15-1" uni06A9 dx=-70 dy=0 dh=-70 dv=0 dx=0 dy=0 dh=0 dv=0
PairPos2: "'kern' Horizontal Kerning lookup 15-1" uni0649 dx=-70 dy=0 dh=-70 dv=0 dx=0 dy=0 dh=0 dv=0
PairPos2: "'kern' Horizontal Kerning lookup 15-1" uni0647 dx=-70 dy=0 dh=-70 dv=0 dx=0 dy=0 dh=0 dv=0
PairPos2: "'kern' Horizontal Kerning lookup 15-1" uniFEE7 dx=-70 dy=0 dh=-70 dv=0 dx=0 dy=0 dh=0 dv=0
PairPos2: "'kern' Horizontal Kerning lookup 15-1" uniFEE3 dx=-70 dy=0 dh=-70 dv=0 dx=0 dy=0 dh=0 dv=0
PairPos2: "'kern' Horizontal Kerning lookup 15-1" uni0645 dx=-70 dy=0 dh=-70 dv=0 dx=0 dy=0 dh=0 dv=0
PairPos2: "'kern' Horizontal Kerning lookup 15-1" uniFEDB dx=-70 dy=0 dh=-70 dv=0 dx=0 dy=0 dh=0 dv=0
PairPos2: "'kern' Horizontal Kerning lookup 15-1" uniFED7 dx=-70 dy=0 dh=-70 dv=0 dx=0 dy=0 dh=0 dv=0
PairPos2: "'kern' Horizontal Kerning lookup 15-1" uniFED3 dx=-70 dy=0 dh=-70 dv=0 dx=0 dy=0 dh=0 dv=0
PairPos2: "'kern' Horizontal Kerning lookup 15-1" uni0641 dx=-70 dy=0 dh=-70 dv=0 dx=0 dy=0 dh=0 dv=0
PairPos2: "'kern' Horizontal Kerning lookup 15-1" uniFECF dx=-70 dy=0 dh=-70 dv=0 dx=0 dy=0 dh=0 dv=0
PairPos2: "'kern' Horizontal Kerning lookup 15-1" uniFECB dx=-70 dy=0 dh=-70 dv=0 dx=0 dy=0 dh=0 dv=0
PairPos2: "'kern' Horizontal Kerning lookup 15-1" uniFEC7 dx=-70 dy=0 dh=-70 dv=0 dx=0 dy=0 dh=0 dv=0
PairPos2: "'kern' Horizontal Kerning lookup 15-1" uni0638 dx=-70 dy=0 dh=-70 dv=0 dx=0 dy=0 dh=0 dv=0
PairPos2: "'kern' Horizontal Kerning lookup 15-1" uniFEC3 dx=-70 dy=0 dh=-70 dv=0 dx=0 dy=0 dh=0 dv=0
PairPos2: "'kern' Horizontal Kerning lookup 15-1" uni0637 dx=-70 dy=0 dh=-70 dv=0 dx=0 dy=0 dh=0 dv=0
PairPos2: "'kern' Horizontal Kerning lookup 15-1" uniFEBF dx=-70 dy=0 dh=-70 dv=0 dx=0 dy=0 dh=0 dv=0
PairPos2: "'kern' Horizontal Kerning lookup 15-1" uni0636 dx=-70 dy=0 dh=-70 dv=0 dx=0 dy=0 dh=0 dv=0
PairPos2: "'kern' Horizontal Kerning lookup 15-1" uniFEBB dx=-70 dy=0 dh=-70 dv=0 dx=0 dy=0 dh=0 dv=0
PairPos2: "'kern' Horizontal Kerning lookup 15-1" uni0635 dx=-70 dy=0 dh=-70 dv=0 dx=0 dy=0 dh=0 dv=0
PairPos2: "'kern' Horizontal Kerning lookup 15-1" uniFEB7 dx=-70 dy=0 dh=-70 dv=0 dx=0 dy=0 dh=0 dv=0
PairPos2: "'kern' Horizontal Kerning lookup 15-1" uni0634 dx=-70 dy=0 dh=-70 dv=0 dx=0 dy=0 dh=0 dv=0
PairPos2: "'kern' Horizontal Kerning lookup 15-1" uniFEB3 dx=-70 dy=0 dh=-70 dv=0 dx=0 dy=0 dh=0 dv=0
PairPos2: "'kern' Horizontal Kerning lookup 15-1" uni0633 dx=-70 dy=0 dh=-70 dv=0 dx=0 dy=0 dh=0 dv=0
PairPos2: "'kern' Horizontal Kerning lookup 15-1" uni0630 dx=-70 dy=0 dh=-70 dv=0 dx=0 dy=0 dh=0 dv=0
PairPos2: "'kern' Horizontal Kerning lookup 15-1" uni062F dx=-70 dy=0 dh=-70 dv=0 dx=0 dy=0 dh=0 dv=0
PairPos2: "'kern' Horizontal Kerning lookup 15-1" uniFEA7 dx=-70 dy=0 dh=-70 dv=0 dx=0 dy=0 dh=0 dv=0
PairPos2: "'kern' Horizontal Kerning lookup 15-1" uniFEA3 dx=-70 dy=0 dh=-70 dv=0 dx=0 dy=0 dh=0 dv=0
PairPos2: "'kern' Horizontal Kerning lookup 15-1" uniFE9F dx=-70 dy=0 dh=-70 dv=0 dx=0 dy=0 dh=0 dv=0
PairPos2: "'kern' Horizontal Kerning lookup 15-1" uniFE9B dx=-70 dy=0 dh=-70 dv=0 dx=0 dy=0 dh=0 dv=0
PairPos2: "'kern' Horizontal Kerning lookup 15-1" uni062B dx=-70 dy=0 dh=-70 dv=0 dx=0 dy=0 dh=0 dv=0
PairPos2: "'kern' Horizontal Kerning lookup 15-1" uniFE97 dx=-70 dy=0 dh=-70 dv=0 dx=0 dy=0 dh=0 dv=0
PairPos2: "'kern' Horizontal Kerning lookup 15-1" uni062A dx=-70 dy=0 dh=-70 dv=0 dx=0 dy=0 dh=0 dv=0
PairPos2: "'kern' Horizontal Kerning lookup 15-1" uni0629 dx=-70 dy=0 dh=-70 dv=0 dx=0 dy=0 dh=0 dv=0
PairPos2: "'kern' Horizontal Kerning lookup 15-1" uni0628 dx=-70 dy=0 dh=-70 dv=0 dx=0 dy=0 dh=0 dv=0
PairPos2: "'kern' Horizontal Kerning lookup 15-1" uni0627 dx=-70 dy=0 dh=-70 dv=0 dx=0 dy=0 dh=0 dv=0
PairPos2: "'kern' Horizontal Kerning lookup 15-1" uni0622 dx=-70 dy=0 dh=-70 dv=0 dx=0 dy=0 dh=0 dv=0
PairPos2: "'kern' Horizontal Kerning lookup 15-1" uniFB94 dx=-70 dy=0 dh=-70 dv=0 dx=0 dy=0 dh=0 dv=0
PairPos2: "'kern' Horizontal Kerning lookup 15-1" afii57509 dx=-70 dy=0 dh=-70 dv=0 dx=0 dy=0 dh=0 dv=0
PairPos2: "'kern' Horizontal Kerning lookup 15-1" uniFB56 dx=-70 dy=0 dh=-70 dv=0 dx=0 dy=0 dh=0 dv=0
PairPos2: "'kern' Horizontal Kerning lookup 15-1" afii57506 dx=-70 dy=0 dh=-70 dv=0 dx=0 dy=0 dh=0 dv=0
EndChar

StartChar: uniFEB2
Encoding: 65202 65202 199
Width: 2461
VWidth: 2237
GlyphClass: 2
Flags: W
AnchorPoint: "Anchor-10" 517 937.5 basechar 0
AnchorPoint: "Anchor-7" 213 -496.5 basechar 0
LayerCount: 2
Fore
SplineSet
1202.93 26.0996 m 1,0,1
 1159 -369 1159 -369 643.681 -384.869 c 1,2,-1
 619.601 -384.869 l 2,3,4
 340 -385 340 -385 189.98635 -262.48888384 c 128,-1,5
 39.9727 -139.977704994 39.9727 -139.977704994 39.9727 97.6299 c 2,6,-1
 39.9727 330.131 l 2,7,8
 40 404 40 404 77.7881 452.455 c 0,9,10
 115.708756762 500.63 115.708756762 500.63 184.901 500.63 c 2,11,-1
 311.973 500.63 l 1,12,-1
 311.973 98.6299 l 2,13,14
 312 -4 312 -4 382.921696031 -53.9445 c 128,-1,15
 453.842381122 -103.889 453.842381122 -103.889 621.451 -103.889 c 2,16,-1
 642.357 -103.889 l 1,17,-1
 665.337 -103.399 l 2,18,19
 812 -100 812 -100 874.4505 -50.0398477531 c 128,-1,20
 936.901 -0.0792003921304 936.901 -0.0792003921304 936.901 102.131 c 2,21,-1
 936.901 143.131 l 2,22,23
 936.999300532 570.955768731 936.999300532 570.955768731 936.528 583.191 c 2,24,-1
 934.499 635.865 l 1,25,-1
 1218.33 636.115 l 1,26,-1
 1218.99 371.97 l 2,27,28
 1219 346 1219 346 1226.46 327.677 c 0,29,30
 1248 274 1248 274 1357.64 272.188 c 0,31,32
 1468.66826266 269.966622543 1468.66826266 269.966622543 1491.22 308.353 c 0,33,34
 1501.19820974 325.337382165 1501.19820974 325.337382165 1501.13 351.562 c 2,35,-1
 1500.39 636.07 l 1,36,-1
 1768.28 636.07 l 1,37,-1
 1768.99 373.887 l 2,38,39
 1769 315 1769 315 1792.27527387 293.209638207 c 128,-1,40
 1815.55210021 271.4192964 1815.55210021 271.4192964 1880.78 272.259 c 2,41,-1
 1918.61 272.746 l 2,42,43
 1960 273 1960 273 1979.82997216 301.263181539 c 128,-1,44
 1999.6599443 329.515513299 1999.6599443 329.515513299 1999.66 411.499 c 2,45,-1
 1999.66015625 641.499023438 l 1,46,-1
 2271.66015625 641.499023438 l 1,47,-1
 2271.66 450.499 l 2,48,49
 2272 356 2272 356 2304.33467768 318.69 c 128,-1,50
 2336.67055582 281.380120274 2336.67055582 281.380120274 2411.46 281.38 c 2,51,-1
 2484.33007812 281.379882812 l 5,52,-1
 2484.33007812 0.5 l 5,53,-1
 2382.92 0.5 l 2,54,55
 2222 0 2222 0 2138.11 84.79 c 1,56,57
 2047 0 2047 0 1915.04 0 c 2,58,-1
 1828.3 0 l 1,59,60
 1702 -1 1702 -1 1628.16 85.1934 c 1,61,62
 1543 -2 1543 -2 1350.48 0.00292969 c 0,63,64
 1262 1 1262 1 1202.93 26.0996 c 1,0,1
EndSplineSet
EndChar

StartChar: uniFEB3
Encoding: 65203 65203 200
Width: 1635
VWidth: 2237
GlyphClass: 2
Flags: W
AnchorPoint: "Anchor-10" 695.5 1009.5 basechar 0
AnchorPoint: "Anchor-7" 831.5 -218 basechar 0
LayerCount: 2
Fore
SplineSet
1171.71 276.723 m 2,0,1
 1226.05755058 278.069563983 1226.05755058 278.069563983 1248.87 305.644 c 0,2,3
 1271.84 332.810766969 1271.84 332.810766969 1271.84 406.499 c 2,4,-1
 1271.84 730.499 l 1,5,-1
 1543.84 730.499 l 1,6,-1
 1543.84 417.499 l 2,7,8
 1544 219 1544 219 1452.54 109.528 c 128,-1,9
 1361 0 1361 0 1187.22 0 c 2,10,-1
 1116.22 0 l 2,11,12
 990 0 990 0 918.819 65.3516 c 0,13,14
 909 74 909 74 899.713 84.833 c 1,15,16
 815 -1 815 -1 622.834 0.000976562 c 0,17,18
 451 1 451 1 366.052 91.3496 c 1,19,20
 344 71 344 71 318.464 54.7744 c 0,21,22
 236 0 236 0 117.7 0 c 2,23,-1
 -19.400390625 0 l 5,24,-1
 -19.400390625 280.98046875 l 5,25,-1
 58.8486 280.98 l 2,26,27
 161 281 161 281 201.639 314.918 c 0,28,29
 242.4374921 349.369431028 242.4374921 349.369431028 242.623 425.185 c 2,30,-1
 243.139 636.07 l 1,31,-1
 490.479 636.07 l 1,32,-1
 491.169 425.013 l 2,33,34
 491 341 491 341 523.016 307.062 c 128,-1,35
 555 273 555 273 629.824 272.188 c 0,36,37
 688 271 688 271 720.831 281.805 c 0,38,39
 753 292 753 292 763.403 308.354 c 0,40,41
 773.379828933 325.658813422 773.379828933 325.658813422 773.312 351.562 c 2,42,-1
 772.567 636.07 l 1,43,-1
 1040.46 636.07 l 1,44,-1
 1041.17 373.888 l 2,45,46
 1041 317 1041 317 1064.7 295.974 c 0,47,48
 1088.37956114 274.658329809 1088.37956114 274.658329809 1152.66 276.251 c 2,49,-1
 1171.71 276.723 l 2,0,1
EndSplineSet
EndChar

StartChar: uniFEB4
Encoding: 65204 65204 201
Width: 1715
VWidth: 2181
GlyphClass: 2
Flags: W
AnchorPoint: "Anchor-10" 720.5 1004.5 basechar 0
AnchorPoint: "Anchor-7" 784.5 -226 basechar 0
LayerCount: 2
Fore
SplineSet
1620.66015625 0 m 2,0,1
 1484 0 1484 0 1405.60742188 82.0087890625 c 1,2,3
 1336 12 1336 12 1168.17871094 1.5537109375 c 0,4,5
 1000 -9 1000 -9 909.594726562 89.896484375 c 1,6,7
 826 2 826 2 639.75 3.5146484375 c 0,8,9
 454 5 454 5 366.649414062 96.78515625 c 1,10,11
 348 82 348 82 321.395507812 64.56640625 c 0,12,13
 224 0 224 0 72.20703125 0 c 2,14,-1
 -20.2744140625 0 l 1,15,-1
 -20.2744140625 280.978515625 l 1,16,-1
 36.451171875 280.978515625 l 1,17,18
 197.573834722 281.991037736 197.573834722 281.991037736 230.15625 341.7734375 c 0,19,20
 238.724788743 356.526160123 238.724788743 356.526160123 238.466796875 380.450195312 c 2,21,-1
 235.685546875 638.360351562 l 1,22,-1
 496.421875 638.360351562 l 1,23,-1
 495.979492188 418.03125 l 2,24,25
 496 321 496 321 553.088867188 293.872070312 c 0,26,27
 611 266 611 266 700.443359375 281.219726562 c 0,28,29
 745 289 745 289 756.822503726 305.87753915 c 0,30,31
 775.929143904 332.899789229 775.929143904 332.899789229 775.883789062 373.038085938 c 2,32,-1
 775.583984375 638.360351562 l 1,33,-1
 1044.23535156 638.360351562 l 1,34,-1
 1045.70214844 358.610351562 l 2,35,36
 1046 316 1046 316 1071.16601562 296.866210938 c 0,37,38
 1097 278 1097 278 1160.98828125 277.577636719 c 128,-1,39
 1225 277 1225 277 1246.6171875 299.885742188 c 0,40,41
 1267.79022678 321.783051033 1267.79022678 321.783051033 1267.98046875 384.864257812 c 2,42,-1
 1268.75292969 641 l 1,43,-1
 1527.03710938 641 l 1,44,-1
 1528.23925781 416.883789062 l 2,45,46
 1529.00067746 281.879882811 1529.00067746 281.879882811 1665.45019531 281.879882812 c 2,47,-1
 1737.63964844 281.879882812 l 5,48,-1
 1737.63964844 0 l 5,49,-1
 1620.66015625 0 l 2,0,1
EndSplineSet
EndChar

StartChar: uniFEBA
Encoding: 65210 65210 207
Width: 2420
VWidth: 2237
GlyphClass: 2
Flags: W
AnchorPoint: "Anchor-10" 578 1037.5 basechar 0
AnchorPoint: "Anchor-7" 217 -505.5 basechar 0
LayerCount: 2
Fore
SplineSet
1506.97 292.069 m 1,0,-1
 1715.41 292.069 l 2,1,2
 1834.39 292.069 1834.39 292.069 1903.75 321.477 c 0,3,4
 1980.84 354.174 1980.84 354.174 1975.65 455.561 c 0,5,6
 1970.42 554.979 1970.42 554.979 1864.93 553.243 c 0,7,8
 1793.91 551.698 1793.91 551.698 1686.67 460.646 c 0,9,10
 1585.33 374.616 1585.33 374.616 1506.97 292.069 c 1,0,-1
2120.47 114.626 m 1,11,12
 2092 89 2092 89 2058.02 66.1357 c 0,13,14
 1958.6322844 -0.245598148814 1958.6322844 -0.245598148814 1819.79 0 c 2,15,-1
 1441.62 0.668945 l 2,16,17
 1293 1 1293 1 1205 46.2178 c 1,18,19
 1189 -159 1189 -159 1048.81 -268.001 c 0,20,21
 908.277747941 -376.784999305 908.277747941 -376.784999305 660.832 -384.345 c 2,22,-1
 643.681 -384.869 l 1,23,-1
 619.601 -384.869 l 2,24,25
 340 -385 340 -385 190.181 -262.303 c 0,26,27
 39.9727 -139.977767681 39.9727 -139.977767681 39.9727 97.6299 c 2,28,-1
 39.9727 330.131 l 2,29,30
 40 404 40 404 77.7881 452.455 c 0,31,32
 115.708756762 500.63 115.708756762 500.63 184.901 500.63 c 2,33,-1
 311.974 500.63 l 1,34,-1
 311.974 98.6299 l 2,35,36
 312 -4 312 -4 383.14 -53.7744 c 0,37,38
 453.843397391 -103.889 453.843397391 -103.889 621.451 -103.889 c 2,39,-1
 642.358 -103.889 l 1,40,-1
 665.337 -103.399 l 2,41,42
 812 -100 812 -100 874.423 -50.375 c 0,43,44
 936.901 -0.0796958147563 936.901 -0.0796958147563 936.901 102.131 c 2,45,-1
 936.901 143.131 l 2,46,47
 936.999303599 570.969114254 936.999303599 570.969114254 936.528 583.191 c 2,48,-1
 934.496 635.885 l 1,49,-1
 1210.9 636.026 l 1,50,-1
 1210.9 471.5 l 1,51,52
 1219 413 1219 413 1250.09 384.559 c 1,53,54
 1323 476 1323 476 1431.64 584.632 c 0,55,56
 1564 717 1564 717 1685.19 776.17 c 0,57,58
 1843 853 1843 853 2023.93 803.399 c 0,59,60
 2138 772 2138 772 2195.13 673.995 c 0,61,62
 2253 576 2253 576 2254.71 424.473 c 0,63,64
 2255 389 2255 389 2250.35 355.623 c 1,65,66
 2310.69089778 281.380315498 2310.69089778 281.380315498 2405.78 281.38 c 2,67,-1
 2441.09960938 281.379882812 l 5,68,-1
 2441.09960938 0.5 l 5,69,-1
 2385.93 0.5 l 2,70,71
 2227 0 2227 0 2120.47 114.626 c 1,11,12
EndSplineSet
EndChar

StartChar: uniFEBB
Encoding: 65211 65211 208
Width: 1570
VWidth: 2237
GlyphClass: 2
Flags: W
AnchorPoint: "Anchor-10" 548.3 1125.8 basechar 0
AnchorPoint: "Anchor-7" 545.3 -217 basechar 0
LayerCount: 2
Fore
SplineSet
690.164 292.071 m 1,0,-1
 902.638 292.071 l 2,1,2
 1021.61 292.071 1021.61 292.071 1090.96 321.479 c 0,3,4
 1168.07 354.176 1168.07 354.176 1162.88 455.483 c 0,5,6
 1157.66 554.98 1157.66 554.98 1052.15 553.245 c 0,7,8
 981.142 551.7 981.142 551.7 873.892 460.649 c 0,9,10
 756.905 361.328 756.905 361.328 690.164 292.071 c 1,0,-1
618.866 584.635 m 0,11,12
 752 717 752 717 872.408 776.171 c 0,13,14
 1030 853 1030 853 1211.14 803.404 c 0,15,16
 1325 772 1325 772 1382.36 674.002 c 0,17,18
 1440 576 1440 576 1441.93 424.417 c 0,19,20
 1443 313 1443 313 1392.89 222.066 c 0,21,22
 1343 131 1343 131 1245.25 66.1475 c 0,23,24
 1145.63516871 -0.243150408234 1145.63516871 -0.243150408234 1007.61 0.000976562 c 2,25,-1
 628.848 0.670898 l 2,26,27
 551 1 551 1 447.818 54.8877 c 0,28,29
 388 86 388 86 345.783 132.791 c 1,30,31
 227 0 227 0 60.9902 0 c 2,32,-1
 -19.400390625 0 l 5,33,-1
 -19.400390625 280.98046875 l 5,34,-1
 55.1387 280.98 l 2,35,36
 127 281 127 281 157.493 316.387 c 0,37,38
 188.26 352.30351657 188.26 352.30351657 188.26 442.06 c 2,39,-1
 188.26 643.04 l 1,40,-1
 449.676 643.04 l 1,41,-1
 451.138 483.046 l 2,42,43
 452 443 452 443 462.615 426.692 c 1,44,45
 505 471 505 471 618.866 584.635 c 0,11,12
EndSplineSet
EndChar

StartChar: uniFEBC
Encoding: 65212 65212 209
Width: 1627
VWidth: 2237
GlyphClass: 2
Flags: W
AnchorPoint: "Anchor-10" 580.5 1190.5 basechar 0
AnchorPoint: "Anchor-7" 563.5 -240.507 basechar 0
LayerCount: 2
Fore
SplineSet
690.164 292.071 m 1,0,-1
 902.638 292.071 l 2,1,2
 1021.61 292.071 1021.61 292.071 1090.96 321.479 c 0,3,4
 1168.07 354.176 1168.07 354.176 1162.88 455.483 c 0,5,6
 1157.66 554.98 1157.66 554.98 1052.15 553.245 c 0,7,8
 981.142 551.7 981.142 551.7 873.892 460.649 c 0,9,10
 756.905 361.328 756.905 361.328 690.164 292.071 c 1,0,-1
1292.8 101.635 m 1,11,12
 1270 83 1270 83 1245.24 66.1406 c 0,13,14
 1145.63516741 -0.243150405945 1145.63516741 -0.243150405945 1007.61 0.000976562 c 2,15,-1
 628.848 0.670898 l 2,16,17
 551 1 551 1 447.818 54.8877 c 0,18,19
 388 86 388 86 345.782 132.791 c 1,20,21
 227 0 227 0 60.9902 0 c 2,22,-1
 -19.400390625 0 l 5,23,-1
 -19.400390625 280.98046875 l 5,24,-1
 55.1396 280.98 l 2,25,26
 127 281 127 281 157.493 316.386 c 0,27,28
 188.26 352.303525093 188.26 352.303525093 188.26 442.06 c 2,29,-1
 188.26 643.04 l 1,30,-1
 449.676 643.04 l 1,31,-1
 451.138 483.046 l 2,32,33
 451 444 451 444 462.615 426.692 c 1,34,35
 505 471 505 471 618.866 584.635 c 0,36,37
 752 717 752 717 872.408 776.171 c 0,38,39
 1030 853 1030 853 1211.14 803.404 c 0,40,41
 1325 772 1325 772 1382.36 674.002 c 0,42,43
 1441.65905427 573.179204775 1441.65905427 573.179204775 1441.93 424.43 c 0,44,45
 1442 386 1442 386 1436.56 348.879 c 1,46,47
 1450 337 1450 337 1472.07 321.28 c 0,48,49
 1525.49099242 281.380174772 1525.49099242 281.380174772 1597.51 281.38 c 2,50,-1
 1645.79980469 281.379882812 l 1,51,-1
 1645.79980469 0.5 l 1,52,-1
 1576.11 0.5 l 2,53,54
 1422 0 1422 0 1337.39 66.6602 c 0,55,56
 1311 87 1311 87 1292.8 101.635 c 1,11,12
EndSplineSet
EndChar

StartChar: uniFEC2
Encoding: 65218 65218 215
Width: 1557
VWidth: 2237
GlyphClass: 2
Flags: W
AnchorPoint: "Anchor-7" 539.13 -232 basechar 0
AnchorPoint: "Anchor-10" 315.67 1470.79 basechar 0
LayerCount: 2
Fore
SplineSet
645.164 292.071 m 1,0,-1
 857.638 292.071 l 2,1,2
 976.613 292.071 976.613 292.071 1045.96 321.479 c 0,3,4
 1123.07 354.176 1123.07 354.176 1117.88 455.483 c 0,5,6
 1112.66 554.98 1112.66 554.98 1007.15 553.245 c 0,7,8
 936.142 551.7 936.142 551.7 828.892 460.649 c 0,9,10
 711.905 361.328 711.905 361.328 645.164 292.071 c 1,0,-1
1219.33 79.4277 m 1,11,12
 1210 72 1210 72 1200.25 66.1465 c 0,13,14
 1100.63509783 -0.243193970452 1100.63509783 -0.243193970452 962.613 0.000976562 c 2,15,-1
 583.927 0.670898 l 1,16,-1
 40.5996 -0.0693359 l 1,17,-1
 40.5996 280.98 l 1,18,-1
 210.13 280.98 l 1,19,-1
 210.13 1302.89 l 1,20,-1
 479.01 1302.89 l 1,21,-1
 479.01 491.786 l 1,22,23
 519 531 519 531 574.259 585.021 c 0,24,25
 712 720 712 720 827.408 776.171 c 0,26,27
 985 853 985 853 1166.14 803.404 c 0,28,29
 1280 772 1280 772 1337.36 674.003 c 0,30,31
 1395 576 1395 576 1396.93 424.407 c 0,32,33
 1398 370 1398 370 1386 320.38 c 1,34,35
 1426.60404027 281.380314496 1426.60404027 281.380314496 1536.1 281.38 c 2,36,-1
 1576.90039062 281.379882812 l 5,37,-1
 1576.90039062 0.5 l 5,38,-1
 1477.25 0.5 l 2,39,40
 1309 0 1309 0 1219.33 79.4277 c 1,11,12
EndSplineSet
EndChar

StartChar: uniFEC3
Encoding: 65219 65219 216
Width: 1464
VWidth: 2237
GlyphClass: 2
Flags: W
AnchorPoint: "Anchor-10" 295.57 1500.47 basechar 0
AnchorPoint: "Anchor-7" 412.57 -231 basechar 0
LayerCount: 2
Fore
SplineSet
621.164 292.071 m 1,0,-1
 833.638 292.071 l 2,1,2
 952.613 292.071 952.613 292.071 1021.96 321.479 c 0,3,4
 1099.07 354.178 1099.07 354.178 1093.88 455.483 c 0,5,6
 1088.66 554.98 1088.66 554.98 983.146 553.245 c 0,7,8
 912.142 551.7 912.142 551.7 804.892 460.649 c 0,9,10
 687.905 361.328 687.905 361.328 621.164 292.071 c 1,0,-1
455.01 491.786 m 1,11,12
 495 531 495 531 550.259 585.021 c 0,13,14
 688 720 688 720 803.408 776.171 c 0,15,16
 961 853 961 853 1142.14 803.404 c 0,17,18
 1256 772 1256 772 1313.36 674.002 c 0,19,20
 1371 576 1371 576 1372.93 424.417 c 0,21,22
 1374 313 1374 313 1323.89 222.066 c 0,23,24
 1274 131 1274 131 1176.25 66.1475 c 0,25,26
 1076.63511177 -0.243188357429 1076.63511177 -0.243188357429 938.614 0.000976562 c 2,27,-1
 559.922 0.670898 l 1,28,-1
 -24.400390625 -0.05859375 l 5,29,-1
 -24.400390625 280.98046875 l 5,30,-1
 186.13 280.98 l 1,31,-1
 186.13 1302.89 l 1,32,-1
 455.01 1302.89 l 1,33,-1
 455.01 491.786 l 1,11,12
EndSplineSet
EndChar

StartChar: uniFEC4
Encoding: 65220 65220 217
Width: 1533
VWidth: 2237
GlyphClass: 2
Flags: W
AnchorPoint: "Anchor-10" 281.27 1492.79 basechar 0
AnchorPoint: "Anchor-7" 511.73 -223 basechar 0
LayerCount: 2
Fore
SplineSet
621.164 292.071 m 1,0,-1
 833.638 292.071 l 2,1,2
 952.613 292.071 952.613 292.071 1021.96 321.479 c 0,3,4
 1099.07 354.178 1099.07 354.178 1093.88 455.483 c 0,5,6
 1088.66 554.98 1088.66 554.98 983.146 553.245 c 0,7,8
 912.142 551.7 912.142 551.7 804.892 460.649 c 0,9,10
 687.905 361.328 687.905 361.328 621.164 292.071 c 1,0,-1
1195.33 79.4258 m 1,11,12
 1186 72 1186 72 1176.24 66.1406 c 0,13,14
 1076.63511047 -0.243188355139 1076.63511047 -0.243188355139 938.614 0.000976562 c 2,15,-1
 559.922 0.670898 l 1,16,-1
 -24.400390625 -0.05859375 l 5,17,-1
 -24.400390625 280.98046875 l 5,18,-1
 186.13 280.98 l 1,19,-1
 186.13 1302.89 l 1,20,-1
 455.01 1302.89 l 1,21,-1
 455.01 491.786 l 1,22,23
 495 531 495 531 550.259 585.021 c 0,24,25
 688 720 688 720 803.408 776.171 c 0,26,27
 961 853 961 853 1142.14 803.404 c 0,28,29
 1256 772 1256 772 1313.36 674.003 c 0,30,31
 1369.91231264 577.849351567 1369.91231264 577.849351567 1372.93 424.407 c 0,32,33
 1374 370 1374 370 1362 320.38 c 1,34,35
 1402.60404027 281.380314496 1402.60404027 281.380314496 1512.1 281.38 c 2,36,-1
 1552.90039062 281.379882812 l 1,37,-1
 1552.90039062 0.5 l 1,38,-1
 1453.25 0.5 l 2,39,40
 1284 0 1284 0 1195.33 79.4258 c 1,11,12
EndSplineSet
EndChar

StartChar: uniFECA
Encoding: 65226 65226 223
Width: 1190
VWidth: 2186
GlyphClass: 2
Flags: W
AnchorPoint: "Anchor-10" 556 1272.04 basechar 0
AnchorPoint: "Anchor-7" 273.69 -674.64 basechar 0
LayerCount: 2
Fore
SplineSet
561.346679688 286.202148438 m 5,0,1
 346.345703125 121.891601562 346.345703125 121.891601562 313.294921875 -45.01171875 c 4,2,3
 277.659179688 -229.595703125 277.659179688 -229.595703125 378.877929688 -307.169921875 c 4,4,5
 455.866210938 -366.173828125 455.866210938 -366.173828125 635.31640625 -369 c 5,6,-1
 1113.75390625 -368.750976562 l 5,7,-1
 1112.16796875 -644.744140625 l 5,8,-1
 1061.49414062 -644.778320312 l 6,9,10
 603.866210938 -645.084960938 603.866210938 -645.084960938 572.083984375 -642.702148438 c 4,11,12
 244.663085938 -618.155273438 244.663085938 -618.155273438 117.587890625 -436.8828125 c 4,13,14
 9.6123046875 -282.854492188 9.6123046875 -282.854492188 50.36328125 -36.30859375 c 132,-1,15
 91.115234375 210.237304688 91.115234375 210.237304688 386.112304688 455.944335938 c 5,16,17
 349.9375 492.954101562 349.9375 492.954101562 294.634765625 556.52734375 c 4,18,19
 170.987304688 698.6640625 170.987304688 698.6640625 211.704101562 823.05078125 c 4,20,21
 238.795898438 903.741210938 238.795898438 903.741210938 319.995117188 954.283203125 c 4,22,23
 419.745117188 1016.37304688 419.745117188 1016.37304688 733.92578125 993.802734375 c 4,24,25
 946.184570312 981.034179688 946.184570312 981.034179688 1003.82617188 849.467773438 c 4,26,27
 1076.58984375 683.390625 1076.58984375 683.390625 892.552734375 523.998046875 c 4,28,29
 842.576171875 480.713867188 842.576171875 480.713867188 771.305664062 433.647460938 c 5,30,31
 907.77734375 281.379882812 907.77734375 281.379882812 1094.5 281.379882812 c 6,32,-1
 1240.70019531 281.379882812 l 5,33,-1
 1240.70019531 0.5 l 5,34,-1
 1092.62011719 0.5 l 6,35,36
 792.4765625 0.5 792.4765625 0.5 561.346679688 286.202148438 c 5,0,1
757.15625 737.672851562 m 5,37,38
 740 760 740 760 629.96484375 758.801757812 c 132,-1,39
 519.9296875 757.603515625 519.9296875 757.603515625 496.232421875 753.408203125 c 132,-1,40
 472.53515625 749.212890625 472.53515625 749.212890625 487.329101562 729 c 4,41,42
 520.51953125 683.655273438 520.51953125 683.655273438 598.203125 612.719726562 c 5,43,44
 767.294921875 717.571289062 767.294921875 717.571289062 757.15625 737.672851562 c 5,37,38
EndSplineSet
EndChar

StartChar: uniFECB
Encoding: 65227 65227 224
Width: 1059
VWidth: 2237
GlyphClass: 2
Flags: W
AnchorPoint: "Anchor-10" 373.265 1272.23 basechar 0
AnchorPoint: "Anchor-7" 499.6 -228.5 basechar 0
LayerCount: 2
Fore
SplineSet
-59.4004 280.98 m 1,0,-1
 170.719 280.978 l 1,1,2
 139 327 139 327 125.723 372.525 c 0,3,4
 74 550 74 550 130.5 673.5 c 128,-1,5
 187 797 187 797 295.5 864 c 128,-1,6
 404 931 404 931 540.625976562 930.708007812 c 0,7,8
 753.323747274 931.000445119 753.323747274 931.000445119 913.861 763.5 c 1,9,-1
 817.658 547.485 l 1,10,11
 669.847061515 672.986734254 669.847061515 672.986734254 543.621 662.038 c 4,12,13
 410.068361789 650.778860509 410.068361789 650.778860509 380.081 561.665 c 0,14,15
 355 487 355 487 386.5 415.5 c 128,-1,16
 418 344 418 344 471.213 319.699 c 1,17,18
 483 311 483 311 533.209518071 311.502041397 c 128,-1,19
 583.419036141 312.004082794 583.419036141 312.004082794 652.834 327.241 c 2,20,-1
 979 398.836 l 1,21,-1
 979 115.919 l 1,22,-1
 940.745 106.045 l 2,23,24
 529.914214779 -0.0221477893101 529.914214779 -0.0221477893101 356.354 -0.015625 c 2,25,-1
 -59.4004 0 l 1,26,-1
 -59.4004 280.98 l 1,0,-1
EndSplineSet
EndChar

StartChar: uniFECC
Encoding: 65228 65228 225
Width: 932
VWidth: 2186
GlyphClass: 2
Flags: W
AnchorPoint: "Anchor-10" 464.58 1116.5 basechar 0
AnchorPoint: "Anchor-7" 450.58 -217.5 basechar 0
LayerCount: 2
Fore
SplineSet
332 571.114397509 m 0,0,1
 306.564995249 564.780953493 306.564995249 564.780953493 322.551985836 550.803484293 c 0,2,3
 353.260786442 523.954696691 353.260786442 523.954696691 472.66015625 443.551757812 c 1,4,5
 551.731657925 491.441444328 551.731657925 491.441444328 602 546.909649905 c 0,6,7
 616.71007147 563.141362245 616.71007147 563.141362245 597.468040034 569.836581253 c 128,-1,8
 578.226008598 576.531800262 578.226008598 576.531800262 561.443570705 579.089142318 c 128,-1,9
 544.661132812 581.646484375 544.661132812 581.646484375 532.081054688 582.770507812 c 0,10,11
 419.284927422 592.848783118 419.284927422 592.848783118 332 571.114397509 c 0,0,1
247.64453125 293.104492188 m 1,12,13
 -29.1556259274 479.838344515 -29.1556259274 479.838344515 61.83203125 669.463867188 c 0,14,15
 122.94630688 796.827756485 122.94630688 796.827756485 303.5 824.13671875 c 0,16,17
 368.750976562 834.005859375 368.750976562 834.005859375 496.76953125 834.002441406 c 128,-1,18
 624.788085938 833.999023438 624.788085938 833.999023438 713.827636719 802.243652344 c 0,19,20
 893.71694491 738.087311849 893.71694491 738.087311849 880.865234375 563.291015625 c 0,21,22
 876.478515625 503.134765625 876.478515625 503.134765625 825.13671875 439.973632812 c 128,-1,23
 773.795898438 376.8125 773.795898438 376.8125 672.990234375 293.044921875 c 1,24,25
 754.205078125 279.434570312 754.205078125 279.434570312 911.338867188 280.977539062 c 2,26,-1
 1003.55957031 281.8828125 l 5,27,-1
 1003.55957031 0.5 l 5,28,-1
 888.337890625 0.5 l 2,29,30
 582.756835938 0.04296875 582.756835938 0.04296875 465.483398438 75.0478515625 c 1,31,32
 345.169921875 0 345.169921875 0 40.8603515625 0 c 2,33,-1
 -72.400390625 0 l 1,34,-1
 -72.400390625 280.981445312 l 1,35,-1
 17.3173828125 280.98046875 l 2,36,37
 164.880030988 280.985331102 164.880030988 280.985331102 247.64453125 293.104492188 c 1,12,13
EndSplineSet
EndChar

StartChar: uniFEDA
Encoding: 65242 65242 239
Width: 1729
VWidth: 2237
GlyphClass: 2
Flags: W
AnchorPoint: "Anchor-10" 539 1423.5 basechar 0
AnchorPoint: "Anchor-7" 460 -230.5 basechar 0
LayerCount: 2
Fore
SplineSet
1009.77 1296.26 m 1,0,-1
 1009.77 1132.8 l 1,1,-1
 962.222 1129.58 l 2,2,3
 897.306 1125.18 897.306 1125.18 865.139 1113.33 c 0,4,5
 816.515 1095.09 816.515 1095.09 804.363 1079.21 c 1,6,7
 804.823 1065.62 804.823 1065.62 809.854 1057.7 c 1,8,9
 826.407 1048.87 826.407 1048.87 872.441 1042.1 c 0,10,11
 938.797 1032.34 938.797 1032.34 976.384 998.014 c 0,12,13
 1019.05 959.047 1019.05 959.047 1019.05 894.298 c 0,14,15
 1019.05 831.706 1019.05 831.706 988.396 781.285 c 128,-1,16
 957.743 730.864 957.743 730.864 901.406 699.007 c 0,17,18
 819.949 652.94 819.949 652.94 710.924 651.929 c 0,19,20
 643.243 651.929 643.243 651.929 584.331 662.268 c 2,21,-1
 542.148 669.672 l 1,22,-1
 542.148 839.299 l 1,23,-1
 600.03 831.415 l 2,24,25
 660.66 823.158 660.66 823.158 701.059 823.158 c 0,26,27
 765.241 823.158 765.241 823.158 803.822 838.348 c 0,28,29
 825.78 846.78 825.78 846.78 837.852 855.565 c 128,-1,30
 849.923 864.35 849.923 864.35 851.187 867.422 c 128,-1,31
 852.45 870.495 852.45 870.495 852.45 872.898 c 2,32,-1
 850.537 878.276 l 1,33,34
 841.52 887.603 841.52 887.603 801.793 894.075 c 0,35,36
 726.767 905.508 726.767 905.508 682.924 950.351 c 0,37,38
 635.64 998.712 635.64 998.712 637.389 1079.21 c 0,39,40
 638.69 1131.85 638.69 1131.85 665.758 1173.61 c 128,-1,41
 692.825 1215.36 692.825 1215.36 740.52 1239.53 c 0,42,43
 833.4 1286.52 833.4 1286.52 955.957 1293.29 c 2,44,-1
 1009.77 1296.26 l 1,0,-1
1442.82 87.5684 m 1,45,46
 1345.84 -0 1345.84 -0 1184.86 0 c 2,47,-1
 416.605 0 l 2,48,49
 232.824 0.0654297 232.824 0.0654297 136.411 114.249 c 128,-1,50
 39.998 228.432 39.998 228.432 39.9971 436.499 c 2,51,-1
 39.9961 730.499 l 1,52,-1
 311.996 730.499 l 1,53,-1
 311.996 445.499 l 2,54,55
 311.996 351.388 311.996 351.388 338.098 316.184 c 128,-1,56
 364.199 280.98 364.199 280.98 420.475 280.98 c 2,57,-1
 1191.01 280.98 l 2,58,59
 1247.36 280.98 1247.36 280.98 1273.43 315.966 c 128,-1,60
 1299.49 350.951 1299.49 350.951 1299.49 444.499 c 2,61,-1
 1299.49 1302.5 l 1,62,-1
 1571.49 1302.5 l 1,63,-1
 1571.49 467.499 l 2,64,65
 1571.49 394.216 1571.49 394.216 1561.55 332.297 c 1,66,67
 1610.62 280.88 1610.62 280.88 1698.17 280.88 c 2,68,-1
 1799.42 280.88 l 1,69,-1
 1799.42 0 l 1,70,-1
 1689.32 0 l 2,71,72
 1566.5 0 1566.5 0 1442.82 87.5684 c 1,45,46
EndSplineSet
EndChar

StartChar: uniFEDB
Encoding: 65243 65243 240
Width: 847
VWidth: 2237
GlyphClass: 2
Flags: W
AnchorPoint: "Anchor-10" 239.5 1255 basechar 0
AnchorPoint: "Anchor-7" 275 -246 basechar 0
LayerCount: 2
Fore
SplineSet
334.700195312 0 m 2,0,-1
 -20.400390625 0 l 1,1,-1
 -20.400390625 280.975585938 l 1,2,-1
 293.366210938 281.00390625 l 2,3,4
 338.551757812 281.0078125 338.551757812 281.0078125 373.080078125 285.1796875 c 128,-1,5
 407.608398438 289.3515625 407.608398438 289.3515625 426.688476562 295.392578125 c 128,-1,6
 445.766601562 301.432617188 445.766601562 301.432617188 457.794921875 309.612304688 c 128,-1,7
 469.823242188 317.79296875 469.823242188 317.79296875 473.549804688 324.344726562 c 128,-1,8
 477.276367188 330.896484375 477.276367188 330.896484375 477.55859375 337.559570312 c 0,9,10
 479.791992188 390.3203125 479.791992188 390.3203125 412.25390625 437.62890625 c 2,11,-1
 114.006835938 646.538085938 l 2,12,13
 10.244140625 719.651367188 10.244140625 719.651367188 2.701171875 804.803710938 c 0,14,15
 -3.9599609375 890.817382812 -3.9599609375 890.817382812 30.3359375 954.938476562 c 128,-1,16
 64.6318359375 1019.05957031 64.6318359375 1019.05957031 137.052734375 1052.70019531 c 2,17,-1
 813.424804688 1366.91015625 l 1,18,-1
 813.424804688 1078.15039062 l 1,19,-1
 309.440429688 837.298828125 l 1,20,-1
 578.396484375 645.580078125 l 1,21,22
 667.2421875 583.55859375 667.2421875 583.55859375 707.524414062 495.7109375 c 128,-1,23
 747.806640625 407.86328125 747.806640625 407.86328125 735.169921875 302.49609375 c 0,24,25
 717.263671875 144.749023438 717.263671875 144.749023438 601.668945312 67.876953125 c 0,26,27
 498.109375 0 498.109375 0 334.700195312 0 c 2,0,-1
EndSplineSet
EndChar

StartChar: uniFEDC
Encoding: 65244 65244 241
Width: 898
VWidth: 2186
GlyphClass: 2
Flags: W
AnchorPoint: "Anchor-10" 236.5 1306 basechar 0
AnchorPoint: "Anchor-7" 359 -240 basechar 0
LayerCount: 2
Fore
SplineSet
850.484375 0.5 m 2,0,1
 686.441849233 0.5 686.441849233 0.5 605.7421875 72.7919921875 c 1,2,3
 503 0 503 0 331.700195312 0 c 2,4,-1
 -23.400390625 0 l 1,5,-1
 -23.400390625 280.975585938 l 1,6,-1
 291.099609375 281.00390625 l 2,7,8
 475 281 475 281 475 355 c 0,9,10
 475 395.997409795 475 395.997409795 411.084960938 439.989257812 c 2,11,-1
 111.938476562 645.887695312 l 2,12,13
 6 719 6 719 -0.623046875 804.287109375 c 0,14,15
 -13.9947072377 983.9288943 -13.9947072377 983.9288943 134.052734375 1052.703125 c 2,16,-1
 810.424804688 1366.90625 l 1,17,-1
 810.424804688 1078.16894531 l 1,18,-1
 781.442382812 1064.29785156 l 2,19,20
 414 889 414 889 307.124023438 837.576171875 c 1,21,-1
 576.853515625 648.200195312 l 2,22,23
 739 534 739 534 734.186523438 332.5390625 c 1,24,25
 774.699173065 281.379882811 774.699173065 281.379882811 860.120117188 281.379882812 c 2,26,-1
 924.150390625 281.379882812 l 5,27,-1
 924.150390625 0.5 l 5,28,-1
 850.484375 0.5 l 2,0,1
EndSplineSet
EndChar

StartChar: uniFEDE
Encoding: 65246 65246 243
Width: 1402
VWidth: 2237
GlyphClass: 2
Flags: W
AnchorPoint: "Anchor-10" 456.5 1067.5 basechar 0
AnchorPoint: "Anchor-7" 244.34 -546.3 basechar 0
LayerCount: 2
Fore
SplineSet
1203.72 34.7061 m 1,0,1
 1184 -178 1184 -178 1044.2 -291.396 c 0,2,3
 904.108080803 -404.912422171 904.108080803 -404.912422171 660.833 -412.345 c 2,4,-1
 643.682 -412.869 l 1,5,-1
 619.601 -412.869 l 2,6,7
 339 -413 339 -413 189.734 -282.723 c 0,8,9
 39.9717 -152.975482116 39.9717 -152.975482116 39.9717 97.6299 c 2,10,-1
 39.9717 330.131 l 2,11,12
 40 404 40 404 77.7871 452.455 c 0,13,14
 115.70874914 500.63 115.70874914 500.63 184.9 500.63 c 2,15,-1
 311.973 500.63 l 1,16,-1
 311.973 98.6299 l 2,17,18
 312 -20 312 -20 383.75 -75.7852 c 0,19,20
 455.857337392 -131.889 455.857337392 -131.889 621.45 -131.889 c 2,21,-1
 642.357 -131.889 l 1,22,-1
 665.336 -131.399 l 2,23,24
 810 -128 810 -128 874.221 -72.1338 c 0,25,26
 938.263461351 -15.7681198078 938.263461351 -15.7681198078 939.905 102.836 c 2,27,-1
 940.461 143.008 l 2,28,29
 939.909 174.130741866 939.909 174.130741866 939.909 430.32 c 2,30,-1
 939.909 1302.03 l 1,31,-1
 1207.79 1302.03 l 1,32,-1
 1207.79 430.327 l 2,33,34
 1208 354 1208 354 1247.56 320.121 c 0,35,36
 1292.55847278 281.380127338 1292.55847278 281.380127338 1366.72 281.38 c 2,37,-1
 1434.96972656 281.379882812 l 5,38,-1
 1434.96972656 0.5 l 5,39,-1
 1380.87 0.5 l 2,40,41
 1287 0 1287 0 1203.72 34.7061 c 1,0,1
EndSplineSet
EndChar

StartChar: uniFEDF
Encoding: 65247 65247 244
Width: 627
VWidth: 2237
GlyphClass: 2
Flags: W
AnchorPoint: "Anchor-10" 324.73 1523 basechar 0
AnchorPoint: "Anchor-7" 244.73 -247.5 basechar 0
LayerCount: 2
Fore
SplineSet
106.7 0 m 2,0,-1
 -22.6005859375 0 l 5,1,-1
 -22.6005859375 280.98046875 l 5,2,-1
 112.85 280.98 l 2,3,4
 169 281 169 281 195.265 315.966 c 0,5,6
 221.328 351.446518438 221.328 351.446518438 221.328 444.499 c 2,7,-1
 221.328 1302.5 l 1,8,-1
 493.328 1302.5 l 1,9,-1
 493.328 467.499 l 2,10,11
 493 245 493 245 394.851 122.263 c 0,12,13
 296 0 296 0 106.7 0 c 2,0,-1
EndSplineSet
EndChar

StartChar: uniFEE0
Encoding: 65248 65248 245
Width: 650
VWidth: 2237
GlyphClass: 2
Flags: W
AnchorPoint: "Anchor-10" 298.73 1516 basechar 0
AnchorPoint: "Anchor-7" 222.73 -236.5 basechar 0
LayerCount: 2
Fore
SplineSet
325.999 85.2734 m 1,0,1
 229 0 229 0 80.7002 0 c 2,2,-1
 -26.400390625 0 l 5,3,-1
 -26.400390625 280.98046875 l 5,4,-1
 21.8496 280.98 l 2,5,6
 114 281 114 281 152.42 321.06 c 0,7,8
 191.29 361.300222913 191.29 361.300222913 191.29 457.31 c 2,9,-1
 191.29 1302.96 l 1,10,-1
 460.17 1302.96 l 1,11,-1
 460.17 456.31 l 2,12,13
 460 361 460 361 499.004 320.844 c 0,14,15
 538.020445191 280.979110212 538.020445191 280.979110212 629.61 280.98 c 2,16,-1
 677.860351562 280.98046875 l 1,17,-1
 677.860351562 0 l 1,18,-1
 570.76 0 l 2,19,20
 424 0 424 0 325.999 85.2734 c 1,0,1
EndSplineSet
EndChar

StartChar: uniFEE2
Encoding: 65250 65250 247
Width: 1180
VWidth: 2237
GlyphClass: 2
Flags: W
AnchorPoint: "Anchor-10" 518.5 1101 basechar 0
AnchorPoint: "Anchor-7" 180.188 -607.422 basechar 0
LayerCount: 2
Fore
SplineSet
732.588 489.382 m 0,0,1
 671.754 487.973 671.754 487.973 638.334 484.488 c 1,2,3
 634.085 433.444 634.085 433.444 636.938 393.346 c 0,4,5
 642.947 308.923 642.947 308.923 673.168 278.544 c 128,-1,6
 703.39 248.166 703.39 248.166 768.972 252.869 c 0,7,8
 829.685 257.224 829.685 257.224 833.022 401.493 c 0,9,10
 833.135 406.662 833.135 406.662 832.993 411.555 c 0,11,12
 831.67 457.279 831.67 457.279 811.357 474.196 c 128,-1,13
 791.044 491.112 791.044 491.112 732.588 489.382 c 0,0,1
955.126 52.6025 m 1,14,15
 948 48 948 48 941.581 43.4551 c 0,16,17
 872 -0 872 -0 779.974 -3.61133 c 0,18,19
 666 -7 666 -7 589.761 21.2803 c 0,20,21
 473 65 473 65 417.356 173.036 c 0,22,23
 361 281 361 281 363.998 438.813 c 1,24,25
 307 378 307 378 307 193.109 c 2,26,-1
 307 -425 l 1,27,-1
 39 -425 l 1,28,-1
 39 273.734 l 1,29,-1
 39.1182 275.466 l 2,30,31
 53 485 53 485 154.086 607.682 c 128,-1,32
 255.288707147 730.349942336 255.288707147 730.349942336 435.373 749.663 c 2,33,-1
 438.534 750.002 l 1,34,-1
 809.488 750.001 l 1,35,36
 937 749 937 749 1011.15 671.677 c 0,37,38
 1085 594 1085 594 1095.31 457.101 c 0,39,40
 1102 364 1102 364 1088.08 285.949 c 1,41,42
 1110 280 1110 280 1148 280 c 2,43,-1
 1201 280 l 5,44,-1
 1201 0 l 5,45,-1
 1134 0 l 2,46,47
 1020 0 1020 0 955.126 52.6025 c 1,14,15
EndSplineSet
EndChar

StartChar: uniFEE3
Encoding: 65251 65251 248
Width: 853
VWidth: 2237
GlyphClass: 2
Flags: W
AnchorPoint: "Anchor-10" 386.69 1143.5 basechar 0
AnchorPoint: "Anchor-7" 348.69 -228.5 basechar 0
LayerCount: 2
Fore
SplineSet
727.628 143.238 m 0,0,1
 669 -3 669 -3 462.213 -9.97168 c 0,2,3
 282 -16 282 -16 200.58 46.0996 c 1,4,5
 138 0 138 0 35.9805 0 c 2,6,-1
 -19.400390625 0 l 5,7,-1
 -19.400390625 280.978515625 l 5,8,-1
 50.96 280.979 l 2,9,10
 77 281 77 281 76.5576 286.004 c 0,11,12
 78 504 78 504 105.018 580.359 c 0,13,14
 144 689 144 689 223.89 748.523 c 0,15,16
 304 808 304 808 416.855 808.996 c 0,17,18
 562 811 562 811 647.059 744.193 c 0,19,20
 742 670 742 670 758.625 533.562 c 0,21,22
 787 290 787 290 727.628 143.238 c 0,0,1
438.573 260.197 m 0,23,24
 520.651 261.052 520.651 261.052 524.846 353.061 c 0,25,26
 528.224 417.335 528.224 417.335 522.576 465.064 c 0,27,28
 512.953 541.943 512.953 541.943 437.169 542.883 c 0,29,30
 348.373 544.083 348.373 544.083 336.133 453.146 c 0,31,32
 329.263 403.662 329.263 403.662 334.106 356.041 c 0,33,34
 345.403 259.055 345.403 259.055 438.573 260.197 c 0,23,24
EndSplineSet
EndChar

StartChar: uniFEE4
Encoding: 65252 65252 249
Width: 903
VWidth: 2237
GlyphClass: 2
Flags: W
AnchorPoint: "Anchor-10" 437.79 1111.5 basechar 0
AnchorPoint: "Anchor-7" 385.79 -240.5 basechar 0
LayerCount: 2
Fore
SplineSet
456.575 260.197 m 0,0,1
 506.928 260.698 506.928 260.698 526.674 280.264 c 128,-1,2
 546.419 299.83 546.419 299.83 548.842 352.993 c 0,3,4
 552.021 416.894 552.021 416.894 546.631 459.632 c 0,5,6
 539.945 509.338 539.945 509.338 520.763 527.839 c 128,-1,7
 501.58 546.341 501.58 546.341 460.062 546.95 c 0,8,9
 409.325 547.596 409.325 547.596 385.99 526.247 c 128,-1,10
 362.656 504.898 362.656 504.898 355.16 448.347 c 0,11,12
 348.501 398.478 348.501 398.478 353.093 356.174 c 0,13,14
 359.312 301.091 359.312 301.091 382.077 280.324 c 128,-1,15
 404.843 259.559 404.843 259.559 456.575 260.197 c 0,0,1
792.005 291.451 m 2,16,17
 792 291 792 291 791.897 290.099 c 0,18,19
 807.840561075 281.090090963 807.840561075 281.090090963 850.28 281.09 c 2,20,-1
 923.1796875 281.08984375 l 1,21,-1
 923.1796875 0.2099609375 l 1,22,-1
 829.43 0.209961 l 2,23,24
 739 0 739 0 681.123 45.8379 c 1,25,26
 611 -8 611 -8 471.588 -10.2803 c 0,27,28
 300 -13 300 -13 211.596 52.6826 c 1,29,30
 135 0 135 0 41.5996 0 c 2,31,-1
 -21.400390625 0 l 5,32,-1
 -21.400390625 280.978515625 l 5,33,-1
 48.0195 280.979 l 2,34,35
 81 281 81 281 95.459 287.818 c 1,36,37
 95 475 95 475 119.837 563.772 c 0,38,39
 154 685 154 685 243.421 748.178 c 0,40,41
 333 812 333 812 464.891 811.741 c 0,42,43
 591 812 591 812 672.521 745.016 c 0,44,45
 752.638384713 679.119920594 752.638384713 679.119920594 777.932 554.664 c 0,46,47
 798.674508882 454.570663045 798.674508882 454.570663045 792.257 294.877 c 2,48,-1
 792.188 293.16 l 1,49,-1
 792.005 291.451 l 2,16,17
EndSplineSet
EndChar

StartChar: uniFEEA
Encoding: 65258 65258 255
Width: 936
VWidth: 2237
GlyphClass: 2
Flags: W
AnchorPoint: "Anchor-10" 292.95 1164.81 basechar 0
AnchorPoint: "Anchor-7" 341.88 -239 basechar 0
LayerCount: 2
Fore
SplineSet
559.105 103.049 m 1,0,-1
 559.261 1.03906 l 1,1,-1
 485.3 -0.482422 l 2,2,3
 467 -1 467 -1 466.646 -0.682617 c 0,4,5
 263 -1 263 -1 151.554 96.6846 c 0,6,7
 40.0935282952 193.918409528 40.0935282952 193.918409528 40.001 378.975 c 2,8,-1
 40 380.975 l 2,9,10
 40 590 40 590 156.332 701.618 c 0,11,12
 272.998952542 812.999 272.998952542 812.999 489.251 812.999 c 2,13,-1
 492.257 812.999 l 2,14,15
 626 813 626 813 701.205 739.961 c 0,16,17
 776.163420208 666.840586913 776.163420208 666.840586913 776.251 535.033 c 2,18,-1
 776.37 355.938 l 2,19,20
 776 311 776 311 791.196 295.917 c 0,21,22
 805.988686565 281.011399792 805.988686565 281.011399792 850.309 280.999 c 2,23,-1
 954.940429688 280.969726562 l 5,24,-1
 956.690429688 0 l 5,25,-1
 784.375 0 l 2,26,27
 631 0 631 0 559.105 103.049 c 1,0,-1
506.243 275.975 m 1,28,29
 506.358 295.602 506.358 295.602 506.371 308.952 c 2,30,-1
 506.52 465.049 l 2,31,32
 506.574 522.077 506.574 522.077 505.947 528.098 c 1,33,34
 504.995 528 504.995 528 486.605 528 c 2,35,-1
 483 528 l 2,36,37
 298.667 528 298.667 528 303.227 383.609 c 2,38,-1
 303.321 380.609 l 2,39,40
 306.619 276.17 306.619 276.17 493.299 275.987 c 2,41,-1
 506.243 275.975 l 1,28,29
EndSplineSet
EndChar

StartChar: uniFEEB
Encoding: 65259 65259 256
Width: 1268
VWidth: 2186
GlyphClass: 2
Flags: W
AnchorPoint: "Anchor-10" 513.801 1331.23 basechar 0
AnchorPoint: "Anchor-7" 429.542 -247.946 basechar 0
LayerCount: 2
Fore
SplineSet
402.447265625 306.298828125 m 1,0,1
 507.424804688 345.368164062 507.424804688 345.368164062 570 426 c 0,2,3
 585.33203125 445.7265625 585.33203125 445.7265625 588.291992188 460.66015625 c 0,4,5
 593.12109375 484.807617188 593.12109375 484.807617188 571.075195312 511.565429688 c 0,6,7
 525.103515625 563.869140625 525.103515625 563.869140625 442.352539062 538.704101562 c 0,8,9
 381.034179688 519.913085938 381.034179688 519.913085938 348.216796875 446.979492188 c 0,10,11
 328.513671875 402.4921875 328.513671875 402.4921875 340.791015625 370.16796875 c 0,12,13
 352.7109375 337.743164062 352.7109375 337.743164062 402.447265625 306.298828125 c 1,0,1
799 457 m 5,14,15
 803 411 803 411 754.609375 319.984375 c 0,16,17
 716 247 716 247 630.375976562 197.354492188 c 1,18,19
 724 161 724 161 775.172851562 159.720703125 c 0,20,21
 828 159 828 159 864 189 c 0,22,23
 901.26694569 221.230871948 901.26694569 221.230871948 908.516601562 276.397460938 c 0,24,25
 922 379 922 379 799 457 c 5,14,15
513.168945312 764.84765625 m 1,26,27
 488.110252716 783.916103043 488.110252716 783.916103043 469.1015625 796.147460938 c 2,28,-1
 423.84765625 825.266601562 l 1,29,-1
 585.0390625 1048.484375 l 1,30,-1
 626.912109375 1014.69238281 l 2,31,32
 815 863 815 863 956.724609375 731.352539062 c 0,33,34
 1171 532 1171 532 1176.52880859 320.697265625 c 0,35,36
 1182 110 1182 110 1043.27050781 5.43701171875 c 0,37,38
 905 -99 905 -99 711.8515625 -77.8203125 c 0,39,40
 519 -57 519 -57 374.420898438 43.03515625 c 1,41,42
 217 0 217 0 9.6298828125 0 c 2,43,-1
 -24.400390625 0 l 1,44,-1
 -24.400390625 280.978515625 l 1,45,-1
 93.0712890625 280.978515625 l 1,46,47
 80 365 80 365 79.2314453125 373.588867188 c 0,48,49
 72 539 72 539 180.979492188 652.604492188 c 0,50,51
 316 794 316 794 513.168945312 764.84765625 c 1,26,27
EndSplineSet
EndChar

StartChar: uniFEEC
Encoding: 65260 65260 257
Width: 824
VWidth: 2237
GlyphClass: 2
Flags: W
AnchorPoint: "Anchor-7" 128.88 -580 basechar 0
AnchorPoint: "Anchor-10" 371.76 1166.74 basechar 0
LayerCount: 2
Fore
SplineSet
339.643 1.43164 m 1,0,1
 340.328 -44.7637 340.328 -44.7637 356.728 -105.325 c 0,2,3
 389.487 -227.946 389.487 -227.946 435.986 -227.946 c 0,4,5
 494.853 -227.946 494.853 -227.946 494.853 -147.07 c 0,6,7
 494.853 -92.8446 494.853 -92.8446 451.323 -41.7246 c 0,8,9
 415.412 0.453273 415.412 0.453273 350.685 1.28906 c 2,10,-1
 339.643 1.43164 l 1,0,1
711.957 0.228516 m 1,11,12
 758.856 -78.5889 758.856 -78.5889 755.606 -165.812 c 0,13,14
 750.083 -305.134 750.083 -305.134 673.19 -391.834 c 0,15,16
 591.347 -483.971 591.347 -483.971 451.425 -484.962 c 0,17,18
 347.05 -485.707 347.05 -485.707 268.267 -431.814 c 128,-1,19
 189.484 -377.921 189.484 -377.921 143.444 -276.312 c 0,20,21
 93.29 -164.414 93.29 -164.414 92.3447 0 c 1,22,-1
 -71.9355 0 l 1,23,-1
 -71.9355 280.961 l 1,24,-1
 89.4365 281.019 l 1,25,26
 89.126 441.868 89.126 441.868 140.882 557.348 c 0,27,28
 186.924 658.959 186.924 658.959 265.705 712.852 c 128,-1,29
 344.487 766.744 344.487 766.744 448.862 765.999 c 0,30,31
 588.781 765.008 588.781 765.008 670.617 672.884 c 0,32,33
 762.642 569.117 762.642 569.117 752.947 441.188 c 0,34,35
 746.773 352.904 746.773 352.904 709.914 281.495 c 1,36,37
 736.524 281.483 736.524 281.483 744.747 281.74 c 2,38,-1
 745.678 281.872 l 1,39,-1
 746.608 282.003 l 1,40,-1
 889.64 281.036 l 1,41,-1
 889.64 0.607422 l 1,42,-1
 711.957 0.228516 l 1,11,12
339.643 281.568 m 1,43,-1
 350.684 281.711 l 2,44,45
 438.764 282.852 438.764 282.852 465.985 326.001 c 0,46,47
 496.852 372.93 496.852 372.93 494.688 418.296 c 0,48,49
 493.214 510.946 493.214 510.946 435.986 510.946 c 0,50,51
 389.484 510.946 389.484 510.946 356.729 388.327 c 0,52,53
 340.33 327.771 340.33 327.771 339.643 281.568 c 1,43,-1
EndSplineSet
EndChar

StartChar: uniFEEE
Encoding: 65262 65262 259
Width: 856
VWidth: 2186
GlyphClass: 2
Flags: W
AnchorPoint: "Anchor-10" 330 1115 basechar 0
AnchorPoint: "Anchor-7" 346.515 -620.238 basechar 0
LayerCount: 2
Fore
SplineSet
450.841796875 0.9501953125 m 1,0,1
 412 1 412 1 355.49609375 0.79296875 c 0,2,3
 195 1 195 1 109.375976562 95.943359375 c 0,4,5
 22.7145966272 192.431153486 22.7145966272 192.431153486 40.1044921875 417.75 c 0,6,7
 51 565 51 565 122.41015625 643.377929688 c 0,8,9
 218 749 218 749 396.202148438 745.6171875 c 0,10,11
 633 741 633 741 705.760742188 541.434570312 c 0,12,13
 735 460 735 460 734.376953125 308.569335938 c 1,14,-1
 733.681640625 279.919921875 l 1,15,-1
 878.66015625 281.900390625 l 5,16,-1
 878.66015625 0.5 l 5,17,-1
 730.95703125 0.5 l 1,18,19
 717 -218 717 -218 582.602539062 -331.356445312 c 0,20,21
 448.812726277 -445.15929676 448.812726277 -445.15929676 211.942382812 -445.041992188 c 2,22,-1
 62.07421875 -444.967773438 l 1,23,-1
 61.9228515625 -164.939453125 l 1,24,-1
 206.982421875 -165.041992188 l 2,25,26
 358 -165 358 -165 413.7421875 -91.5166015625 c 0,27,28
 441 -56 441 -56 450.841796875 0.9501953125 c 1,0,1
394.581054688 476.358398438 m 0,29,30
 356 477 356 477 340 471 c 0,31,32
 299 454 299 454 294.829101562 389.9921875 c 0,33,34
 290 313 290 313 309.248046875 293.784179688 c 24,35,36
 333 270 333 270 466.2109375 280.458007812 c 1,37,38
 468 421 468 421 451.708007812 447.514648438 c 0,39,40
 434 475 434 475 394.581054688 476.358398438 c 0,29,30
EndSplineSet
EndChar

StartChar: uniFEF0
Encoding: 65264 65264 261
Width: 1376
VWidth: 2237
GlyphClass: 2
Flags: W
AnchorPoint: "Anchor-10" 474.73 781.315 basechar 0
AnchorPoint: "Anchor-7" 162.94 -560.88 basechar 0
LayerCount: 2
Fore
SplineSet
1254.98 0.671875 m 1,0,-1
 1254.98 -13.25 l 2,1,2
 1255 -222 1255 -222 1115.65 -331.75 c 0,3,4
 976.344812249 -441.727779804 976.344812249 -441.727779804 719.546 -447.736 c 2,5,-1
 697.577 -448.25 l 1,6,-1
 659.68 -448.25 l 2,7,8
 362 -448 362 -448 200.827 -328.286 c 0,9,10
 40.0518 -208.038742343 40.0518 -208.038742343 40.0518 27.248 c 2,11,-1
 40.0518 259.75 l 2,12,13
 40 334 40 334 77.8672 382.073 c 0,14,15
 116.197319557 430.248 116.197319557 430.248 184.98 430.248 c 2,16,-1
 312.052 430.248 l 1,17,-1
 312.052 28.248 l 2,18,19
 312 -19 312 -19 330.116 -53.8447 c 0,20,21
 348 -89 348 -89 388.292 -114.845 c 0,22,23
 428 -141 428 -141 496.725 -154.07 c 0,24,25
 568.966036664 -167.99345404 568.966036664 -167.99345404 661.53 -167.27 c 2,26,-1
 724.608 -166.777 l 2,27,28
 791 -166 791 -166 849.745 -154.605 c 0,29,30
 901 -144 901 -144 930.357 -123.488 c 0,31,32
 960 -103 960 -103 972.274 -77.2705 c 0,33,34
 984.98 -51.0412863429 984.98 -51.0412863429 984.98 -16.25 c 2,35,-1
 984.98 0.735352 l 1,36,-1
 826.606 0.688477 l 1,37,-1
 823.56 1.05566 l 2,38,39
 777 7 777 7 747.879 41.2842 c 0,40,41
 719 76 719 76 705.322 127.307 c 0,42,43
 698 155 698 155 695.563 173.722 c 0,44,45
 693 192 693 192 698.658 217.66 c 0,46,47
 704 243 704 243 722.952 260.625 c 0,48,49
 737.971878277 274.97313598 737.971878277 274.97313598 759.62 279.771 c 2,50,-1
 765.057 280.976 l 1,51,-1
 1396.88964844 281.4140625 l 5,52,-1
 1396.88964844 0.421875 l 5,53,-1
 1254.98 0.671875 l 1,0,-1
EndSplineSet
EndChar

StartChar: uniFEFB
Encoding: 65275 65275 272
Width: 1090
VWidth: 2237
GlyphClass: 3
Flags: W
AnchorPoint: "Anchor-9" 846.69 1506 baselig 0
AnchorPoint: "Anchor-6" 736.69 -208.5 baselig 0
AnchorPoint: "Anchor-6" 165 -220 baselig 1
AnchorPoint: "Anchor-9" 220.5 1484.5 baselig 1
LayerCount: 2
Fore
SplineSet
111.06 319.704 m 1,0,-1
 111.06 1302.96 l 1,1,-1
 379.94 1302.96 l 1,2,-1
 379.94 319.704 l 1,3,-1
 111.06 319.704 l 1,0,-1
111.06 280.98 m 1,4,-1
 40.3994 280.98 l 1,5,-1
 40.3994 0 l 1,6,-1
 572.7 0 l 2,7,8
 762.372 0 762.372 0 860.851 122.263 c 128,-1,9
 959.328 244.524 959.328 244.524 959.328 467.499 c 2,10,-1
 959.328 1302.5 l 1,11,-1
 687.328 1302.5 l 1,12,-1
 687.328 444.499 l 2,13,14
 687.328 350.951 687.328 350.951 661.265 315.966 c 128,-1,15
 635.201 280.979 635.201 280.979 578.85 280.98 c 2,16,-1
 111.06 280.98 l 1,4,-1
EndSplineSet
LCarets2: 1 0
Ligature2: "'rlig' Required Ligatures in Arabic lookup 16 subtable" uniFEDF uniFE8E
EndChar

StartChar: arabic_dot
Encoding: 65536 -1 273
Width: 150
GlyphClass: 2
Flags: W
LayerCount: 2
Fore
SplineSet
-38.5977 80.5977 m 132,-1,1
 -38.5977 127.794 -38.5977 127.794 -5.19629 161.195 c 132,-1,2
 28.2061 194.598 28.2061 194.598 75.4023 194.598 c 132,-1,3
 122.598 194.598 122.598 194.598 156 161.195 c 132,-1,4
 189.402 127.794 189.402 127.794 189.402 80.5977 c 132,-1,5
 189.402 33.4014 189.402 33.4014 156 0 c 132,-1,6
 122.598 -33.4023 122.598 -33.4023 75.4023 -33.4023 c 132,-1,7
 28.2061 -33.4023 28.2061 -33.4023 -5.19629 0 c 132,-1,0
 -38.5977 33.4014 -38.5977 33.4014 -38.5977 80.5977 c 132,-1,1
EndSplineSet
EndChar

StartChar: arabic_2dots
Encoding: 65537 -1 274
Width: 400
GlyphClass: 2
Flags: W
LayerCount: 2
Fore
SplineSet
215.402 77.5977 m 132,-1,1
 215.402 124.794 215.402 124.794 248.804 158.195 c 132,-1,2
 282.206 191.598 282.206 191.598 329.402 191.598 c 132,-1,3
 376.598 191.598 376.598 191.598 410 158.195 c 132,-1,4
 443.402 124.794 443.402 124.794 443.402 77.5977 c 132,-1,5
 443.402 30.4014 443.402 30.4014 410 -3 c 132,-1,6
 376.598 -36.4023 376.598 -36.4023 329.402 -36.4023 c 132,-1,7
 282.206 -36.4023 282.206 -36.4023 248.804 -3 c 132,-1,0
 215.402 30.4014 215.402 30.4014 215.402 77.5977 c 132,-1,1
-43.5977 77.5977 m 132,-1,9
 -43.5977 124.794 -43.5977 124.794 -10.1963 158.195 c 132,-1,10
 23.2061 191.598 23.2061 191.598 70.4023 191.598 c 132,-1,11
 117.598 191.598 117.598 191.598 151 158.195 c 132,-1,12
 184.402 124.794 184.402 124.794 184.402 77.5977 c 132,-1,13
 184.402 30.4014 184.402 30.4014 151 -3 c 132,-1,14
 117.598 -36.4023 117.598 -36.4023 70.4023 -36.4023 c 132,-1,15
 23.2061 -36.4023 23.2061 -36.4023 -10.1963 -3 c 132,-1,8
 -43.5977 30.4014 -43.5977 30.4014 -43.5977 77.5977 c 132,-1,9
EndSplineSet
EndChar

StartChar: arabic_3dots
Encoding: 65538 -1 275
Width: 400
GlyphClass: 2
Flags: W
LayerCount: 2
Fore
SplineSet
88.8008 316.854 m 132,-1,1
 88.8008 364.05 88.8008 364.05 122.202 397.451 c 132,-1,2
 155.604 430.854 155.604 430.854 202.801 430.854 c 132,-1,3
 249.996 430.854 249.996 430.854 283.398 397.451 c 132,-1,4
 316.801 364.05 316.801 364.05 316.801 316.854 c 132,-1,5
 316.801 269.657 316.801 269.657 283.398 236.256 c 132,-1,6
 249.996 202.854 249.996 202.854 202.801 202.854 c 132,-1,7
 155.604 202.854 155.604 202.854 122.202 236.256 c 132,-1,0
 88.8008 269.657 88.8008 269.657 88.8008 316.854 c 132,-1,1
215.402 77.5977 m 128,-1,9
 215.402 124.794 215.402 124.794 248.804 158.195 c 128,-1,10
 282.206 191.598 282.206 191.598 329.402 191.598 c 128,-1,11
 376.598 191.598 376.598 191.598 410 158.195 c 128,-1,12
 443.402 124.794 443.402 124.794 443.402 77.5977 c 128,-1,13
 443.402 30.4014 443.402 30.4014 410 -3 c 128,-1,14
 376.598 -36.4023 376.598 -36.4023 329.402 -36.4023 c 128,-1,15
 282.206 -36.4023 282.206 -36.4023 248.804 -3 c 128,-1,8
 215.402 30.4014 215.402 30.4014 215.402 77.5977 c 128,-1,9
-43.5977 77.5977 m 128,-1,17
 -43.5977 124.794 -43.5977 124.794 -10.1963 158.195 c 128,-1,18
 23.2061 191.598 23.2061 191.598 70.4023 191.598 c 128,-1,19
 117.598 191.598 117.598 191.598 151 158.195 c 128,-1,20
 184.402 124.794 184.402 124.794 184.402 77.5977 c 128,-1,21
 184.402 30.4014 184.402 30.4014 151 -3 c 128,-1,22
 117.598 -36.4023 117.598 -36.4023 70.4023 -36.4023 c 128,-1,23
 23.2061 -36.4023 23.2061 -36.4023 -10.1963 -3 c 128,-1,16
 -43.5977 30.4014 -43.5977 30.4014 -43.5977 77.5977 c 128,-1,17
EndSplineSet
EndChar

StartChar: arabic_3dots_a
Encoding: 65539 -1 276
Width: 400
GlyphClass: 2
Flags: W
LayerCount: 2
Fore
SplineSet
85.7646 -146.417 m 132,-1,1
 85.7646 -99.2207 85.7646 -99.2207 119.166 -65.8193 c 132,-1,2
 152.568 -32.417 152.568 -32.417 199.765 -32.417 c 132,-1,3
 246.96 -32.417 246.96 -32.417 280.362 -65.8193 c 132,-1,4
 313.765 -99.2207 313.765 -99.2207 313.765 -146.417 c 132,-1,5
 313.765 -193.613 313.765 -193.613 280.362 -227.015 c 132,-1,6
 246.96 -260.416 246.96 -260.416 199.765 -260.416 c 132,-1,7
 152.568 -260.416 152.568 -260.416 119.166 -227.015 c 132,-1,0
 85.7646 -193.613 85.7646 -193.613 85.7646 -146.417 c 132,-1,1
215.402 92.5977 m 128,-1,9
 215.402 139.794 215.402 139.794 248.804 173.195 c 128,-1,10
 282.206 206.598 282.206 206.598 329.402 206.598 c 128,-1,11
 376.598 206.598 376.598 206.598 410 173.195 c 128,-1,12
 443.402 139.794 443.402 139.794 443.402 92.5977 c 128,-1,13
 443.402 45.4014 443.402 45.4014 410 12 c 128,-1,14
 376.598 -21.4023 376.598 -21.4023 329.402 -21.4023 c 128,-1,15
 282.206 -21.4023 282.206 -21.4023 248.804 12 c 128,-1,8
 215.402 45.4014 215.402 45.4014 215.402 92.5977 c 128,-1,9
-43.5977 92.5977 m 128,-1,17
 -43.5977 139.794 -43.5977 139.794 -10.1963 173.195 c 128,-1,18
 23.2061 206.598 23.2061 206.598 70.4023 206.598 c 128,-1,19
 117.598 206.598 117.598 206.598 151 173.195 c 128,-1,20
 184.402 139.794 184.402 139.794 184.402 92.5977 c 128,-1,21
 184.402 45.4014 184.402 45.4014 151 12 c 128,-1,22
 117.598 -21.4023 117.598 -21.4023 70.4023 -21.4023 c 128,-1,23
 23.2061 -21.4023 23.2061 -21.4023 -10.1963 12 c 128,-1,16
 -43.5977 45.4014 -43.5977 45.4014 -43.5977 92.5977 c 128,-1,17
EndSplineSet
EndChar

StartChar: uni066E.fina
Encoding: 65540 -1 277
Width: 1838
VWidth: 2237
GlyphClass: 2
Flags: W
AnchorPoint: "Anchor-10" 595 1116.5 basechar 0
AnchorPoint: "Anchor-7" 595 -123 basechar 0
LayerCount: 2
Fore
SplineSet
986.624 0 m 2,0,-1
 415.644 0 l 2,1,2
 232 0 232 0 135.882 117.05 c 0,3,4
 39.9978544042 234.002617045 39.9978544042 234.002617045 39.9971 447.499 c 2,5,-1
 39.9961 730.499 l 1,6,-1
 311.996 730.499 l 1,7,-1
 311.996 445.499 l 2,8,9
 312 351 312 351 338.098 316.184 c 0,10,11
 364.014723738 280.98 364.014723738 280.98 420.475 280.98 c 2,12,-1
 986.321 280.98 l 1,13,-1
 1216.4 283.716 l 2,14,15
 1307 285 1307 285 1343.54 316.85 c 0,16,17
 1379.63492937 348.678085003 1379.63492937 348.678085003 1379.58 422.213 c 2,18,-1
 1379.41 649.795 l 1,19,-1
 1654.79 649.795 l 1,20,-1
 1655 420.296 l 2,21,22
 1655 342 1655 342 1682.23 311.52 c 0,23,24
 1708.66661163 281.380090138 1708.66661163 281.380090138 1774.97 281.38 c 2,25,-1
 1861.16992188 281.379882812 l 5,26,-1
 1861.16992188 0.5 l 5,27,-1
 1766.03 0.5 l 2,28,29
 1585 0 1585 0 1498.5 108.205 c 1,30,31
 1448 61 1448 61 1376.93 34.123 c 0,32,33
 1287 0 1287 0 986.624 0 c 2,0,-1
EndSplineSet
EndChar

StartChar: uni06A1.fina
Encoding: 65543 -1 280
Width: 1885
VWidth: 2237
GlyphClass: 2
Flags: W
AnchorPoint: "Anchor-10" 418 1223.5 basechar 0
AnchorPoint: "Anchor-7" 525 -167.5 basechar 0
LayerCount: 2
Fore
SplineSet
837.725 280.98 m 2,0,1
 991.04 280.376 991.04 280.376 1088.33 280.544 c 1,2,3
 1057.93 320.488 1057.93 320.488 1037.75 367.266 c 0,4,5
 988.913 480.024 988.913 480.024 1026.16 607.648 c 1,6,7
 1072.47 778.157 1072.47 778.157 1235.21 844.636 c 0,8,9
 1307.52 874.171 1307.52 874.171 1397.92 874.171 c 0,10,11
 1516.36 874.171 1516.36 874.171 1585.45 835.222 c 0,12,13
 1744.17 745.158 1744.17 745.158 1770.73 603.148 c 0,14,15
 1791.25 492.354 1791.25 492.354 1757.03 377.384 c 0,16,17
 1741.7 325.869 1741.7 325.869 1705.93 281.925 c 1,18,19
 1822.21 282.266 1822.21 282.266 1906.74 281.879 c 2,20,-1
 1957.51 281.647 l 1,21,-1
 1957.51 0.12207 l 1,22,-1
 1697.44 -0.5 l 2,23,24
 1527.51 -0.90625 1527.51 -0.90625 1393.21 80.7363 c 1,25,26
 1253.65 -0.820312 1253.65 -0.820312 1091.28 -0.5 c 2,27,-1
 837.574 0 l 1,28,-1
 416.654 0 l 2,29,30
 232.857 -0.1875 232.857 -0.1875 136.428 114.017 c 128,-1,31
 39.998 228.221 39.998 228.221 39.9971 436.499 c 2,32,-1
 39.9961 730.499 l 1,33,-1
 311.996 730.499 l 1,34,-1
 311.996 445.499 l 2,35,36
 311.996 351.388 311.996 351.388 338.098 316.184 c 128,-1,37
 364.199 280.98 364.199 280.98 420.475 280.98 c 2,38,-1
 837.725 280.98 l 2,0,1
1278.34 504.626 m 128,-1,40
 1278.34 458.533 1278.34 458.533 1311.97 425.661 c 0,41,42
 1346.31 392.103 1346.31 392.103 1395.14 392.103 c 128,-1,43
 1443.98 392.103 1443.98 392.103 1478.31 425.658 c 0,44,45
 1511.94 458.533 1511.94 458.533 1511.94 504.626 c 128,-1,46
 1511.94 550.715 1511.94 550.715 1478.31 583.591 c 0,47,48
 1443.98 617.146 1443.98 617.146 1395.14 617.146 c 128,-1,49
 1346.31 617.146 1346.31 617.146 1311.97 583.589 c 0,50,39
 1278.34 550.715 1278.34 550.715 1278.34 504.626 c 128,-1,40
EndSplineSet
EndChar

StartChar: uni06A1.init
Encoding: 65544 -1 281
Width: 797
VWidth: 2186
GlyphClass: 2
Flags: W
AnchorPoint: "Anchor-10" 384.531 1348.5 basechar 0
AnchorPoint: "Anchor-7" 317.53 -276 basechar 0
LayerCount: 2
Fore
SplineSet
406.604492188 356.10546875 m 5,0,1
 372 356 372 356 326.470703125 356.134765625 c 4,2,3
 149 356 149 356 81.21875 432.314453125 c 4,4,5
 -4 527 -4 527 11.1005859375 719.177734375 c 0,6,7
 22 866 22 866 93.388671875 944.705078125 c 0,8,9
 189 1050 189 1050 367.170898438 1046.95996094 c 0,10,11
 506 1044 506 1044 591.93359375 969.431640625 c 0,12,13
 706 871 706 871 705.370117188 633.389648438 c 0,14,15
 705 493 705 493 704.990234375 489.3203125 c 2,16,-1
 704.990234375 376.34375 l 2,17,18
 705 189 705 189 573.984375 94.0703125 c 0,19,20
 443.178701169 -0.870296163623 443.178701169 -0.870296163623 205.137695312 0 c 2,21,-1
 -50.4833984375 0.9345703125 l 1,22,-1
 -51.10546875 281.825195312 l 1,23,-1
 168.303710938 282 l 2,24,25
 386 282 386 282 406.604492188 356.10546875 c 5,0,1
324.83984375 776.986328125 m 0,26,27
 270.10380525 769.659853901 270.10380525 769.659853901 265.442014627 690.034914027 c 128,-1,28
 260.780224003 610.409974153 260.780224003 610.409974153 325 603 c 0,29,30
 361 599 361 599 437.375 604.826171875 c 1,31,32
 438.665146569 724.910595525 438.665146569 724.910595525 419.388029359 756.300494344 c 128,-1,33
 400.110912149 787.690393162 400.110912149 787.690393162 324.83984375 776.986328125 c 0,26,27
EndSplineSet
EndChar

StartChar: uni06A1.medi
Encoding: 65545 -1 282
Width: 919
VWidth: 2237
GlyphClass: 2
Flags: W
AnchorPoint: "Anchor-10" 452.26 1063 basechar 0
AnchorPoint: "Anchor-7" 452.26 -114 basechar 0
LayerCount: 2
Fore
SplineSet
336.752 505.126 m 128,-1,1
 336.752 459.034 336.752 459.034 370.383 426.158 c 0,2,3
 404.709 392.603 404.709 392.603 453.553 392.603 c 128,-1,4
 502.396 392.603 502.396 392.603 536.721 426.158 c 0,5,6
 570.352 459.033 570.352 459.033 570.352 505.126 c 128,-1,7
 570.352 551.214 570.352 551.214 536.721 584.09 c 0,8,9
 502.395 617.646 502.395 617.646 453.553 617.646 c 128,-1,10
 404.711 617.646 404.711 617.646 370.382 584.089 c 0,11,0
 336.752 551.218 336.752 551.218 336.752 505.126 c 128,-1,1
643.866 835.72 m 0,12,13
 803 746 803 746 829.136 603.643 c 0,14,15
 850 490 850 490 815.314 377.478 c 0,16,17
 799 325 799 325 762.64 280.412 c 1,18,-1
 891.68 280.979 l 1,19,-1
 945.919921875 281.857421875 l 1,20,-1
 945.919921875 0.642578125 l 1,21,-1
 755.872 0 l 2,22,23
 581 -1 581 -1 451.567 81.2676 c 1,24,25
 312 0 312 0 149.79 0 c 2,26,-1
 -26.400390625 0 l 1,27,-1
 -26.400390625 280.98046875 l 1,28,-1
 146.589 280.977 l 1,29,30
 117 321 117 321 96.1709 367.749 c 0,31,32
 46 481 46 481 82.5625 610.147460938 c 28,33,34
 130 778 130 778 293.614 845.135 c 0,35,36
 366 875 366 875 456.326 874.671 c 0,37,38
 575 875 575 875 643.866 835.72 c 0,12,13
EndSplineSet
EndChar

StartChar: uni066F.fina
Encoding: 65546 -1 283
Width: 1396
VWidth: 2186
GlyphClass: 2
Flags: W
AnchorPoint: "Anchor-10" 353 956 basechar 0
AnchorPoint: "Anchor-7" 365.645 -579.82 basechar 0
LayerCount: 2
Fore
SplineSet
1015.58496094 -0.044921875 m 1,0,1
 865.792795575 -0.239042981644 865.792795575 -0.239042981644 821.445714194 9.67833007168 c 0,2,3
 575.981741664 64.5716333263 575.981741664 64.5716333263 601.110351562 393.833007812 c 0,4,5
 621.983863639 664.275672421 621.983863639 664.275672421 850.513671875 712.419921875 c 0,6,7
 900.06640625 722.859375 900.06640625 722.859375 957.206054688 721.6171875 c 0,8,9
 1096.00195312 718.983398438 1096.00195312 718.983398438 1181.74023438 644.256835938 c 0,10,11
 1297.6333317 543.248363946 1297.6333317 543.248363946 1295.375 307.491210938 c 1,12,-1
 1294.73730469 281.797851562 l 1,13,14
 1357.29589844 281.963867188 1357.29589844 281.963867188 1416.33300781 281.879882812 c 2,15,-1
 1467.25976562 281.807617188 l 1,16,-1
 1467.25976562 0.1650390625 l 1,17,-1
 1286.95898438 -0.419921875 l 1,18,19
 1288.65854163 -254.015560224 1288.65854163 -254.015560224 1144.62077472 -381.900846518 c 128,-1,20
 1000.58300781 -509.786132812 1000.58300781 -509.786132812 736.821289062 -507.366210938 c 2,21,-1
 678.682617188 -506.869140625 l 1,22,-1
 619.600585938 -506.869140625 l 2,23,24
 339.510742188 -506.869140625 339.510742188 -506.869140625 189.749023438 -376.723632812 c 128,-1,25
 39.9873046875 -246.578125 39.9873046875 -246.578125 39.97265625 3.6298828125 c 2,26,-1
 39.97265625 236.130859375 l 2,27,28
 39.97265625 338.272983078 39.97265625 338.272983078 105.076171875 383.564453125 c 0,29,30
 138.494140625 406.813476562 138.494140625 406.813476562 185.001953125 406.629882812 c 2,31,-1
 311.97265625 406.629882812 l 1,32,-1
 311.97265625 4.6298828125 l 2,33,34
 311.97265625 -113.7421875 311.97265625 -113.7421875 383.745117188 -169.841796875 c 128,-1,35
 455.516601562 -225.940429688 455.516601562 -225.940429688 621.451171875 -225.888671875 c 2,36,-1
 678.706054688 -225.888671875 l 1,37,-1
 744.033203125 -225.389648438 l 2,38,39
 883.40625 -224.32421875 883.40625 -224.32421875 946.821289062 -170.138671875 c 128,-1,40
 1010.23535156 -115.953125 1010.23535156 -115.953125 1015.58496094 -0.044921875 c 1,0,1
902.97265625 449.248046875 m 0,41,42
 893 447 893 447 886.424804688 442.061523438 c 0,43,44
 879 437 879 437 874.008789062 430.6796875 c 0,45,46
 869 424 869 424 864.981445312 414.373046875 c 0,47,48
 853 379 853 379 854.516622691 338.296377335 c 0,49,50
 856 300 856 300 877 287 c 4,51,52
 903 270 903 270 1027.28320312 279.462890625 c 1,53,54
 1029 427 1029 427 992 444 c 128,-1,55
 955 461 955 461 902.97265625 449.248046875 c 0,41,42
EndSplineSet
EndChar

StartChar: arabic_ring
Encoding: 65549 -1 286
Width: 438
GlyphClass: 2
Flags: W
LayerCount: 2
Fore
SplineSet
316 220 m 0,0,1
 316 260 316 260 288 288 c 0,2,3
 260 317 260 317 219 317 c 128,-1,4
 178 317 178 317 150 289 c 128,-1,5
 122 261 122 261 122 220 c 0,6,7
 122 178 122 178 150 150 c 0,8,9
 178 123 178 123 219 123 c 128,-1,10
 260 123 260 123 288 151 c 128,-1,11
 316 179 316 179 316 220 c 0,0,1
438 220 m 128,-1,13
 438 128 438 128 375 64 c 0,14,15
 311 0 311 0 219 0 c 128,-1,16
 127 0 127 0 64 64 c 0,17,18
 0 128 0 128 0 220 c 128,-1,19
 0 312 0 312 64 376 c 0,20,21
 127 439 127 439 219 439 c 128,-1,22
 311 439 311 439 375 376 c 1,23,12
 438 312 438 312 438 220 c 128,-1,13
EndSplineSet
EndChar

StartChar: arabic_gaf_bar
Encoding: 65550 -1 287
Width: 614
GlyphClass: 2
Flags: W
LayerCount: 2
Fore
SplineSet
602 1626.65 m 1,0,-1
 0 1333 l 1,1,-1
 0 1442 l 1,2,-1
 602 1735.65 l 1,3,-1
 602 1626.65 l 1,0,-1
EndSplineSet
EndChar

StartChar: uni066E.init.math
Encoding: 65560 -1 297
Width: 877
VWidth: 2237
GlyphClass: 2
Flags: W
LayerCount: 2
Fore
SplineSet
616.591 114.155 m 0,0,1
 528.129 8.5 528.129 8.5 342.4 8.5 c 2,2,-1
 -59.4004 8.5 l 1,3,-1
 -59.4004 281.38 l 1,4,-1
 283.55 281.38 l 2,5,6
 373.74 281.38 373.74 281.38 409.689 317.331 c 0,7,8
 450.99 358.629 450.99 358.629 450.99 456.31 c 2,9,-1
 450.99 726.5 l 1,10,-1
 723.87 726.5 l 1,11,-1
 723.87 456.31 l 2,12,13
 723.87 242.428 723.87 242.428 616.591 114.155 c 0,0,1
EndSplineSet
EndChar

StartChar: guillemotleft
Encoding: 171 171 298
Width: 1243
Flags: W
LayerCount: 2
Fore
SplineSet
581.342773438 949.258789062 m 1,0,-1
 581.342773438 733.153320312 l 1,1,-1
 319.694335938 535.799804688 l 1,2,-1
 581.342773438 338.447265625 l 1,3,-1
 581.342773438 122.340820312 l 1,4,-1
 141.09375 451.858398438 l 1,5,-1
 141.09375 617.956054688 l 1,6,-1
 581.342773438 949.258789062 l 1,0,-1
1009.08984375 949.258789062 m 1,7,-1
 1009.08984375 733.153320312 l 1,8,-1
 748.333984375 535.799804688 l 1,9,-1
 1009.08984375 338.447265625 l 1,10,-1
 1009.08984375 122.340820312 l 1,11,-1
 568.840820312 451.858398438 l 1,12,-1
 568.840820312 617.956054688 l 1,13,-1
 1009.08984375 949.258789062 l 1,7,-1
EndSplineSet
EndChar

StartChar: guillemotright
Encoding: 187 187 299
Width: 1243
Flags: W
LayerCount: 2
Fore
SplineSet
600.095703125 949.258789062 m 1,0,-1
 1040.34472656 617.956054688 l 1,1,-1
 1040.34472656 451.858398438 l 1,2,-1
 600.095703125 122.340820312 l 1,3,-1
 600.095703125 338.447265625 l 1,4,-1
 861.745117188 535.799804688 l 1,5,-1
 600.095703125 733.153320312 l 1,6,-1
 600.095703125 949.258789062 l 1,0,-1
172.348632812 949.258789062 m 1,7,-1
 610.811523438 617.956054688 l 1,8,-1
 610.811523438 451.858398438 l 1,9,-1
 172.348632812 122.340820312 l 1,10,-1
 172.348632812 338.447265625 l 1,11,-1
 433.10546875 535.799804688 l 1,12,-1
 172.348632812 733.153320312 l 1,13,-1
 172.348632812 949.258789062 l 1,7,-1
EndSplineSet
EndChar

StartChar: uniFEFC
Encoding: 65276 65276 306
Width: 1173
VWidth: 2237
Flags: W
AnchorPoint: "Anchor-9" 217.5 1478.5 baselig 1
AnchorPoint: "Anchor-6" 186 -208 baselig 1
AnchorPoint: "Anchor-6" 775.69 -220.5 baselig 0
AnchorPoint: "Anchor-9" 825.69 1488 baselig 0
LayerCount: 2
Fore
SplineSet
112.06 1302.96 m 1,0,-1
 380.94 1302.96 l 1,1,-1
 380.94 319.5 l 1,2,-1
 112.06 319.5 l 1,3,-1
 112.06 1302.96 l 1,0,-1
40.5996 280.979 m 1,4,-1
 570.85 280.98 l 2,5,6
 631.617 280.98 631.617 280.98 659.953 319.149 c 128,-1,7
 688.29 357.318 688.29 357.318 688.29 457.31 c 2,8,-1
 688.29 1302.96 l 1,9,-1
 957.17 1302.96 l 1,10,-1
 957.17 456.31 l 2,11,12
 957.17 360.707 957.17 360.707 996.004 320.843 c 128,-1,13
 1034.84 280.979 1034.84 280.979 1126.61 280.979 c 2,14,-1
 1244.86 280.979 l 1,15,-1
 1244.86 0 l 1,16,-1
 1067.76 0 l 2,17,18
 921.018 0 921.018 0 823.068 85.2109 c 1,19,20
 727.183 -0 727.183 -0 585.7 0 c 2,21,-1
 40.5996 0 l 1,22,-1
 40.5996 280.979 l 1,4,-1
EndSplineSet
LCarets2: 1 0
Ligature2: "'rlig' Required Ligatures in Arabic lookup 16 subtable" uniFEE0 uniFE8E
EndChar
